<?xml version="1.0" encoding="UTF-8" standalone="no"?>
<!-- Created with Inkscape (http://www.inkscape.org/) -->

<svg
   xmlns:dc="http://purl.org/dc/elements/1.1/"
   xmlns:cc="http://creativecommons.org/ns#"
   xmlns:rdf="http://www.w3.org/1999/02/22-rdf-syntax-ns#"
   xmlns:svg="http://www.w3.org/2000/svg"
   xmlns="http://www.w3.org/2000/svg"
   xmlns:sodipodi="http://sodipodi.sourceforge.net/DTD/sodipodi-0.dtd"
   xmlns:inkscape="http://www.inkscape.org/namespaces/inkscape"
   width="2000"
   height="2048"
   id="svg2992"
   version="1.1"
   inkscape:version="0.91 r13725"
   sodipodi:docname="2.svg">
  <defs
     id="defs5498" />
  <sodipodi:namedview
     inkscape:window-height="844"
     inkscape:window-width="1600"
     inkscape:pageshadow="2"
     inkscape:pageopacity="0.0"
     borderopacity="1.0"
     bordercolor="#666666"
     pagecolor="#ffffff"
     id="base"
     showgrid="true"
     showguides="true"
     inkscape:guide-bbox="true"
     inkscape:zoom="0.32102648"
     inkscape:cx="-1115.6786"
     inkscape:cy="1234.8081"
     inkscape:window-x="1600"
     inkscape:window-y="0"
     inkscape:current-layer="layer1"
     inkscape:window-maximized="1">
    <sodipodi:guide
       orientation="horizontal"
       position="0,600"
       id="guide5596" />
    <inkscape:grid
       type="xygrid"
       id="grid3769"
       empspacing="3"
       visible="true"
       enabled="true"
       snapvisiblegridlinesonly="true"
       spacingx="4px"
       units="px"
       dotted="true"
       spacingy="4px" />
    <sodipodi:guide
       orientation="0,1"
       position="-1040,1600"
       id="guide2985" />
  </sodipodi:namedview>
  <metadata
     id="metadata5594">
    <rdf:RDF>
      <cc:Work
         rdf:about="">
        <dc:format>image/svg+xml</dc:format>
        <dc:type
           rdf:resource="http://purl.org/dc/dcmitype/StillImage" />
        <dc:title />
      </cc:Work>
    </rdf:RDF>
  </metadata>
  <g
     inkscape:label="Layer 1"
     inkscape:groupmode="layer"
     id="layer1"
     transform="translate(0,1048)">
    <path
       style="fill:none;fill-rule:evenodd;stroke:#000000;stroke-width:178.77932739;stroke-linecap:round;stroke-linejoin:round;stroke-miterlimit:4;stroke-dasharray:none;stroke-opacity:1"
       d="m 281.45284,-695.37258 c 428.71379,-505.55282 893.59106,-75.4071 688.5336,266.72919 C 712.07315,-23.164838 323.29669,347.22847 323.29669,347.22847 783.6614,129.79475 974.93012,360.88499 1283.056,259.51535"
       id="path10891"
       inkscape:connector-curvature="0"
       sodipodi:nodetypes="cccc" />
    <path
       style="fill:none;fill-rule:evenodd;stroke:#000000;stroke-width:70;stroke-linecap:round;stroke-linejoin:round;stroke-miterlimit:4;stroke-dasharray:none;stroke-opacity:1"
       d="m -844.67223,-891.59893 c 139.66613,-164.69877 291.11357,-24.56608 224.31007,86.89487 -84.02284,132.09656 -210.67819,252.76306 -210.67819,252.76306 149.97733,-70.83542 212.28874,4.44904 312.6698,-28.57512"
       id="path10891-3"
       inkscape:connector-curvature="0"
       sodipodi:nodetypes="cccc" />
    <path
       style="color:#000000;font-style:normal;font-variant:normal;font-weight:normal;font-stretch:normal;font-size:medium;line-height:normal;font-family:sans-serif;text-indent:0;text-align:start;text-decoration:none;text-decoration-line:none;text-decoration-style:solid;text-decoration-color:#000000;letter-spacing:normal;word-spacing:normal;text-transform:none;direction:ltr;block-progression:tb;writing-mode:lr-tb;baseline-shift:baseline;text-anchor:start;white-space:normal;clip-rule:nonzero;display:inline;overflow:visible;visibility:visible;opacity:1;isolation:auto;mix-blend-mode:normal;color-interpolation:sRGB;color-interpolation-filters:linearRGB;solid-color:#000000;solid-opacity:1;fill:#000000;fill-opacity:1;fill-rule:evenodd;stroke:none;stroke-width:70;stroke-linecap:round;stroke-linejoin:round;stroke-miterlimit:4;stroke-dasharray:none;stroke-dashoffset:0;stroke-opacity:1;color-rendering:auto;image-rendering:auto;shape-rendering:auto;text-rendering:auto;enable-background:accumulate"
       d="m -991.56445,-233.08008 c -53.50015,-1.93367 -114.84045,24.3889 -167.80275,86.84375 a 35.0035,35.0035 0 1 0 53.3887,45.27344 c 62.63,-73.85539 113.42705,-71.73833 144.78709,-52.79102 31.28832,18.90398 46.80254,58.695112 22.95703,98.781254 -80.66412,126.608268 -204.94922,245.691406 -204.94922,245.691406 a 35.0035,35.0035 0 0 0 39.0898,56.98828 c 68.9666,-32.57342 111.46231,-30.8883 155.66021,-25.38281 44.19789,5.50549 93.26741,18.05755 153,-1.59375 a 35.0035,35.0035 0 1 0 -21.875,-66.49414 c -40.64848,13.37286 -72.92527,4.79684 -122.47266,-1.375 -20.3981,-2.54088 -43.33649,-3.93473 -68.74215,-2.25195 41.08352,-46.25942 89.56418,-105.440241 129.69332,-168.529302 a 35.0035,35.0035 0 0 0 0.48828,-0.791016 c 42.72228,-71.281671 15.92894,-157.147442 -46.65039,-194.957032 -19.55604,-11.81549 -42.254,-18.53317 -66.57226,-19.41211 z"
       id="path10891-3-7"
       inkscape:connector-curvature="0" />
  </g>
</svg>
