<?xml version="1.0" encoding="UTF-8" standalone="no"?>
<svg
   xmlns:dc="http://purl.org/dc/elements/1.1/"
   xmlns:cc="http://creativecommons.org/ns#"
   xmlns:rdf="http://www.w3.org/1999/02/22-rdf-syntax-ns#"
   xmlns:svg="http://www.w3.org/2000/svg"
   xmlns="http://www.w3.org/2000/svg"
   xmlns:sodipodi="http://sodipodi.sourceforge.net/DTD/sodipodi-0.dtd"
   xmlns:inkscape="http://www.inkscape.org/namespaces/inkscape"
   version="1.1"
   id="svg2992"
   height="2048"
   width="4000"
   inkscape:version="0.91 r13725"
   sodipodi:docname="a.svg">
  <sodipodi:namedview
     pagecolor="#ffffff"
     bordercolor="#666666"
     borderopacity="1"
     objecttolerance="10"
     gridtolerance="10"
     guidetolerance="10"
     inkscape:pageopacity="0"
     inkscape:pageshadow="2"
     inkscape:window-width="1600"
     inkscape:window-height="844"
     id="namedview33"
     showgrid="true"
     inkscape:zoom="0.1635"
     inkscape:cx="-1015.2905"
     inkscape:cy="1334.6822"
     inkscape:window-x="1600"
     inkscape:window-y="0"
     inkscape:window-maximized="1"
     inkscape:current-layer="layer1-5"
     showguides="true"
     inkscape:guide-bbox="true">
    <inkscape:grid
       type="xygrid"
       id="grid4162" />
    <sodipodi:guide
       orientation="0,1"
       position="2560,1600"
       id="guide4164"
       inkscape:label=""
       inkscape:color="rgb(0,0,255)" />
    <sodipodi:guide
       orientation="0,1"
       position="-1360,600"
       id="guide4166"
       inkscape:label=""
       inkscape:color="rgb(0,0,255)" />
  </sodipodi:namedview>
  <defs
     id="defs5498" />
  <metadata
     id="metadata5594">
    <rdf:RDF>
      <cc:Work
         rdf:about="">
        <dc:format>image/svg+xml</dc:format>
        <dc:type
           rdf:resource="http://purl.org/dc/dcmitype/StillImage" />
        <dc:title />
      </cc:Work>
    </rdf:RDF>
  </metadata>
  <g
     transform="matrix(1.1293357,0,0,0.99178138,2327.6427,2170.9425)"
     id="layer1">
    <path
       id="path4165-7"
       d="m -1181.8525,-1426.4919 c -17.0596,-233.4472 -172.9667,-317.7706 -366.5292,-250.4415 -434.0073,155.8482 -363.4374,980.71405 -20.4724,863.74785 181.603,-9.4933 412.3343,-570.53285 386.8458,-608.69215 -27.4512,302.8612 -27.4512,494.86115 8.7799,648.15155"
       style="fill:none;fill-rule:evenodd;stroke:#000000;stroke-width:130;stroke-linecap:round;stroke-linejoin:round;stroke-miterlimit:4;stroke-dasharray:none;stroke-opacity:1"
       inkscape:connector-curvature="0" />
  </g>
  <path
     style="fill:none;fill-rule:evenodd;stroke:#000000;stroke-width:130;stroke-linecap:round;stroke-linejoin:round;stroke-miterlimit:4;stroke-dasharray:none;stroke-opacity:1"
     d="m 1360,1410 c 0,0 80,-1074 413.0286,-1324.91129 C 2145.5965,-195.61243 2400,1408 2400,1408"
     id="path4138"
     inkscape:connector-curvature="0"
     sodipodi:nodetypes="csc" />
  <path
     style="fill:none;fill-rule:evenodd;stroke:#000000;stroke-width:130;stroke-linecap:round;stroke-linejoin:round;stroke-miterlimit:4;stroke-dasharray:none;stroke-opacity:1"
     d="m 1492,798 728,0"
     id="path4140"
     inkscape:connector-curvature="0"
     sodipodi:nodetypes="cc" />
  <g
     transform="matrix(0.81946939,0,0,0.71965712,364.61713,1331.9652)"
     id="layer1-5"
     style="stroke-width:91.15255761;stroke-miterlimit:4;stroke-dasharray:none">
    <path
       id="path4165-7-2"
       d="m -1181.8525,-1426.4919 c -17.0596,-233.4472 -172.9667,-317.7706 -366.5292,-250.4415 -434.0073,155.8482 -363.4374,980.71405 -20.4724,863.74785 181.603,-9.4933 412.3343,-570.53285 386.8458,-608.69215 -27.4512,302.8612 -27.4512,494.86115 8.7799,648.15155"
       style="fill:none;fill-rule:evenodd;stroke:#000000;stroke-width:169.28332128;stroke-linecap:round;stroke-linejoin:round;stroke-miterlimit:4;stroke-dasharray:none;stroke-opacity:1"
       inkscape:connector-curvature="0" />
    <path
       style="color:#000000;font-style:normal;font-variant:normal;font-weight:normal;font-stretch:normal;font-size:medium;line-height:normal;font-family:sans-serif;text-indent:0;text-align:start;text-decoration:none;text-decoration-line:none;text-decoration-style:solid;text-decoration-color:#000000;letter-spacing:normal;word-spacing:normal;text-transform:none;direction:ltr;block-progression:tb;writing-mode:lr-tb;baseline-shift:baseline;text-anchor:start;white-space:normal;clip-rule:nonzero;display:inline;overflow:visible;visibility:visible;opacity:1;isolation:auto;mix-blend-mode:normal;color-interpolation:sRGB;color-interpolation-filters:linearRGB;solid-color:#000000;solid-opacity:1;fill:#000000;fill-opacity:1;fill-rule:evenodd;stroke:none;stroke-width:169.2833252;stroke-linecap:round;stroke-linejoin:round;stroke-miterlimit:4;stroke-dasharray:none;stroke-dashoffset:0;stroke-opacity:1;color-rendering:auto;image-rendering:auto;shape-rendering:auto;text-rendering:auto;enable-background:accumulate"
       d="m -1439.8359,-222.37305 c -48.6802,0.1673 -99.1063,9.57484 -148.8926,26.89258 a 84.650127,84.650127 0 0 0 -0.7988,0.28125 c -131.5402,47.2349 -224.9166,146.354122 -281.5157,258.750001 -56.599,112.395879 -79.6017,238.963379 -76.082,357.601559 3.5197,118.63819 31.9252,230.39792 95.793,314.53516 61.744,81.33949 174.1197,128.50159 285.7441,96.02148 81.6311,-8.67198 138.1157,-62.71816 189.084,-122.14062 28.5108,-33.24 55.2016,-70.62956 80.125,-109.91406 4.1168,76.25511 13.2633,144.11826 28.2402,207.48437 a 84.650127,84.650127 0 1 0 164.7442,-38.9375 C -1134.0899,638.33189 -1136.806,466.71265 -1114.3672,197 c 0.1789,-0.78331 0.417,-1.62255 0.5899,-2.40039 2.7435,-12.3468 4.8608,-23.78758 5.5996,-37.51172 0.5298,-9.84353 3.7814,-21.13348 -2.8438,-39.41406 -11.9436,-129.569732 -65.343,-234.73695 -154.7812,-292.04688 -51.7427,-33.15549 -111.4444,-48.2151 -174.0332,-48 z m -1.0489,168.789066 c 34.2997,-0.404852 62.0271,7.821366 83.752,21.742187 38.0068,24.3538566 70.014,72.685523 77.9043,168.339847 -1.0369,11.51338 -1.7989,21.99729 -2.7598,33.21484 -3.5943,13.26023 -9.1644,31.00866 -16.3672,51.05078 -19.2755,53.63553 -50.1631,124.93057 -86.8047,194.33203 -36.6415,69.40147 -79.6127,137.36665 -119.8359,184.26172 -40.2232,46.89508 -77.8861,64.17299 -80.8164,64.32617 a 84.650127,84.650127 0 0 0 -22.9023,4.41602 c -56.1354,19.14462 -75.521,7.73299 -107.7813,-34.76563 -32.2603,-42.49861 -58.6794,-124.76264 -61.4219,-217.20117 -2.7424,-92.43852 16.5543,-193.99978 58.0703,-276.44336 41.4574,-82.327134 101.9052,-144.6923623 187.1778,-175.427731 34.7105,-12.029815 65.2226,-17.532175 91.7851,-17.845703 z m 163.0332,203.242184 a 84.650127,84.650127 0 0 0 0.1778,0.83594 c -0.1037,0.70296 -0.4146,2.24721 -0.9024,4.91797 -0.1276,-2.96458 0.2632,-4.62626 0.7246,-5.75391 z"
       id="path4165-7-2-2"
       inkscape:connector-curvature="0" />
  </g>
</svg>
