<?xml version="1.0" encoding="UTF-8" standalone="no"?>
<svg
   xmlns:dc="http://purl.org/dc/elements/1.1/"
   xmlns:cc="http://creativecommons.org/ns#"
   xmlns:rdf="http://www.w3.org/1999/02/22-rdf-syntax-ns#"
   xmlns:svg="http://www.w3.org/2000/svg"
   xmlns="http://www.w3.org/2000/svg"
   xmlns:sodipodi="http://sodipodi.sourceforge.net/DTD/sodipodi-0.dtd"
   xmlns:inkscape="http://www.inkscape.org/namespaces/inkscape"
   version="1.1"
   id="svg2992"
   height="2048"
   width="4000"
   inkscape:version="0.91 r13725"
   sodipodi:docname="ae.svg">
  <sodipodi:namedview
     pagecolor="#ffffff"
     bordercolor="#666666"
     borderopacity="1"
     objecttolerance="10"
     gridtolerance="10"
     guidetolerance="10"
     inkscape:pageopacity="0"
     inkscape:pageshadow="2"
     inkscape:window-width="1600"
     inkscape:window-height="844"
     id="namedview33"
     showgrid="true"
     showguides="true"
     inkscape:guide-bbox="true"
     inkscape:snap-grids="false"
     inkscape:zoom="0.23122392"
     inkscape:cx="269.76204"
     inkscape:cy="77.650921"
     inkscape:window-x="1600"
     inkscape:window-y="0"
     inkscape:window-maximized="1"
     inkscape:current-layer="layer1-6">
    <inkscape:grid
       type="xygrid"
       id="grid4162" />
    <sodipodi:guide
       orientation="0,1"
       position="400,600"
       id="guide4164"
       inkscape:label=""
       inkscape:color="rgb(0,0,255)" />
    <sodipodi:guide
       orientation="0,1"
       position="-880,1600"
       id="guide4166" />
  </sodipodi:namedview>
  <defs
     id="defs5498" />
  <metadata
     id="metadata5594">
    <rdf:RDF>
      <cc:Work
         rdf:about="">
        <dc:format>image/svg+xml</dc:format>
        <dc:type
           rdf:resource="http://purl.org/dc/dcmitype/StillImage" />
        <dc:title />
      </cc:Work>
    </rdf:RDF>
  </metadata>
  <g
     transform="translate(5944.9542,1347.6942)"
     id="layer1">
    <g
       id="layer1-6"
       transform="translate(-14814.53,16.043327)">
      <path
         style="fill:none;fill-rule:evenodd;stroke:#000000;stroke-width:130;stroke-linecap:round;stroke-linejoin:round;stroke-miterlimit:4;stroke-dasharray:none;stroke-opacity:1"
         d="m 9033.059,-316.8903 c 873.9491,-0.61079 880.1755,-532.55976 468.5761,-532.22189 -821.3141,0.67419 -747.2617,1265.3513 262.5369,765.045653"
         id="path5613"
         inkscape:connector-curvature="0"
         sodipodi:nodetypes="csc" />
      <path
         style="fill:none;fill-rule:evenodd;stroke:#000000;stroke-width:130;stroke-linecap:round;stroke-linejoin:round;stroke-miterlimit:4;stroke-dasharray:none;stroke-opacity:1"
         d="M 8852.108,-488.03816 C 7978.1593,-487.42737 8003.0394,-1.607952 8383.5319,44.183728 9178.5054,139.85756 9165.3921,-1143.321 8120.9953,-781.40929"
         id="path5613-9"
         inkscape:connector-curvature="0"
         sodipodi:nodetypes="csc" />
      <path
         style="color:#000000;font-style:normal;font-variant:normal;font-weight:normal;font-stretch:normal;font-size:medium;line-height:normal;font-family:sans-serif;text-indent:0;text-align:start;text-decoration:none;text-decoration-line:none;text-decoration-style:solid;text-decoration-color:#000000;letter-spacing:normal;word-spacing:normal;text-transform:none;direction:ltr;block-progression:tb;writing-mode:lr-tb;baseline-shift:baseline;text-anchor:start;white-space:normal;clip-rule:nonzero;display:inline;overflow:visible;visibility:visible;opacity:1;isolation:auto;mix-blend-mode:normal;color-interpolation:sRGB;color-interpolation-filters:linearRGB;solid-color:#000000;solid-opacity:1;fill:#000000;fill-opacity:1;fill-rule:evenodd;stroke:none;stroke-width:130;stroke-linecap:round;stroke-linejoin:round;stroke-miterlimit:4;stroke-dasharray:none;stroke-dashoffset:0;stroke-opacity:1;color-rendering:auto;image-rendering:auto;shape-rendering:auto;text-rendering:auto;enable-background:accumulate"
         d="M 308.04688 1884.1777 C 48.313306 1884.3909 -136.13884 2005.1687 -234.78906 2164.0234 C -278.76843 2075.4466 -350.59134 1998.2975 -450.02734 1948.5273 C -527.69594 1909.6523 -620.55326 1887.7901 -728.03906 1887.4453 C -835.52486 1887.1005 -957.63867 1908.2736 -1093.8223 1955.4648 A 65.0065 65.0065 0 1 0 -1051.2578 2078.2988 C -801.42651 1991.7255 -624.22994 2006.7089 -508.21484 2064.7773 C -425.18174 2106.3374 -370.23202 2170.6602 -340.20312 2245.2773 A 65.0065 65.0065 0 0 0 -341.47266 2245.252 C -565.98226 2245.4089 -736.00249 2276.3421 -861.21289 2326.9707 C -986.42329 2377.5993 -1068.881 2448.9332 -1105.7168 2533.4512 C -1142.5526 2617.9692 -1125.9462 2712.9224 -1070.6855 2781.0352 C -1015.4248 2849.148 -926.34623 2893.9408 -817.76953 2907.0078 C -601.93403 2932.9833 -429.56349 2863.5778 -321.21289 2747.2441 C -299.22093 2723.6318 -279.81854 2698.264 -263.02539 2671.5684 C -215.82881 2758.3015 -138.61485 2829.9116 -33.595703 2867.1152 C 124.7744 2923.2186 336.99994 2902.5198 599.49414 2772.4668 A 65.0065 65.0065 0 1 0 541.7793 2655.9805 C 299.374 2776.0804 123.66905 2784.9117 9.8144531 2744.5781 C -91.045847 2708.8478 -150.63018 2635.6183 -175.29688 2544.8242 A 65.0065 65.0065 0 0 0 -160.43164 2546.4004 C 289.73066 2546.0858 538.11925 2414.295 615.25195 2241.418 C 653.81835 2154.9795 639.44197 2056.786 580.32617 1989.2852 C 521.21047 1921.7843 424.94748 1884.0818 308.04688 1884.1777 z M 308.15234 2014.1777 C 397.05134 2014.1047 454.3611 2042.7699 482.5293 2074.9336 C 510.6975 2107.0973 517.3171 2141.8664 496.5332 2188.4492 C 454.9654 2281.6149 263.26522 2416.1042 -160.52148 2416.4004 A 65.0065 65.0065 0 0 0 -183.44531 2420.3887 C -182.68519 2406.9349 -182.43979 2393.4593 -182.69727 2379.998 C -152.48901 2196.859 3.6259957 2014.4277 308.15234 2014.1777 z M -313.30859 2369.2051 C -313.15013 2372.3355 -313.03185 2375.4694 -312.94727 2378.6055 C -316.44088 2403.6606 -318.1214 2428.7836 -317.93945 2453.7383 C -330.00656 2529.0784 -363.21913 2601.6059 -416.3418 2658.6426 C -496.4815 2744.6869 -620.58493 2799.8009 -802.23633 2777.9395 C -883.90583 2768.1107 -940.62357 2735.0053 -969.73047 2699.1289 C -998.83737 2663.2526 -1005.1711 2628.1278 -986.54492 2585.3906 C -967.91862 2542.6535 -916.51287 2489.5555 -812.48047 2447.4902 C -708.44807 2405.4248 -553.84576 2375.4005 -341.38086 2375.252 A 65.0065 65.0065 0 0 0 -313.30859 2369.2051 z "
         transform="translate(8869.5758,-1363.7375)"
         id="path5613-8" />
    </g>
  </g>
</svg>
