<?xml version="1.0" encoding="UTF-8" standalone="no"?>
<!-- Created with Inkscape (http://www.inkscape.org/) -->

<svg
   xmlns:dc="http://purl.org/dc/elements/1.1/"
   xmlns:cc="http://creativecommons.org/ns#"
   xmlns:rdf="http://www.w3.org/1999/02/22-rdf-syntax-ns#"
   xmlns:svg="http://www.w3.org/2000/svg"
   xmlns="http://www.w3.org/2000/svg"
   xmlns:sodipodi="http://sodipodi.sourceforge.net/DTD/sodipodi-0.dtd"
   xmlns:inkscape="http://www.inkscape.org/namespaces/inkscape"
   version="1.1"
   width="2000"
   height="2000"
   id="svg2992"
   inkscape:version="0.92.0 r15299"
   sodipodi:docname="minorfractions.svg.2017_07_09_12_26_04.0.svg">
  <sodipodi:namedview
     pagecolor="#ffffff"
     bordercolor="#666666"
     borderopacity="1"
     objecttolerance="10"
     gridtolerance="10"
     guidetolerance="10"
     inkscape:pageopacity="0"
     inkscape:pageshadow="2"
     inkscape:window-width="3200"
     inkscape:window-height="1685"
     id="namedview7"
     showgrid="true"
     inkscape:zoom="0.46977637"
     inkscape:cx="12813.727"
     inkscape:cy="758.55092"
     inkscape:window-x="0"
     inkscape:window-y="0"
     inkscape:window-maximized="1"
     inkscape:current-layer="layer1"
     showguides="true"
     inkscape:guide-bbox="true">
    <inkscape:grid
       type="xygrid"
       id="grid2984" />
    <sodipodi:guide
       orientation="0,1"
       position="-18440,1600"
       id="guide2984"
       inkscape:locked="false" />
    <sodipodi:guide
       orientation="0,1"
       position="-16960,560"
       id="guide2986"
       inkscape:locked="false" />
    <sodipodi:guide
       position="-27840,960"
       orientation="0,1"
       id="guide4579"
       inkscape:locked="false" />
  </sodipodi:namedview>
  <defs
     id="defs5498">
    <filter
       inkscape:label="Black Hole"
       inkscape:menu="Morphology"
       inkscape:menu-tooltip="Creates a black light inside and outside"
       height="1.5"
       width="1.5"
       y="-0.25"
       x="-0.25"
       style="color-interpolation-filters:sRGB"
       id="filter5478">
      <feGaussianBlur
         stdDeviation="5"
         in="SourceAlpha"
         result="result1"
         id="feGaussianBlur5480" />
      <feComposite
         operator="arithmetic"
         k2="3.2"
         k1="-1"
         k4="-2"
         result="result3"
         in2="result1"
         id="feComposite5482"
         k3="0" />
      <feColorMatrix
         values="1 0 0 0 0 0 1 0 0 0 0 0 1 0 0 0 0 0 10 0 "
         result="result2"
         id="feColorMatrix5484" />
      <feComposite
         result="fbSourceGraphic"
         in="SourceGraphic"
         operator="out"
         in2="result2"
         id="feComposite5486" />
      <feBlend
         mode="multiply"
         in="result1"
         in2="fbSourceGraphic"
         result="result91"
         id="feBlend5488" />
      <feBlend
         mode="screen"
         in="fbSourceGraphic"
         in2="result91"
         id="feBlend5490" />
    </filter>
  </defs>
  <metadata
     id="metadata5594">
    <rdf:RDF>
      <cc:Work
         rdf:about="">
        <dc:format>image/svg+xml</dc:format>
        <dc:type
           rdf:resource="http://purl.org/dc/dcmitype/StillImage" />
        <dc:title />
      </cc:Work>
    </rdf:RDF>
  </metadata>
  <g
     transform="translate(0,1000)"
     id="layer1">
    <path
       style="fill:none;stroke:#000000;stroke-width:130;stroke-linecap:round;stroke-linejoin:round;stroke-miterlimit:4;stroke-dasharray:none;stroke-opacity:1"
       d="m -1679.7001,-531.352 c -833.665,862.55467 526.335,1542.5547 519.7001,11.352 -113.3651,1211.20269 766.6349,1211.20269 631.5231,-1.7832 217.4227,1753.138 1036.482,471.700292 627.6987,-38.6182 -244.5244,-305.26033 -556.4781,-424.10183 -1110.3911,-379.2311"
       id="path5869-2"
       inkscape:connector-curvature="0"
       sodipodi:nodetypes="cccsc" />
    <path
       style="color:#000000;font-style:normal;font-variant:normal;font-weight:normal;font-stretch:normal;font-size:medium;line-height:normal;font-family:sans-serif;font-variant-ligatures:normal;font-variant-position:normal;font-variant-caps:normal;font-variant-numeric:normal;font-variant-alternates:normal;font-feature-settings:normal;text-indent:0;text-align:start;text-decoration:none;text-decoration-line:none;text-decoration-style:solid;text-decoration-color:#000000;letter-spacing:normal;word-spacing:normal;text-transform:none;writing-mode:lr-tb;direction:ltr;text-orientation:mixed;dominant-baseline:auto;baseline-shift:baseline;text-anchor:start;white-space:normal;shape-padding:0;clip-rule:nonzero;display:inline;overflow:visible;visibility:visible;opacity:1;isolation:auto;mix-blend-mode:normal;color-interpolation:sRGB;color-interpolation-filters:linearRGB;solid-color:#000000;solid-opacity:1;vector-effect:none;fill:#000000;fill-opacity:1;fill-rule:nonzero;stroke:none;stroke-width:130;stroke-linecap:round;stroke-linejoin:round;stroke-miterlimit:4;stroke-dasharray:none;stroke-dashoffset:0;stroke-opacity:1;color-rendering:auto;image-rendering:auto;shape-rendering:auto;text-rendering:auto;enable-background:accumulate"
       d="m -413.9609,1709.8926 c -64.0151,0.2214 -131.213,3.2078 -201.8477,8.9297 a 65.0065,65.0065 0 1 0 10.4961,129.5761 c 542.749,-43.9663 821.6057,64.4484 1054.41213,355.0801 127.06219,158.6224 118.261,425.2522 37.56055,613.9883 -40.35022,94.368 -98.44388,166.0616 -149.44138,194.8144 -50.9976,28.7529 -87.6147,30.5484 -146.4239,-24.5625 C 102.8755,2905.3283 -5.0054,2663.9983 -63.3613,2193.459 a 65.0065,65.0065 0 0 0 -129.1074,15.1953 c 32.9185,295.5311 2.696,513.2628 -53.2188,650.6309 -55.9147,137.368 -130.1425,187.0662 -189.8633,187.1367 -59.7207,0.07 -135.714,-50.0316 -194.1855,-187.3692 -42.7357,-100.3774 -72.3131,-243.7092 -74.4258,-428.6699 6.7022,-70.2787 10.1246,-145.9446 9.7715,-227.4219 a 65.0065,65.0065 0 0 0 -129.7168,-5.7754 c -7.5169,80.311 -10.7793,155.5884 -10.3809,226.0762 -24.7065,246.3409 -92.4652,408.9828 -170.75,504.1992 -99.5876,121.1268 -209.9288,140.5136 -301.7011,106.7598 -91.7724,-33.7538 -168.1032,-126.821 -176.8457,-265.4336 -8.7425,-138.6126 52.1188,-325.5048 251.4316,-531.7246 a 65.0065,65.0065 0 1 0 -93.4746,-90.3457 c -217.5197,225.0575 -299.2811,446.6231 -287.6992,630.2539 11.5819,183.6308 118.5227,326.5946 261.7129,379.2598 143.1901,52.6652 319.4998,8.8601 446.9941,-146.209 45.5068,-55.3492 85.5119,-124.0955 118.1211,-207.3633 10.878,38.5685 23.3464,74.4205 37.3535,107.3203 70.4223,165.4074 184.7296,266.5958 313.9492,266.4434 129.2196,-0.1525 242.5729,-102.1909 310.1153,-268.125 18.0271,-44.2881 33.2111,-93.8145 45.2812,-148.2969 50.5774,152.8676 111.3955,256.507 181.9004,322.5781 90.1898,84.5181 209.4532,93.5242 299.166,42.9434 89.7129,-50.5809 157.15815,-144.764 205.12503,-256.9453 95.93376,-224.3626 114.87669,-533.5167 -55.62891,-746.3731 C 326.3504,1842.3004 34.1447,1708.343 -413.9609,1709.8926 Z"
       id="path5869-2-3"
       inkscape:connector-curvature="0" />
    <path
       style="fill:none;stroke:#000000;stroke-width:132.82575989;stroke-linecap:round;stroke-linejoin:round;stroke-miterlimit:4;stroke-dasharray:none;stroke-opacity:1"
       d="m 6888.6949,2425.4514 c -280,-400 391.7356,-187.698 173.3767,41.1471 -113.4724,118.9218 -1162.2286,-209.0549 -1206.2851,239.4404 -44.0566,448.4953 588.3941,486.9062 444.498,-169.6651 C 6117.7765,1703.6233 4848.6949,2105.4514 5440,3040"
       id="path3804"
       inkscape:connector-curvature="0"
       sodipodi:nodetypes="cszsc" />
    <path
       style="color:#000000;font-style:normal;font-variant:normal;font-weight:normal;font-stretch:normal;font-size:medium;line-height:normal;font-family:sans-serif;font-variant-ligatures:normal;font-variant-position:normal;font-variant-caps:normal;font-variant-numeric:normal;font-variant-alternates:normal;font-feature-settings:normal;text-indent:0;text-align:start;text-decoration:none;text-decoration-line:none;text-decoration-style:solid;text-decoration-color:#000000;letter-spacing:normal;word-spacing:normal;text-transform:none;writing-mode:lr-tb;direction:ltr;text-orientation:mixed;dominant-baseline:auto;baseline-shift:baseline;text-anchor:start;white-space:normal;shape-padding:0;clip-rule:nonzero;display:inline;overflow:visible;visibility:visible;opacity:1;isolation:auto;mix-blend-mode:normal;color-interpolation:sRGB;color-interpolation-filters:linearRGB;solid-color:#000000;solid-opacity:1;vector-effect:none;fill:#000000;fill-opacity:1;fill-rule:nonzero;stroke:none;stroke-width:138.66667175;stroke-linecap:round;stroke-linejoin:round;stroke-miterlimit:4;stroke-dasharray:none;stroke-dashoffset:0;stroke-opacity:1;color-rendering:auto;image-rendering:auto;shape-rendering:auto;text-rendering:auto;enable-background:accumulate"
       d="m 3355.5781,748.85352 c -99.679,-1.88879 -199.8323,19.12857 -290.9277,59.38671 -161.9475,71.57004 -298.304,207.22337 -344.0039,390.71487 -45.7,183.4914 3.1392,407.028 184.3418,643.2441 a 69.340269,69.340269 0 1 0 110.0234,-84.3984 c -163.2665,-212.8346 -193.7404,-389.101 -159.8105,-525.334 33.9299,-136.233 136.1464,-240.22604 265.5019,-297.39258 129.3555,-57.16654 282.817,-64.2345 407.7188,-10.9668 112.2384,47.86709 205.1756,140.93958 248.5195,304.36718 -57.4628,-3.9851 -113.4648,-4.3245 -166.375,1.7969 -61.3494,7.0977 -119.6212,22.7927 -170.125,54.7754 -50.5038,31.9827 -91.3556,81.8839 -112.1602,144.4199 -39.0895,117.4986 -12.4742,231.3183 48.3946,310.9922 60.8688,79.6738 153.0963,129.3787 250.5683,133.291 97.4721,3.9123 201.1333,-45.8895 259.5508,-150.1152 45.7908,-81.6976 66.4527,-191.7087 55.6914,-335.166 14.2985,2.285 28.6409,4.633 43.043,7.1132 133.2326,22.9449 269.1773,52.4081 386.4687,63.7285 58.6458,5.6602 112.6946,7.1697 162.75,-1.5039 50.0555,-8.6735 100.6765,-29.6005 132.7325,-74.7968 54.5704,-76.94 66.2667,-162.6304 40.4375,-230.6075 -25.8293,-67.977 -83.0434,-114.9734 -148.2012,-133.2539 -65.1578,-18.2804 -142.9853,-6.2196 -200.7031,46.1797 -55.797,50.6555 -88.0146,132.5173 -90.1035,240 -80.3125,-13.1888 -169.5785,-30.8568 -259.8457,-46.4023 -28.6259,-4.9299 -57.3136,-9.566 -85.9336,-13.8516 -45.4402,-228.6548 -178.6691,-379.5804 -340.3125,-448.51756 -72.4713,-30.90731 -149.7122,-46.23407 -227.2403,-47.70312 z m 1139.0117,400.48238 c 8.9686,-0.5397 18.208,0.6696 27.67,3.3243 25.2318,7.0789 47.3222,26.0688 56.0332,48.9941 8.7109,22.9253 10.1817,53.0521 -23.92,101.1328 -3.663,5.1646 -13.8265,13.2814 -43.3007,18.3887 -25.1904,4.3649 -61.5546,4.7863 -103.9727,1.748 a 69.340269,69.340269 0 0 0 0.2734,-6.4843 c 0,-86.9934 23.6913,-129.2347 44.8497,-148.4434 13.224,-12.0055 27.4196,-17.7606 42.3671,-18.6602 z m -790.5488,215.1153 c 30.5989,0.3035 63.4017,2.394 97.4531,5.6152 14.2093,139.8567 -5.6355,232.1976 -35.6621,285.7695 -35.6704,63.6414 -80.9247,81.4487 -133.0254,79.3575 -52.1006,-2.0912 -110.1007,-32.0026 -145.9414,-78.9161 -35.8407,-46.9134 -52.4179,-106.6513 -27.0058,-183.0371 11.4463,-34.4062 28.3447,-54.3069 54.7695,-71.041 26.4248,-16.7341 64.2592,-28.6709 111.875,-34.1797 23.8079,-2.7544 49.8233,-3.8433 77.5371,-3.5683 z"
       id="path3804-6"
       inkscape:connector-curvature="0" />
    <path
       style="fill:none;stroke:#000000;stroke-width:138.66667175;stroke-linecap:round;stroke-linejoin:round;stroke-miterlimit:4;stroke-dasharray:none;stroke-opacity:1"
       d="m 7540,400 c -616.6974,-823.57221 274.2203,-1382.86162 380,-520 105.8093,-938.5989 1116.0984,-116.35272 40,520 278.6558,-39.8721 625.956,51.81607 706,-40 107.9919,-123.87422 -217.3213,-317.334513 -214,-580"
       id="path3849"
       inkscape:connector-curvature="0"
       sodipodi:nodetypes="ccccc" />
    <path
       style="color:#000000;font-style:normal;font-variant:normal;font-weight:normal;font-stretch:normal;font-size:medium;line-height:normal;font-family:sans-serif;font-variant-ligatures:normal;font-variant-position:normal;font-variant-caps:normal;font-variant-numeric:normal;font-variant-alternates:normal;font-feature-settings:normal;text-indent:0;text-align:start;text-decoration:none;text-decoration-line:none;text-decoration-style:solid;text-decoration-color:#000000;letter-spacing:normal;word-spacing:normal;text-transform:none;writing-mode:lr-tb;direction:ltr;text-orientation:mixed;dominant-baseline:auto;baseline-shift:baseline;text-anchor:start;white-space:normal;shape-padding:0;clip-rule:nonzero;display:inline;overflow:visible;visibility:visible;opacity:1;isolation:auto;mix-blend-mode:normal;color-interpolation:sRGB;color-interpolation-filters:linearRGB;solid-color:#000000;solid-opacity:1;vector-effect:none;fill:#000000;fill-opacity:1;fill-rule:nonzero;stroke:none;stroke-width:138.66667175;stroke-linecap:round;stroke-linejoin:round;stroke-miterlimit:4;stroke-dasharray:none;stroke-dashoffset:0;stroke-opacity:1;color-rendering:auto;image-rendering:auto;shape-rendering:auto;text-rendering:auto;enable-background:accumulate"
       d="m 7567.5059,539.10938 c -69.6666,1.8684 -138.2151,28.8374 -193.3145,75.6289 -195.9088,166.36979 -252.1532,556.18422 70.3106,986.82032 a 69.340269,69.340269 0 1 0 110.996,-83.1172 c -294.2336,-392.936 -213.3674,-694.55328 -91.5468,-798.00585 60.9103,-51.72629 124.4711,-60.69719 188.3125,-20.39258 63.8413,40.30461 134.0134,145.24432 158.9179,348.39453 a 69.340269,69.340269 0 0 0 137.7149,-0.6699 c 24.9502,-221.32519 101.4108,-319.46861 163.5547,-349.58401 62.1439,-30.11539 126.4059,-9.64929 176.1601,53.93555 49.7543,63.58484 76.7213,170.13261 28.7989,302.59176 -47.9225,132.4592 -173.3991,292.2706 -432.7012,445.6094 a 69.340269,69.340269 0 0 0 45.1113,128.3145 c 127.9531,-18.3085 280.7541,-6.4579 414.2617,0.094 66.7538,3.2758 128.631,5.3078 184.0938,-0.3789 55.4628,-5.6866 109.9991,-16.8066 150.0859,-62.7891 44.2027,-50.7035 44.2846,-123.948 24.1016,-176.4043 -20.183,-52.4562 -53.4404,-98.2941 -87.2383,-146.7656 -67.5957,-96.9429 -135.093,-199.0125 -133.7969,-301.51365 a 69.340269,69.340269 0 0 0 -0.8515,-12.49609 c 1.5649,-102.64605 -29.6333,-193.95016 -82.6582,-261.71484 -81.5319,-104.19594 -222.4238,-153.07594 -345.8399,-93.26758 -70.6897,34.25677 -130.1726,98.60014 -173.418,193.79297 -39.0996,-84.14626 -90.834,-145.61536 -152.2714,-184.40235 -49.737,-31.40017 -104.5982,-45.13289 -158.7832,-43.67968 z m 843.9433,644.33792 c 28.5712,51.5567 61.5627,97.573 89.9297,138.2558 33.6163,48.2111 61.2297,90.3826 71.5664,117.2481 10.3367,26.8654 10.5863,24.2547 0.793,35.4883 0.065,-0.074 -18.8287,11.7757 -59.7051,15.9667 -40.8764,4.1911 -98.2475,3.0076 -163.1562,-0.1777 -59.6838,-2.9288 -125.9132,-7.3624 -194.5606,-9.332 120.5024,-97.7929 203.297,-198.5687 255.1328,-297.4492 z"
       id="path3849-3"
       inkscape:connector-curvature="0" />
    <path
       style="fill:none;stroke:#000000;stroke-width:130;stroke-linecap:round;stroke-linejoin:miter;stroke-miterlimit:4;stroke-dasharray:none;stroke-opacity:1"
       d="m -5672,340 c 412,300 347.9703,-1580.039 335.3382,-608.06804 -9.4514,727.23187 400.3856,798.14758 443.0885,403.41292 29.8367,-275.8025 -45.0906,-672.45073 267.2216,-676.97474 415.447,-6.01797 3.7325,1002.02855 426.2458,928.54799 422.5132,-73.48057 33.0078,-910.17785 473.8912,-928.54799 440.8835,-18.37014 42.8162,880.45154 424.7884,918.50709 C -2919.4542,414.93276 -2770.9673,-119.1166 -3120,-560"
       id="path4523"
       inkscape:connector-curvature="0"
       sodipodi:nodetypes="cssszzzc" />
    <path
       style="color:#000000;font-style:normal;font-variant:normal;font-weight:normal;font-stretch:normal;font-size:medium;line-height:normal;font-family:sans-serif;font-variant-ligatures:normal;font-variant-position:normal;font-variant-caps:normal;font-variant-numeric:normal;font-variant-alternates:normal;font-feature-settings:normal;text-indent:0;text-align:start;text-decoration:none;text-decoration-line:none;text-decoration-style:solid;text-decoration-color:#000000;letter-spacing:normal;word-spacing:normal;text-transform:none;writing-mode:lr-tb;direction:ltr;text-orientation:mixed;dominant-baseline:auto;baseline-shift:baseline;text-anchor:start;white-space:normal;shape-padding:0;clip-rule:nonzero;display:inline;overflow:visible;visibility:visible;opacity:1;isolation:auto;mix-blend-mode:normal;color-interpolation:sRGB;color-interpolation-filters:linearRGB;solid-color:#000000;solid-opacity:1;vector-effect:none;fill:#000000;fill-opacity:1;fill-rule:nonzero;stroke:none;stroke-width:119.40592194;stroke-linecap:round;stroke-linejoin:miter;stroke-miterlimit:4;stroke-dasharray:none;stroke-dashoffset:0;stroke-opacity:1;color-rendering:auto;image-rendering:auto;shape-rendering:auto;text-rendering:auto;enable-background:accumulate"
       d="m -3559.6113,819.63672 a 59.708931,59.708931 0 0 0 -47.1992,97.42187 c 164.677,208.01311 208.4806,435.12701 171.9687,597.91601 -18.2559,81.3945 -55.8833,145.9219 -106.1367,187.627 -50.2534,41.705 -113.1236,62.9775 -194.5293,54.8672 -35.7024,-3.5571 -55.2052,-14.5194 -72.2852,-32.6622 -17.0799,-18.1427 -31.3275,-46.5819 -41.3789,-85.1425 -20.1027,-77.1214 -21.1816,-189.8411 -22.8613,-304.0782 -1.6797,-114.237 -3.273,-230.1803 -39.5781,-327.6406 -18.1526,-48.73011 -46.6639,-94.05006 -90.7383,-125.52733 -44.0745,-31.47728 -101.3093,-46.40923 -166.3496,-43.69922 -129.4209,5.39254 -216.0824,83.95479 -253.7559,180.43945 -37.6735,96.4847 -41.9431,209.4049 -47.2285,319.9688 -5.2854,110.5638 -11.1385,218.7854 -36.748,295.3515 -25.6095,76.5662 -58.6451,118.7915 -143.9043,133.6192 -42.2692,7.3511 -63.2007,1.0631 -78.6387,-9.5 -15.4381,-10.5632 -29.6013,-30.6526 -40.7754,-65.0547 -22.3483,-68.8043 -25.5201,-185.0895 -26.4277,-306.0489 -0.9077,-120.9593 -0.1224,-246.9408 -30.3164,-352.6425 -15.0971,-52.85091 -38.7267,-102.21452 -79.2813,-139.33598 -40.5546,-37.12145 -97.5137,-57.76782 -161.4414,-56.84179 -120.9075,1.75141 -215.1409,60.15782 -270.8457,143.61719 -55.7048,83.45938 -78.3993,187.81728 -83.7813,294.20308 -5.3819,106.3859 7.2306,215.5604 29.7208,310.6993 22.4901,95.1388 52.4493,174.9625 94.9433,229.5976 a 59.708931,59.708931 0 1 0 94.2539,-73.3086 c -21.8015,-28.0305 -52.9593,-99.0078 -72.9941,-183.7597 -20.0348,-84.7519 -31.3564,-184.5582 -26.6699,-277.1954 4.6864,-92.6371 26.0641,-177.3441 63.8437,-233.9472 37.7796,-56.6031 86.4439,-89.25612 173.2598,-90.51369 39.934,-0.57847 60.9885,8.96017 79.0879,25.52734 18.0993,16.56715 33.763,44.39565 45.0918,84.05465 22.6574,79.3182 24.8177,199.6273 25.7265,320.7422 0.9088,121.115 -0,242.689 32.2656,342.0391 16.135,49.675 42.3713,96.2367 86.9122,126.7129 44.5408,30.4762 103.1662,39.6146 166.5253,28.5957 125.9974,-21.9126 202.7179,-111.8297 236.6856,-213.3848 33.9677,-101.5551 37.5145,-217.4335 42.7773,-327.5254 5.2629,-110.0918 12.6893,-214.3813 39.1856,-282.2402 26.4962,-67.85896 56.4792,-100.77388 147.5,-104.56642 45.1805,-1.88252 71.9462,7.25493 91.9824,21.56446 20.0362,14.30953 35.7441,36.49526 48.2402,70.04106 24.9924,67.0914 30.4197,174.7857 32.0801,287.7148 1.6605,112.9291 0.2421,230.9027 26.709,332.4394 13.2335,50.7684 33.9976,98.6492 69.9824,136.8731 35.9848,38.2239 87.5981,63.6759 147.3887,69.6328 109.5803,10.9174 208.5108,-20.2971 282.6211,-81.8008 74.1103,-61.5037 123.4113,-150.9076 146.3945,-253.3789 45.9665,-204.9426 -10.5037,-465.2957 -194.8594,-698.16599 a 59.708931,59.708931 0 0 0 -46.4218,-23.30469 z"
       id="path4523-5"
       inkscape:connector-curvature="0" />
    <path
       style="fill:none;stroke:#000000;stroke-width:130;stroke-linecap:round;stroke-linejoin:miter;stroke-miterlimit:4;stroke-dasharray:none;stroke-opacity:1"
       d="m 9388,340 c 452,380 312,-1560 335.3382,-608.068 18.1611,740.76428 380.4978,820.74427 443.0888,403.4129 41.145,-274.34332 -45.091,-672.4507 267.221,-676.9747 415.447,-6.018 3.733,1002.0285 426.246,928.548 422.513,-73.4806 33.008,-910.1779 473.891,-928.548 440.884,-18.3702 42.817,880.4515 424.789,918.5071 381.972,38.0555 530.459,-495.9939 181.426,-936.8773"
       id="path4523-3"
       inkscape:connector-curvature="0"
       sodipodi:nodetypes="cssszzzc" />
    <path
       style="fill:none;stroke:#000000;stroke-width:132.82575989;stroke-linecap:round;stroke-linejoin:round;stroke-miterlimit:4;stroke-dasharray:none;stroke-opacity:1"
       d="m 5968.6949,-574.54862 c 40,440 -400,480 -388,-4 l -260.5216,9.45219 c -38.0342,1.37995 86.0834,439.20984 -18.6249,424.51 C 4954.036,-193.37313 4609.642,-278.61068 4575.7865,66.03889 4531.73,514.53421 5164.1806,552.945 5020.2845,-103.62626 4837.7765,-936.3768 3568.6949,-534.54862 4160,400"
       id="path3804-62"
       inkscape:connector-curvature="0"
       sodipodi:nodetypes="ccssssc" />
    <path
       style="color:#000000;font-style:normal;font-variant:normal;font-weight:normal;font-stretch:normal;font-size:medium;line-height:normal;font-family:sans-serif;font-variant-ligatures:normal;font-variant-position:normal;font-variant-caps:normal;font-variant-numeric:normal;font-variant-alternates:normal;font-feature-settings:normal;text-indent:0;text-align:start;text-decoration:none;text-decoration-line:none;text-decoration-style:solid;text-decoration-color:#000000;letter-spacing:normal;word-spacing:normal;text-transform:none;writing-mode:lr-tb;direction:ltr;text-orientation:mixed;dominant-baseline:auto;baseline-shift:baseline;text-anchor:start;white-space:normal;shape-padding:0;clip-rule:nonzero;display:inline;overflow:visible;visibility:visible;opacity:1;isolation:auto;mix-blend-mode:normal;color-interpolation:sRGB;color-interpolation-filters:linearRGB;solid-color:#000000;solid-opacity:1;vector-effect:none;fill:#000000;fill-opacity:1;fill-rule:nonzero;stroke:none;stroke-width:132.82575989;stroke-linecap:round;stroke-linejoin:round;stroke-miterlimit:4;stroke-dasharray:none;stroke-dashoffset:0;stroke-opacity:1;color-rendering:auto;image-rendering:auto;shape-rendering:auto;text-rendering:auto;enable-background:accumulate"
       d="m 2500.3887,3315.0391 a 66.419521,66.419521 0 0 0 -2.1016,0.043 l -260.5215,9.4532 c -17.2479,0.6258 -36.4874,9.8111 -47.2422,20.3789 -10.7547,10.5678 -15.1796,20.5285 -18.0097,28.2246 -5.6602,15.3922 -5.7737,24.9044 -6.1328,34.5273 -0.7183,19.2458 1.096,37.8681 3.5722,59.7012 4.9526,43.6661 13.5937,97.615 19.9883,149.8867 6.0868,49.756 9.4874,98.4889 7.502,127.4961 -78.0946,-11.5236 -156.4681,-24.4973 -232.6856,-33.0391 -63.0642,-153.8776 -168.4793,-260.9259 -290.3594,-319.2832 -153.7957,-73.6387 -330.3532,-71.9091 -480.4238,-8.0957 -150.0706,63.8134 -275.24546,192.491 -319.14062,369.6348 -43.89515,177.1438 -5.67229,397.0179 149.04302,641.543 a 66.419521,66.419521 0 1 0 112.246,-71.0196 C 995.18576,4101.741 970.3033,3920.9314 1003.7598,3785.9141 c 33.4564,-135.0174 126.0912,-229.9793 242.1914,-279.3477 116.1002,-49.3684 254.0768,-50.3629 371.0859,5.6621 77.2595,36.9925 146.7251,98.1438 197.166,190.3731 -27.567,0.1751 -54.6011,1.5454 -80.8847,4.625 -75.6036,8.8583 -148.0935,32.7916 -204.0743,85.1289 -55.9808,52.3372 -89.9918,129.8615 -99.5527,227.1914 -25.069,255.2024 154.273,423.8667 333.8184,401.9843 89.7726,-10.9411 175.256,-70.9088 221.9492,-170.3613 45.8051,-97.5609 57.264,-230.0147 21.6992,-399.2246 65.5531,8.621 134.8707,19.3691 205.1563,29.2363 34.6681,4.8671 78.0091,-17.9664 94.623,-44.166 16.6139,-26.1995 20.1182,-50.4425 22.4648,-75.2929 4.6933,-49.701 -0.8251,-105.0769 -7.6171,-160.5977 -6.6466,-54.3313 -15.0747,-107.7991 -19.5118,-146.0176 l 133.3008,-4.8359 c 6.2469,97.6898 31.3504,176.1492 71.336,235.1328 49.1839,72.5523 124.753,114.219 201.1699,110.8965 76.4169,-3.3225 147.2008,-50.0072 191.8652,-123.1875 44.6644,-73.1803 65.8928,-172.6505 54.8906,-293.6738 a 66.419521,66.419521 0 1 0 -132.2812,12.0253 c 8.9979,98.9767 -9.7758,169.5046 -35.9863,212.4493 -26.2106,42.9446 -57.1747,58.5099 -84.2579,59.6875 -27.0831,1.1775 -56.7659,-10.4058 -85.457,-52.7286 -28.691,-42.3227 -52.5169,-116.806 -49.7656,-227.7753 a 66.419521,66.419521 0 0 0 -66.6992,-68.0586 z m -680.7227,520.8105 c 15.316,0.1474 31.2879,0.7976 47.6992,1.7715 2.8647,10.7305 5.5738,21.6863 8.0469,32.9707 33.8251,154.3374 19.8582,260.1363 -10.1855,324.127 -30.0438,63.9906 -72.9393,89.4972 -117.7852,94.9628 -89.6918,10.9313 -204.5481,-63.8574 -185.5605,-257.1504 7.3668,-74.9948 29.1014,-116.0596 58.0761,-143.1484 28.9747,-27.0888 70.6525,-43.4192 128.8184,-50.2344 21.8122,-2.5557 45.552,-3.5426 70.8906,-3.2988 z"
       id="path3804-62-9"
       inkscape:connector-curvature="0" />
    <path
       style="fill:none;stroke:#000000;stroke-width:130;stroke-linecap:round;stroke-linejoin:miter;stroke-miterlimit:4;stroke-dasharray:none;stroke-opacity:1"
       d="M -7501.8687,-119.66497 C -7303.619,876.7454 -8840.5869,59.165297 -8065.2451,-255.95503 -7687.2526,-377.88635 -7110.793,-122.272 -6544,-323.60019"
       id="path4504"
       inkscape:connector-curvature="0"
       sodipodi:nodetypes="ccc" />
    <path
       style="color:#000000;font-style:normal;font-variant:normal;font-weight:normal;font-stretch:normal;font-size:medium;line-height:normal;font-family:sans-serif;font-variant-ligatures:normal;font-variant-position:normal;font-variant-caps:normal;font-variant-numeric:normal;font-variant-alternates:normal;font-feature-settings:normal;text-indent:0;text-align:start;text-decoration:none;text-decoration-line:none;text-decoration-style:solid;text-decoration-color:#000000;letter-spacing:normal;word-spacing:normal;text-transform:none;writing-mode:lr-tb;direction:ltr;text-orientation:mixed;dominant-baseline:auto;baseline-shift:baseline;text-anchor:start;white-space:normal;shape-padding:0;clip-rule:nonzero;display:inline;overflow:visible;visibility:visible;opacity:1;isolation:auto;mix-blend-mode:normal;color-interpolation:sRGB;color-interpolation-filters:linearRGB;solid-color:#000000;solid-opacity:1;vector-effect:none;fill:#000000;fill-opacity:1;fill-rule:nonzero;stroke:none;stroke-width:130;stroke-linecap:round;stroke-linejoin:miter;stroke-miterlimit:4;stroke-dasharray:none;stroke-dashoffset:0;stroke-opacity:1;color-rendering:auto;image-rendering:auto;shape-rendering:auto;text-rendering:auto;enable-background:accumulate"
       d="m -6662.1953,691.0918 a 65.0065,65.0065 0 0 0 -23.5606,4.05664 c -268.6708,95.43346 -543.618,83.42741 -803.8652,60.10742 -260.2472,-23.31999 -504.7637,-61.07595 -715.5781,6.92773 l -2.291,0.73829 -2.2286,0.90624 c -104.9287,42.64594 -177.9229,96.19167 -220.4453,162.22461 -42.5224,66.03295 -48.9748,143.61147 -28.4746,211.21287 41.0006,135.2029 168.2704,240.7501 311.7949,305.9317 143.5246,65.1816 311.037,91.6251 443.4161,17.1699 66.1895,-37.2276 119.1065,-102.0994 144.7695,-188.3477 25.663,-86.2483 26.7226,-192.7695 0.5391,-324.36911 a 65.0065,65.0065 0 1 0 -127.5,25.36914 c 23.3788,117.50297 19.7763,203.39727 2.3613,261.92577 -17.415,58.5285 -45.9908,90.7945 -83.8984,112.1152 -75.8153,42.6415 -206.9132,31.8237 -325.9317,-22.2285 -119.0185,-54.0521 -218.2238,-149.7098 -241.1445,-225.2929 -11.4604,-37.7916 -9.2372,-68.0013 13.3672,-103.10355 22.4207,-34.81715 70.5129,-75.36193 158.0488,-111.2793 166.9981,-52.86166 398.7004,-23.97686 661.5918,-0.41992 264.179,23.67231 560.8583,38.80879 858.9805,-67.08594 a 65.0065,65.0065 0 0 0 -19.9512,-126.55859 z"
       id="path4504-5"
       inkscape:connector-curvature="0" />
    <path
       style="fill:none;stroke:#000000;stroke-width:138.66667175;stroke-linecap:round;stroke-linejoin:round;stroke-miterlimit:4;stroke-dasharray:none;stroke-opacity:1"
       d="m -12960,440 c -555.311,-1448.9191 935.412,-937.85523 935.194,-357.0846 -0.189,503.1852 -498.908,441.3569 -566.366,3.3689 -57.855,-375.63956 87.423,-686.35229 288.743,-1081.78321"
       id="path2985-5"
       inkscape:connector-curvature="0"
       sodipodi:nodetypes="cssc" />
    <path
       style="fill:none;stroke:#000000;stroke-width:130;stroke-linecap:round;stroke-linejoin:miter;stroke-miterlimit:4;stroke-dasharray:none;stroke-opacity:1"
       d="m -14672.403,148.68156 c 96.447,-289.34078 302.126,-92.945764 309.137,51.71141 7.011,144.65718 -85.02,207.72697 -169.289,173.33142 -121.303,-49.5114 -192.57,-275.944672 -148.344,-474.84889 197.591,-634.36043 942.286,-443.23578 1000.899,85.1245 13.286,156.23262 -72.525,444.78843 -274.136,382.25092 -341.135,-105.81651 -99.417,-1328.48552 -99.417,-1328.48552"
       id="path4641"
       inkscape:connector-curvature="0"
       sodipodi:nodetypes="czsccsc" />
    <path
       style="color:#000000;font-style:normal;font-variant:normal;font-weight:normal;font-stretch:normal;font-size:medium;line-height:normal;font-family:sans-serif;font-variant-ligatures:normal;font-variant-position:normal;font-variant-caps:normal;font-variant-numeric:normal;font-variant-alternates:normal;font-feature-settings:normal;text-indent:0;text-align:start;text-decoration:none;text-decoration-line:none;text-decoration-style:solid;text-decoration-color:#000000;letter-spacing:normal;word-spacing:normal;text-transform:none;writing-mode:lr-tb;direction:ltr;text-orientation:mixed;dominant-baseline:auto;baseline-shift:baseline;text-anchor:start;white-space:normal;shape-padding:0;clip-rule:nonzero;display:inline;overflow:visible;visibility:visible;opacity:1;isolation:auto;mix-blend-mode:normal;color-interpolation:sRGB;color-interpolation-filters:linearRGB;solid-color:#000000;solid-opacity:1;vector-effect:none;fill:#000000;fill-opacity:1;fill-rule:nonzero;stroke:none;stroke-width:130;stroke-linecap:round;stroke-linejoin:miter;stroke-miterlimit:4;stroke-dasharray:none;stroke-dashoffset:0;stroke-opacity:1;color-rendering:auto;image-rendering:auto;shape-rendering:auto;text-rendering:auto;enable-background:accumulate"
       d="m -13934.668,611.86914 a 65.0065,65.0065 0 0 0 -62.65,53.28906 c 0,0 -35.693,180.34774 -60.641,410.1934 -229.37,-9.8216 -467.289,130.4934 -565,444.1933 l -0.803,2.5821 -0.588,2.6406 c -24.852,111.7745 -17.502,227.9187 13.52,326.9804 31.022,99.0618 85.085,185.9824 173.711,222.1563 62.669,25.5792 136.687,14.0582 187.045,-31.4981 50.358,-45.5562 75.926,-118.6394 71.732,-205.1601 -4.924,-101.6062 -64.024,-198.8518 -157.734,-244.0137 -46.855,-22.5809 -110.075,-26.0112 -162.065,5.5664 -2.598,1.5782 -5.132,3.265 -7.656,4.9688 1.793,-16.2413 4.398,-32.3478 7.817,-48.168 83.404,-264.7305 255.077,-358.833 427.851,-351.1973 -2.495,31.1427 -4.772,62.5845 -6.541,94.3047 -9.057,162.3808 -7.877,328.7865 19.291,467.795 13.584,69.5042 33.483,132.5152 65.236,185.6347 31.753,53.1195 78.156,97.3997 138.75,116.1953 65.159,20.2114 130.702,11.9014 181.286,-17.0312 50.584,-28.9326 86.463,-74.134 112.9,-123.4024 52.874,-98.5367 71.903,-216.1509 63.973,-309.4062 l -0.07,-0.8301 -0.09,-0.8281 c -29.482,-265.7574 -215.899,-457.6114 -434.045,-520.332 24.235,-225.95199 59.654,-406.13091 59.654,-406.13091 a 65.0065,65.0065 0 0 0 -64.881,-78.50195 z m -6.998,617.12106 c 158.605,54.9269 294.148,198.8566 316.949,401.3125 5.152,63.0582 -12.078,167.2439 -49.041,236.1289 -18.556,34.5825 -41.099,59.5583 -62.892,72.0235 -21.794,12.4652 -42.582,16.7722 -78.229,5.7148 -24.69,-7.6585 -45.356,-24.7352 -65.68,-58.7344 -20.323,-33.9991 -37.507,-83.8676 -49.234,-143.8691 -23.454,-120.0029 -25.808,-279.1056 -17.078,-435.6191 1.44,-25.8094 3.249,-51.4539 5.205,-76.9571 z m -471.26,474.8028 c 5.608,0.1113 11.662,2.3346 20.41,6.5508 34.994,16.8647 82.24,90.1442 84.327,133.1953 2.817,58.1364 -14.126,88.9168 -29.098,102.4609 -14.972,13.5441 -29.105,16.3612 -50.705,7.5449 -32.677,-13.3375 -74.899,-64.3896 -98.779,-140.6484 -0.827,-2.6408 -1.582,-5.3607 -2.366,-8.0488 20.869,-60.3473 44.906,-86.6935 58.483,-94.9395 6.96,-4.2274 12.121,-6.2266 17.728,-6.1152 z"
       id="path4641-2"
       inkscape:connector-curvature="0" />
    <path
       style="fill:none;stroke:#000000;stroke-width:130;stroke-linecap:round;stroke-linejoin:miter;stroke-miterlimit:4;stroke-dasharray:none;stroke-opacity:1"
       d="m -10350,170 c 0,0 -4.62,-233.546788 131.654,-239.035415 175.514,-7.069058 221.9647,138.694651 218.346,249.035415 -3.09,94.23024 -76.62,233.51084 -200,200 -123.38,-33.51084 -222.719,-319.586501 -186.21,-490.67413 40.321,-188.94702 215.75,-413.02096 408.9375,-410.74403 C -9847.9109,-519.89349 -9730,-370 -9710,-240 c 40,240 25,690 30,600 16.813,-181.91299 -31.2368,-443.804057 -10,-610 28.7714,-221.71537 130.2977,-301.99726 263.3916,-264.23354 142.1315,40.32804 292.2307,151.24298 333.7888,293.43919 58.4094,199.855104 46.2183,624.33441 -173.2012,600.15399 -435.069,-47.94539 -28.5314,-1439.00304 -40,-1440.00004"
       id="path4714"
       inkscape:connector-curvature="0"
       sodipodi:nodetypes="csazaacccsasc" />
    <path
       style="color:#000000;font-style:normal;font-variant:normal;font-weight:normal;font-stretch:normal;font-size:medium;line-height:normal;font-family:sans-serif;font-variant-ligatures:normal;font-variant-position:normal;font-variant-caps:normal;font-variant-numeric:normal;font-variant-alternates:normal;font-feature-settings:normal;text-indent:0;text-align:start;text-decoration:none;text-decoration-line:none;text-decoration-style:solid;text-decoration-color:#000000;letter-spacing:normal;word-spacing:normal;text-transform:none;writing-mode:lr-tb;direction:ltr;text-orientation:mixed;dominant-baseline:auto;baseline-shift:baseline;text-anchor:start;white-space:normal;shape-padding:0;clip-rule:nonzero;display:inline;overflow:visible;visibility:visible;opacity:1;isolation:auto;mix-blend-mode:normal;color-interpolation:sRGB;color-interpolation-filters:linearRGB;solid-color:#000000;solid-opacity:1;vector-effect:none;fill:#000000;fill-opacity:1;fill-rule:nonzero;stroke:none;stroke-width:130;stroke-linecap:round;stroke-linejoin:miter;stroke-miterlimit:4;stroke-dasharray:none;stroke-dashoffset:0;stroke-opacity:1;color-rendering:auto;image-rendering:auto;shape-rendering:auto;text-rendering:auto;enable-background:accumulate"
       d="m -9406.8809,294.27344 a 65.0065,65.0065 0 0 0 -65.0351,66.78906 c -0.028,0.12803 -0.019,0.0966 -0.047,0.22656 -1.9965,9.1345 -5.5309,24.06456 -10.0976,43.10352 -9.1335,38.07792 -22.4772,93.11084 -37.4512,159.30469 -17.4641,77.20139 -37.1246,169.85225 -55.1465,269.22265 -61.4911,-2.08192 -121.7445,17.30227 -167.3887,60.39453 -29.9237,28.25068 -53.4909,63.98843 -71.666,106.78515 -12.221,-18.30742 -25.7375,-35.82938 -40.4316,-52.28319 -56.491,-63.25614 -132.8149,-113.17505 -222.3635,-114.23047 -121.951,-1.43733 -229.104,66.34324 -310.381,154.63672 -81.276,88.29344 -139.809,199.37584 -162.89,307.53714 -22.309,104.5427 -3.556,226.1198 35.707,332.9218 39.262,106.8021 94.453,206.183 197.035,234.045 86.824,23.582 167.709,-18.1621 212.748,-74.0274 45.039,-55.8653 67.19,-123.6219 69.254,-186.5683 2.138,-65.2137 -9.007,-141.3194 -52.981,-206.8829 -43.974,-65.5634 -127.007,-113.4972 -232.945,-109.2304 -39.76,1.6014 -75.304,17.7843 -102.254,40.039 0.205,-1.0364 0.357,-2.1482 0.574,-3.166 17.24,-80.7857 66.582,-176.212 131.397,-246.623 64.815,-70.411 141.969,-113.52907 213.205,-112.68948 39.813,0.46925 87.1267,26.25831 126.9316,70.83008 39.8049,44.5718 69.2115,105.7379 76.8633,155.4746 l 0.06,0.4024 0.068,0.4003 c 5.3315,31.9893 9.5933,69.0949 13.1386,108.4219 0.835,81.4512 7.6866,167.883 13.0332,250.0606 0.4531,19.0796 0.8203,37.7336 1.0743,55.5097 0.9285,65.0003 0.7754,119.8231 0.6972,153.1387 -0.039,16.6578 -0.1702,25.9342 0.127,34.3731 0.037,1.0548 0.071,2.1067 0.2285,4.0937 0.1579,1.987 -4.9967,-3.6746 4.7305,20.0586 2.4317,5.9333 2.4215,19.5942 31.7636,33.8496 29.3422,14.2554 71.318,-7.7264 79.7735,-18.6191 16.9109,-21.7854 11.3798,-22.4929 12.0722,-25.5215 1.385,-6.0572 1.212,-6.8114 1.3672,-8.2246 0.5328,-4.851 0.636,-7.8095 0.8672,-12.2032 -0,0 -0,8e-4 -0.01,0 -8e-4,5e-4 -0,0 -0,0 -0.3157,0.2156 -0.7202,0.072 -0.877,0.2128 -0,-0.309 -0,-5.0047 -0.012,-6.3964 0.7607,2.3875 0.9443,3.5558 1.0117,4.4648 8.9368,-99.3156 1.7413,-214.4249 -5.416,-322.8828 -1.8267,-47.6732 -4.4387,-96.3166 -8.2011,-143.6973 -1.9447,-52.4203 -1.7644,-100.0431 3.2129,-139.0351 13.2638,-102.1299 43.4618,-162.8207 72.7265,-190.44925 17.5242,-16.54443 34.7898,-25.38568 56.6817,-26.77539 -4.692,30.58931 -9.2003,61.36214 -13.211,92.33984 -23.3239,180.1486 -34.2508,362.4739 -8.9551,511.7266 12.6479,74.6263 34.1592,141.8984 73.2715,196.4843 39.1124,54.586 99.9375,94.4218 171.877,102.3497 75.5016,8.3204 144.6619,-27.2744 186.0508,-79.8887 41.3888,-52.6144 63.0687,-118.7569 75.8164,-189.211 25.4952,-140.9081 13.866,-300.9087 -19.1563,-413.8984 -44.4304,-152.0242 -177.5815,-261.49415 -317.7207,-317.0957 17.9495,-99.82599 37.7986,-193.53925 55.4336,-271.49609 14.7282,-65.10717 27.8659,-119.2904 37.0703,-157.66407 4.6022,-19.18683 8.1993,-34.29075 10.6856,-45.66601 1.2431,-5.68764 2.1997,-10.17454 3.0371,-15.48828 0.4186,-2.65687 0.9283,-5.01043 1.1113,-11.23633 0.092,-3.11295 0.6872,-6.67079 -1.5645,-16.79688 -1.1258,-5.06304 -2.5738,-12.29674 -10.1757,-23.2207 -7.602,-10.92396 -26.9786,-25.88959 -47.8399,-27.70312 a 65.0065,65.0065 0 0 0 -6.4883,-0.33008 z m -63.2714,702.79492 c 98.5038,47.99254 189.094,131.92454 214.9433,220.37114 25.3872,86.8653 36.8665,239.033 16.0137,354.2832 -10.4264,57.625 -29.285,105.5602 -50.0684,131.9804 -20.7834,26.4203 -35.4286,34.8167 -69.6367,31.0469 -36.8278,-4.0585 -58.4705,-18.1811 -80.4453,-48.8496 -21.9748,-30.6685 -40.1715,-79.9451 -50.7715,-142.4883 -21.2,-125.0865 -12.7863,-299.5788 9.707,-473.3125 3.1586,-24.3959 6.6309,-48.7545 10.2579,-73.03124 z m -275.7325,172.24614 0.1289,0.8027 c -0.021,-0.1343 -0.049,-0.2681 -0.07,-0.4024 -0.021,-0.1283 -0.037,-0.2721 -0.059,-0.4003 z m -557.2792,246.3535 c 60.481,0.1649 86.348,20.9268 107.184,51.9922 22.224,33.1363 32.495,85.0818 31.015,130.2089 -1.026,31.2839 -17.186,80.2835 -40.529,109.2383 -23.344,28.9549 -40.913,40.0949 -77.469,30.166 -19.477,-5.2899 -69.969,-58.6117 -102.689,-137.1308 a 65.0065,65.0065 0 0 0 0.638,-11.4278 c 0,0 -0.377,-51.3602 12.51,-99.3007 6.444,-23.9703 16.41,-45.5298 26.203,-57.3809 9.793,-11.8511 15.038,-15.4955 30.571,-16.1211 4.348,-0.1751 8.534,-0.2551 12.566,-0.2441 z"
       id="path4714-3"
       inkscape:connector-curvature="0" />
    <path
       style="fill:none;stroke:#000000;stroke-width:138.66667175;stroke-linecap:round;stroke-linejoin:round;stroke-miterlimit:4;stroke-dasharray:none;stroke-opacity:1"
       d="m -19357.6,384.4 c -547.803,-551.17141 866.694,-663.19447 256,-4.4 275.293,-44.24758 1256.412,3.58752 1221.6,0 -430.923,-355.479288 -575.592,-866.53732 40,-940 615.592,-73.46268 728.401,349.6759 -40,940 254.037,27.48956 520,20 800,20 -80,-120 -242.989,-179.27429 -262,-680"
       id="path3938"
       inkscape:connector-curvature="0"
       sodipodi:nodetypes="ccczccc" />
    <path
       sodipodi:nodetypes="cscccsc"
       inkscape:connector-curvature="0"
       id="path4245"
       d="m -30165.235,356.7404 c -643.123,-593.65186 1022.375,-825.6954 332.258,-49.22079 -114.428,128.74728 576.564,53.72109 747.616,57.01159 C -29771.53,-445.71326 -28720,-960 -28688,0 c 84.73,-729.67346 629.118,-680.14032 629.629,12.859981 -11.441,345.072269 -315.138,550.608739 -354.409,134.567599 -37.207,-394.18359 1027.441,226.13725 986.78,-305.42758"
       style="fill:none;stroke:#000000;stroke-width:130;stroke-linecap:round;stroke-linejoin:round;stroke-miterlimit:4;stroke-dasharray:none;stroke-opacity:1" />
    <path
       style="color:#000000;font-style:normal;font-variant:normal;font-weight:normal;font-stretch:normal;font-size:medium;line-height:normal;font-family:sans-serif;font-variant-ligatures:normal;font-variant-position:normal;font-variant-caps:normal;font-variant-numeric:normal;font-variant-alternates:normal;font-feature-settings:normal;text-indent:0;text-align:start;text-decoration:none;text-decoration-line:none;text-decoration-style:solid;text-decoration-color:#000000;letter-spacing:normal;word-spacing:normal;text-transform:none;writing-mode:lr-tb;direction:ltr;text-orientation:mixed;dominant-baseline:auto;baseline-shift:baseline;text-anchor:start;white-space:normal;shape-padding:0;clip-rule:nonzero;display:inline;overflow:visible;visibility:visible;opacity:1;isolation:auto;mix-blend-mode:normal;color-interpolation:sRGB;color-interpolation-filters:linearRGB;solid-color:#000000;solid-opacity:1;vector-effect:none;fill:#000000;fill-opacity:1;fill-rule:nonzero;stroke:none;stroke-width:130;stroke-linecap:round;stroke-linejoin:round;stroke-miterlimit:4;stroke-dasharray:none;stroke-dashoffset:0;stroke-opacity:1;color-rendering:auto;image-rendering:auto;shape-rendering:auto;text-rendering:auto;enable-background:accumulate"
       d="m -27716.793,1127.7441 c -92.988,2.2019 -182.437,57.6262 -249.84,150.9141 -27.152,37.5797 -51.446,81.5149 -72.371,131.875 -34.212,-89.0071 -82.313,-156.5974 -140.391,-203.209 -112.455,-90.2539 -259.134,-91.9086 -370.308,-24.4765 -111.174,67.432 -189.606,200.1273 -192.537,366.7597 -2.449,139.1968 47.098,300.9545 167.746,473.6602 -104.112,4.9932 -234.68,13.3327 -352.543,14.8086 -72.785,0.9114 -139.584,-1.5924 -183.149,-7.3282 69.88,-84.5768 114.038,-159.3167 136.497,-228.2636 25.934,-79.6172 20.452,-155.6775 -15.44,-212.8789 -35.892,-57.2014 -95.322,-90.3859 -158.685,-107.1133 -63.364,-16.7274 -133.122,-18.3257 -202.731,-8.5254 -139.219,19.6006 -282.201,82.3401 -353.031,202.4199 -35.415,60.0399 -48.063,136.2377 -26.291,213.5645 21.772,77.3267 74.242,154.8864 160.545,234.5508 a 65.0065,65.0065 0 1 0 88.176,-95.5235 c -74.478,-68.7486 -110.647,-128.3011 -123.586,-174.2597 -12.94,-45.9587 -6.375,-79.2192 13.128,-112.2833 39.007,-66.128 148.681,-124.1808 259.182,-139.7382 55.251,-7.7787 109.618,-5.5468 151.426,5.4902 41.808,11.037 68.596,29.5532 81.748,50.5137 13.152,20.9604 19.54,49.5234 1.951,103.5195 -17.588,53.9961 -61.777,129.3088 -144.264,222.1172 a 65.0065,65.0065 0 0 0 0,0 c -12.026,13.5309 -23.442,29.8521 -27.712,53.4024 -4.271,23.5503 4.071,52.6248 17.929,69.8301 27.717,34.4105 57.608,39.4154 89.096,46.2343 62.975,13.6378 145.09,15.4087 236.838,14.2598 183.496,-2.2978 404.454,-19.977 478.799,-18.5469 a 65.0065,65.0065 0 0 0 50.853,-106.9961 c -164.059,-193.7252 -218.75,-362.9512 -216.504,-490.6289 2.246,-127.6776 60.039,-215.4743 129.977,-257.8945 69.937,-42.4202 149.256,-43.2862 221.519,14.7109 72.264,57.9972 140.202,185.4947 147.801,413.4551 a 65.0065,65.0065 0 0 0 129.531,5.332 c 20.253,-174.413 68.151,-297.9351 122.174,-372.705 54.023,-74.7699 109.058,-99.4628 156.207,-96.9571 47.149,2.5058 98.965,33.1458 143.729,110.5762 38.825,67.1587 68.815,168.1445 76.178,301.2324 -51.588,-5.8895 -101.335,-9.1016 -147.284,-6.3711 -54.221,3.2222 -106.85,14.004 -149.23,50.2774 -42.38,36.2734 -61.771,97.0689 -55.832,159.9844 10.601,112.3122 37.364,191.6471 89.306,243.0918 51.943,51.4446 133.857,57.1871 192.889,26.6796 100.185,-51.7749 170.964,-172.165 194.033,-324.1953 24.251,3.7616 48.597,7.5742 73.307,11.3672 129.61,19.8951 261.758,38.7944 375.062,11.2227 56.653,-13.7859 111.088,-42.0803 147.264,-91.9707 36.177,-49.8904 50.31,-115.967 44.442,-192.6875 a 65.0065,65.0065 0 1 0 -129.622,9.914 c 4.297,56.1707 -5.946,86.9886 -20.064,106.459 -14.118,19.4704 -35.897,33.0032 -72.756,41.9727 -73.719,17.9389 -197.783,6.0623 -324.601,-13.4043 -28.648,-4.3975 -57.381,-9.1148 -85.985,-13.7051 -5.41,-160.8006 -39.466,-289.629 -94.56,-384.9297 -60.101,-103.9611 -149.774,-170.0367 -249.377,-175.3301 -6.225,-0.3308 -12.44,-0.4221 -18.639,-0.2754 z m 107.525,664.7247 c 33.294,-0.5711 73.804,2.843 118.164,8.1894 -21.957,119.1091 -84.751,206.9387 -123.876,227.1582 -23.231,12.0055 -25.322,12.6907 -41.725,-3.5547 -16.403,-16.2454 -42.329,-67.235 -51.363,-162.9433 -3.364,-35.6305 2.379,-41.6755 10.941,-49.0039 8.562,-7.3285 32.686,-16.9091 72.408,-19.2696 4.966,-0.295 10.12,-0.4847 15.451,-0.5761 z"
       id="path4245-5"
       inkscape:connector-curvature="0" />
    <path
       style="color:#000000;font-style:normal;font-variant:normal;font-weight:normal;font-stretch:normal;font-size:medium;line-height:normal;font-family:sans-serif;font-variant-ligatures:normal;font-variant-position:normal;font-variant-caps:normal;font-variant-numeric:normal;font-variant-alternates:normal;font-feature-settings:normal;text-indent:0;text-align:start;text-decoration:none;text-decoration-line:none;text-decoration-style:solid;text-decoration-color:#000000;letter-spacing:normal;word-spacing:normal;text-transform:none;writing-mode:lr-tb;direction:ltr;text-orientation:mixed;dominant-baseline:auto;baseline-shift:baseline;text-anchor:start;white-space:normal;shape-padding:0;clip-rule:nonzero;display:inline;overflow:visible;visibility:visible;opacity:1;isolation:auto;mix-blend-mode:normal;color-interpolation:sRGB;color-interpolation-filters:linearRGB;solid-color:#000000;solid-opacity:1;vector-effect:none;fill:#000000;fill-opacity:1;fill-rule:nonzero;stroke:none;stroke-width:138.66667175;stroke-linecap:round;stroke-linejoin:round;stroke-miterlimit:4;stroke-dasharray:none;stroke-dashoffset:0;stroke-opacity:1;color-rendering:auto;image-rendering:auto;shape-rendering:auto;text-rendering:auto;enable-background:accumulate"
       d="m -17424.766,762.16602 c -45.004,-0.0911 -92.848,2.94978 -143.449,8.98828 -163.607,19.52433 -285.365,68.74348 -366.422,146.77343 -81.057,78.02996 -114.672,184.39637 -106.961,291.30467 11.997,166.3119 109.862,339.1514 258.58,495.166 -86.74,-3.01 -192.364,-6.4085 -309.988,-8.9629 -197.723,-4.2938 -411.88,-6.8286 -574.4,1.125 23.444,-36.4033 41.104,-71.2647 53.039,-105.0039 25.448,-71.9428 23.867,-142.4601 -5.096,-198.2519 -57.926,-111.5837 -190.409,-142.4383 -311.373,-134.0078 -120.964,8.4304 -247.737,56.0179 -311.644,163.914 -31.954,53.9481 -42.498,123.7021 -23.219,194.0567 19.279,70.3545 64.776,141.4042 138.924,216.0078 a 69.340269,69.340269 0 1 0 98.351,-97.75 c -62.803,-63.1893 -92.935,-116.2103 -103.539,-154.9063 -10.604,-38.6959 -5.287,-62.9732 8.791,-86.7421 28.157,-47.5379 114.129,-90.1257 201.977,-96.2481 87.847,-6.1224 160.246,24.0926 178.662,59.5664 9.208,17.7369 13.663,42.2439 -2.565,88.1192 -16.227,45.8752 -55.215,109.7353 -127.349,187.5507 a 69.340269,69.340269 0 0 0 61.849,115.5899 c 121.04,-19.4546 440.236,-20.3426 714.582,-14.3848 137.173,2.9789 264.836,7.2274 356.047,10.5098 45.606,1.6412 82.072,3.039 106.233,3.9219 12.08,0.4414 20.973,0.7532 26.929,0.9121 1.668,0.044 3.338,0.033 4.741,0.055 258.832,27.507 525.222,19.8652 802.066,19.8652 a 69.340269,69.340269 0 0 0 57.689,-107.793 c -49.132,-73.6981 -104.882,-112.3166 -151.451,-193.3242 -46.569,-81.0076 -89.73,-207.8877 -98.955,-450.8477 a 69.340269,69.340269 0 0 0 -0.488,-6.6054 c 1.785,-18.0324 2.374,-35.8419 1.437,-53.3809 -5.83,-109.15932 -75.415,-201.15389 -178.117,-247.67186 -70.607,-31.98111 -155.87,-47.34445 -254.881,-47.54492 z m -0.683,139.10351 c 84.8,0.52851 151.895,13.71371 198.351,34.75586 67.573,30.60676 93.591,67.51901 96.862,128.75191 3.27,61.233 -26.648,154.4871 -108.965,268.3536 -75.679,104.6827 -193.857,225.8847 -358.703,357.1425 -181.434,-162.4925 -295.393,-352.5004 -305.385,-491.0175 -5.372,-74.474 13.336,-131.8642 64.822,-181.4278 51.487,-49.56351 142.493,-91.77539 286.682,-108.9824 45.586,-5.44005 87.79,-7.8164 126.336,-7.57617 z m 321.769,479.73247 c 21.639,111.833 53.452,193.2715 89.7,256.3242 21.535,37.4607 43.826,67.8747 65.017,93.8457 -163.316,0.7452 -321.159,1.3056 -472.574,-6.7071 127.163,-109.3768 224.544,-213.0324 294.713,-310.0937 8.106,-11.2125 15.735,-22.3153 23.144,-33.3691 z m -522.574,463.164 a 69.340269,69.340269 0 0 0 0.07,0.025 69.340269,69.340269 0 0 0 2.319,0.8184 69.340269,69.340269 0 0 0 4.197,1.4687 69.340269,69.340269 0 0 0 2.922,0.7149 69.340269,69.340269 0 0 0 2.918,0.7128 c -1.844,-0.3011 -3.066,0.9308 -12.43,-3.7402 z m 15.76,4.3164 a 69.340269,69.340269 0 0 0 2.68,0.3965 c -0.321,-0.033 -0.484,-0.039 -1.616,-0.2051 -0.203,-0.03 -0.815,-0.154 -1.064,-0.1914 z"
       id="path3938-3"
       inkscape:connector-curvature="0" />
    <path
       style="color:#000000;font-style:normal;font-variant:normal;font-weight:normal;font-stretch:normal;font-size:medium;line-height:normal;font-family:sans-serif;font-variant-ligatures:normal;font-variant-position:normal;font-variant-caps:normal;font-variant-numeric:normal;font-variant-alternates:normal;font-feature-settings:normal;text-indent:0;text-align:start;text-decoration:none;text-decoration-line:none;text-decoration-style:solid;text-decoration-color:#000000;letter-spacing:normal;word-spacing:normal;text-transform:none;writing-mode:lr-tb;direction:ltr;text-orientation:mixed;dominant-baseline:auto;baseline-shift:baseline;text-anchor:start;white-space:normal;shape-padding:0;clip-rule:nonzero;display:inline;overflow:visible;visibility:visible;opacity:1;isolation:auto;mix-blend-mode:normal;color-interpolation:sRGB;color-interpolation-filters:linearRGB;solid-color:#000000;solid-opacity:1;vector-effect:none;fill:#000000;fill-opacity:1;fill-rule:nonzero;stroke:none;stroke-width:130;stroke-linecap:round;stroke-linejoin:miter;stroke-miterlimit:4;stroke-dasharray:none;stroke-dashoffset:0;stroke-opacity:1;color-rendering:auto;image-rendering:auto;shape-rendering:auto;text-rendering:auto;enable-background:accumulate"
       d="m 11100.424,1494.2812 a 65.0065,65.0065 0 0 0 -51.387,106.0645 c 163.804,206.9104 207.046,432.5497 170.953,593.4688 -18.046,80.4595 -55.156,143.8841 -104.351,184.7109 -49.195,40.8267 -110.466,61.6577 -190.621,53.6719 -34.634,-3.4506 -52.712,-13.7696 -68.954,-31.0215 -16.241,-17.2519 -30.201,-44.8285 -40.111,-82.8477 -19.82,-76.0382 -21.009,-188.5252 -22.689,-302.8203 -1.681,-114.2951 -3.105,-230.6046 -39.912,-329.4121 -18.404,-49.4037 -47.481,-95.7494 -92.622,-127.9883 -45.14,-32.2388 -103.73,-47.4283 -169.652,-44.6816 -111.809,4.6587 -195.977,63.0824 -238.986,141.7558 -43.009,78.6735 -54.595,171.2354 -61.5,265.625 -13.81,188.7794 -15.018,387.1941 -81.629,467.5235 -23.015,27.7541 -51.037,45.9974 -100.207,54.5488 -41.3337,7.1885 -60.5934,1.0255 -74.7404,-8.6543 -14.147,-9.6798 -27.7725,-28.5938 -38.7265,-62.3184 -21.9082,-67.4491 -25.2623,-183.4987 -26.17,-304.4511 -0.9076,-120.9525 0.01,-247.1864 -30.5195,-354.0586 -15.2642,-53.4361 -39.2481,-103.7558 -80.7988,-141.7891 -41.5508,-38.0333 -100.1017,-59.1719 -165.0938,-58.2304 -91.9263,1.3316 -167.6163,35.6071 -215.9804,91.6191 -48.3641,56.012 -70.1331,126.5776 -82.4746,199.8887 -24.6832,146.6222 -13.2049,314.7964 -32.1055,440.8203 -14.2384,94.9334 -46.452,154.7497 -72.8145,179.0058 -26.3626,24.2564 -37.4135,25.6348 -67.6621,7.4805 -30.2486,-18.1543 -74.6181,-71.4175 -109.0156,-167.8633 -34.3976,-96.4458 -59.9248,-234.0628 -64.3359,-413.9883 -0.1389,-5.662 -0.2009,-9.941 -0.3282,-15.3984 5.1112,-112.2721 4.0628,-202.0807 1.5274,-240.4434 -0.4165,-6.3023 -0.4457,-10.0098 -2.0664,-18.6542 -0.4052,-2.1612 -0.8014,-4.599 -2.4512,-9.5918 -1.6498,-4.9929 4.2153,-14.1762 -26.0352,-34.2676 -15.1252,-10.0457 -49.7021,-12.6543 -67.6445,-2.6953 -17.9424,9.9589 -22.3152,19.8206 -25.4863,25.5605 -6.3423,11.4798 -6.0872,14.8673 -6.8028,18.0606 -2.8622,12.773 -2.1085,14.6324 -2.4609,21.3066 -0.3524,6.6742 -0.6043,14.7484 -0.791,24.9277 -0.6949,37.881 -0.3121,106.3579 2.0918,211.7227 -1.4831,33.7857 -3.4765,69.2986 -6.2637,105.6562 -11.96,156.0108 -39.2999,330.3736 -83.1386,428.3711 -21.9194,48.9988 -46.7263,73.1645 -60.0899,78.1817 -13.3636,5.0172 -31.8444,6.4363 -78.5508,-32.8301 a 65.0065,65.0065 0 1 0 -83.6562,99.5078 c 66.2936,55.7336 142.3134,79.6511 207.9004,55.0273 65.5869,-24.6237 104.1816,-82.2379 133.0644,-146.8027 15.971,-35.7016 29.2712,-75.3728 40.5352,-117.3945 0.8513,2.4558 1.671,4.9911 2.5351,7.414 40.6044,113.8489 94.1349,193.3885 164.5645,235.6582 70.4296,42.2698 162.8353,31.6938 222.582,-23.2792 59.7467,-54.9731 96.2982,-141.6596 113.3555,-255.3907 22.2444,-148.3194 11.1752,-316.3712 31.7383,-438.5195 10.2815,-61.0742 28.0836,-108.0311 52.6738,-136.5098 24.5902,-28.4787 55.2391,-45.6633 119.4687,-46.5937 38.8697,-0.5631 58.3324,8.4833 75.4356,24.1387 17.1032,15.6553 32.4126,42.5277 43.5742,81.6015 22.3232,78.1477 24.6146,198.2043 25.5234,319.3262 0.9089,121.1219 -0.1865,242.9316 32.5235,343.6367 16.355,50.3526 43.1271,98.0877 88.959,129.4473 45.8319,31.3596 106.1311,40.625 170.4255,29.4433 75.304,-13.0963 136.519,-49.6197 178.002,-99.6445 v -0 c 120.066,-144.7927 98.282,-364.2702 111.211,-541.0195 6.465,-88.3746 20.077,-165.4852 45.916,-212.7519 25.84,-47.2667 54.17,-71.0513 130.33,-74.2246 44.3,-1.8459 69.716,7.034 88.686,20.582 18.97,13.5479 34.11,34.7079 46.355,67.5801 24.491,65.7442 30.089,173.0723 31.748,285.9433 1.66,112.871 0.13,231.0774 26.879,333.6973 13.375,51.3099 34.429,100.0532 71.252,139.168 36.824,39.1147 89.862,65.2081 150.721,71.2714 110.83,11.0419 211.361,-20.6121 286.529,-82.9941 75.169,-62.382 124.985,-152.8906 148.178,-256.2969 46.386,-206.8126 -10.646,-468.6383 -195.875,-702.6113 a 65.0065,65.0065 0 0 0 -50.539,-25.3731 z"
       id="path4523-3-5"
       inkscape:connector-curvature="0" />
    <path
       style="fill:none;stroke:#000000;stroke-width:130;stroke-linecap:round;stroke-linejoin:miter;stroke-miterlimit:4;stroke-dasharray:none;stroke-opacity:1"
       d="m -26112,340 c 452,379.99996 312,-1560 335.338,-608.068 18.161,740.76426 380.498,820.74426 443.089,403.4129 41.145,-274.34332 -45.091,-672.4507 267.221,-676.9747 415.447,-6.018 62.34,1003.63598 426.246,928.54796 363.906,-75.08802 -13.328,-876.78801 393.891,-928.54796 C -23838.996,-593.38975 -24080,-240 -23960,-120"
       id="path4523-3-6"
       inkscape:connector-curvature="0"
       sodipodi:nodetypes="cssszzc" />
    <path
       style="fill:none;stroke:#000000;stroke-width:130;stroke-linecap:round;stroke-linejoin:miter;stroke-miterlimit:4;stroke-dasharray:none;stroke-opacity:1"
       d="m 12099.464,332.57798 c 452,379.99996 312,-1559.99998 335.338,-608.068 18.161,740.76426 380.498,820.74426 443.089,403.4129 41.145,-274.34332 -45.091,-672.4507 267.221,-676.9747 415.447,-6.018 21.582,1038.0152 426.246,928.54796 404.664,-109.46724 -20.717,-875.49836 299.087,-924.39685 138.903,-21.23854 200.274,47.25902 232.1,147.89903 20.77,65.67995 28.957,145.04991 37.9,222.10097"
       id="path4523-3-3"
       inkscape:connector-curvature="0"
       sodipodi:nodetypes="cssszssc" />
    <path
       style="fill:none;stroke:#000000;stroke-width:130;stroke-linecap:round;stroke-linejoin:round;stroke-miterlimit:4;stroke-dasharray:none;stroke-opacity:1"
       d="m 14154,-180 c 4.342,-51.52425 7.364,-108.73879 17.398,-155.7613 116.541,-538.84081 935.259,130.5078 -37.398,715.7613 278.656,-39.87208 539.956,71.81608 620,-20 107.992,-123.87422 -155.321,-337.33451 -152,-600"
       id="path3849-6"
       inkscape:connector-curvature="0"
       sodipodi:nodetypes="ccccc" />
    <path
       style="color:#000000;font-style:normal;font-variant:normal;font-weight:normal;font-stretch:normal;font-size:medium;line-height:normal;font-family:sans-serif;font-variant-ligatures:normal;font-variant-position:normal;font-variant-caps:normal;font-variant-numeric:normal;font-variant-alternates:normal;font-feature-settings:normal;text-indent:0;text-align:start;text-decoration:none;text-decoration-line:none;text-decoration-style:solid;text-decoration-color:#000000;letter-spacing:normal;word-spacing:normal;text-transform:none;writing-mode:lr-tb;direction:ltr;text-orientation:mixed;dominant-baseline:auto;baseline-shift:baseline;text-anchor:start;white-space:normal;shape-padding:0;clip-rule:nonzero;display:inline;overflow:visible;visibility:visible;opacity:1;isolation:auto;mix-blend-mode:normal;color-interpolation:sRGB;color-interpolation-filters:linearRGB;solid-color:#000000;solid-opacity:1;vector-effect:none;fill:#000000;fill-opacity:1;fill-rule:nonzero;stroke:none;stroke-width:130;stroke-linecap:round;stroke-linejoin:miter;stroke-miterlimit:4;stroke-dasharray:none;stroke-dashoffset:0;stroke-opacity:1;color-rendering:auto;image-rendering:auto;shape-rendering:auto;text-rendering:auto;enable-background:accumulate"
       d="M 13270.289 1645.9336 C 13268.256 1645.9183 13266.216 1645.9254 13264.17 1645.9551 C 13172.244 1647.2867 13096.554 1681.5622 13048.189 1737.5742 C 12999.825 1793.5863 12978.056 1864.1518 12965.715 1937.4629 C 12941.032 2084.0851 12952.51 2252.2594 12933.609 2378.2832 C 12919.371 2473.2167 12887.157 2533.0329 12860.795 2557.2891 C 12834.432 2581.5454 12823.383 2582.9239 12793.135 2564.7695 C 12762.886 2546.6152 12718.515 2493.3501 12684.117 2396.9043 C 12649.72 2300.4585 12624.194 2162.8415 12619.783 1982.916 C 12619.644 1977.2538 12619.582 1972.975 12619.455 1967.5176 C 12624.566 1855.2463 12623.516 1765.4387 12620.98 1727.0762 C 12620.564 1720.7738 12620.535 1717.0664 12618.914 1708.4219 C 12618.509 1706.2607 12618.115 1703.8229 12616.465 1698.8301 C 12614.815 1693.8372 12620.68 1684.6517 12590.43 1664.5605 C 12575.304 1654.515 12540.728 1651.9084 12522.785 1661.8672 C 12504.843 1671.826 12500.47 1681.6878 12497.299 1687.4277 C 12490.956 1698.9075 12491.212 1702.295 12490.496 1705.4883 C 12487.634 1718.2614 12488.388 1720.1187 12488.035 1726.793 C 12487.683 1733.4672 12487.429 1741.5433 12487.242 1751.7227 C 12486.547 1789.6036 12486.932 1858.0805 12489.336 1963.4453 C 12487.853 1997.2304 12485.859 2032.7446 12483.072 2069.1016 C 12471.112 2225.1123 12443.77 2399.4751 12399.932 2497.4727 C 12378.012 2546.4714 12353.207 2570.6371 12339.844 2575.6543 C 12326.48 2580.6715 12307.999 2582.0906 12261.293 2542.8242 A 65.0065 65.0065 0 1 0 12177.637 2642.332 C 12243.93 2698.0656 12319.948 2721.9831 12385.535 2697.3594 C 12451.122 2672.7357 12489.717 2615.1214 12518.6 2550.5566 C 12534.571 2514.8546 12547.871 2475.1825 12559.135 2433.1602 C 12559.986 2435.6167 12560.807 2438.1526 12561.672 2440.5762 C 12602.276 2554.425 12655.807 2633.9646 12726.236 2676.2344 C 12796.666 2718.5042 12889.072 2707.9281 12948.818 2652.9551 C 13008.565 2597.9821 13045.115 2511.2956 13062.172 2397.5645 C 13084.416 2249.245 13073.349 2081.1913 13093.912 1959.043 C 13104.194 1897.9688 13121.996 1851.0139 13146.586 1822.5352 C 13171.176 1794.0564 13201.823 1776.8718 13266.053 1775.9414 C 13304.45 1775.3852 13323.949 1784.5274 13341.789 1801.1562 C 13359.629 1817.7851 13375.796 1846.3889 13387.678 1887.0996 C 13411.441 1968.5211 13415.265 2091.8955 13417.287 2215.082 C 13419.309 2338.2686 13418.726 2460.4963 13450.578 2559.6289 C 13466.504 2609.1952 13492.654 2656.5242 13539.342 2685.832 C 13586.029 2715.1398 13646.462 2718.977 13708.332 2702.2402 C 13830.715 2669.1339 13901.247 2573.975 13926.891 2471.5391 C 13952.535 2369.1031 13945.521 2256.5301 13937.543 2149.7422 C 13929.565 2042.9543 13920.518 1941.0888 13930.057 1873.9082 C 13934.826 1840.3179 13943.932 1817.0221 13954 1803.8594 C 13964.068 1790.6967 13973.891 1783.3869 14000.27 1779.3535 C 14057.987 1770.5284 14086.85 1780.0112 14108.072 1795.6602 C 14129.295 1811.3091 14147.001 1839.6878 14160.57 1882.5977 C 14178.282 1938.606 14186.87 2014.9777 14195.879 2092.5938 A 65.0065 65.0065 0 0 0 14290.031 2143.8652 A 65.0065 65.0065 0 0 0 14338.768 2085.459 C 14343.232 2032.4793 14346.615 1976.9988 14354.945 1937.9004 C 14380.173 1821.3463 14427.569 1793.7176 14474.727 1791.3711 C 14521.897 1789.024 14585.746 1823.7615 14624.531 1892.5195 C 14642.346 1924.1013 14654.951 1962.038 14658.539 2005.4004 A 65.0065 65.0065 0 0 0 14657.004 2019.1777 C 14656.835 2032.567 14657.42 2045.7005 14658.33 2058.7129 C 14655.051 2096.0857 14645.255 2136.6135 14626.768 2180.0098 C 14575.575 2300.1862 14455.507 2442.8902 14220.484 2584.3047 A 65.0065 65.0065 0 0 0 14263.203 2704.3438 C 14391.287 2686.0167 14520.076 2702.5124 14631.752 2714.1309 C 14687.59 2719.9401 14738.985 2724.7699 14787.49 2721.0645 C 14835.995 2717.359 14887.181 2703.7913 14922.992 2662.7129 C 14964.664 2614.912 14970.832 2549.7598 14958.721 2496.5117 C 14946.609 2443.2636 14921.422 2393.9677 14895.141 2342.4902 C 14847.654 2249.4803 14796.724 2151.2754 14788.318 2052.5137 C 14792.283 1968.0346 14772.974 1891.0749 14737.76 1828.6484 C 14682.56 1730.7928 14589.559 1664.7841 14488.566 1661.3711 L 14488.562 1661.3711 C 14481.831 1661.1438 14475.063 1661.1932 14468.27 1661.5312 C 14389.149 1665.4681 14315.382 1714.6172 14268.336 1799.9688 C 14250.078 1758.2677 14224.123 1719.7116 14185.225 1691.0293 C 14133.08 1652.5791 14061.807 1638.4322 13980.621 1650.8457 C 13927.049 1659.037 13880.206 1686.3602 13850.744 1724.877 C 13821.282 1763.3937 13807.992 1808.8229 13801.346 1855.6348 C 13788.053 1949.2586 13800.096 2054.9121 13807.904 2159.4277 C 13815.713 2263.9433 13819.184 2366.4581 13800.781 2439.9688 C 13782.379 2513.4794 13754.334 2555.1247 13674.385 2576.752 C 13635.089 2587.3819 13619.31 2582.5401 13608.459 2575.7285 C 13597.608 2568.9169 13584.892 2552.6853 13574.346 2519.8613 C 13553.253 2454.2134 13549.295 2336.3353 13547.27 2212.9492 C 13545.244 2089.5631 13544.348 1959.8991 13512.471 1850.6777 C 13496.532 1796.0671 13472.148 1744.9478 13430.428 1706.0605 C 13390.011 1668.3886 13333.31 1646.4084 13270.289 1645.9336 z M 14720.812 2283.7129 C 14740.201 2326.4245 14761.126 2365.8896 14779.359 2401.6035 C 14804.992 2451.8086 14825.178 2495.5201 14831.961 2525.3438 C 14838.744 2555.1674 14837.328 2563.1509 14825.004 2577.2871 C 14820.793 2582.1168 14809.301 2589.0191 14777.592 2591.4414 C 14745.883 2593.8637 14699.53 2590.4799 14645.205 2584.8281 C 14593.738 2579.4737 14534.798 2572.4075 14471.189 2568.6289 C 14589.16 2474.1252 14670.066 2377.9177 14720.812 2283.7129 z "
       transform="translate(0,-1000)"
       id="path4523-3-3-7" />
  </g>
</svg>
