<?xml version="1.0" encoding="UTF-8" standalone="no"?>
<svg
   xmlns:dc="http://purl.org/dc/elements/1.1/"
   xmlns:cc="http://creativecommons.org/ns#"
   xmlns:rdf="http://www.w3.org/1999/02/22-rdf-syntax-ns#"
   xmlns:svg="http://www.w3.org/2000/svg"
   xmlns="http://www.w3.org/2000/svg"
   xmlns:sodipodi="http://sodipodi.sourceforge.net/DTD/sodipodi-0.dtd"
   xmlns:inkscape="http://www.inkscape.org/namespaces/inkscape"
   version="1.1"
   id="svg2992"
   height="2048"
   width="4000"
   inkscape:version="0.91 r13725"
   sodipodi:docname="oe.svg">
  <sodipodi:namedview
     pagecolor="#ffffff"
     bordercolor="#666666"
     borderopacity="1"
     objecttolerance="10"
     gridtolerance="10"
     guidetolerance="10"
     inkscape:pageopacity="0"
     inkscape:pageshadow="2"
     inkscape:window-width="1600"
     inkscape:window-height="844"
     id="namedview33"
     showgrid="true"
     showguides="true"
     inkscape:guide-bbox="true"
     inkscape:snap-grids="false"
     inkscape:zoom="0.23122392"
     inkscape:cx="4367.7636"
     inkscape:cy="90.625403"
     inkscape:window-x="1600"
     inkscape:window-y="0"
     inkscape:window-maximized="1"
     inkscape:current-layer="layer1-6">
    <inkscape:grid
       type="xygrid"
       id="grid4162" />
    <sodipodi:guide
       orientation="0,1"
       position="400,600"
       id="guide4164"
       inkscape:label=""
       inkscape:color="rgb(0,0,255)" />
    <sodipodi:guide
       orientation="0,1"
       position="-880,1600"
       id="guide4166" />
  </sodipodi:namedview>
  <defs
     id="defs5498" />
  <metadata
     id="metadata5594">
    <rdf:RDF>
      <cc:Work
         rdf:about="">
        <dc:format>image/svg+xml</dc:format>
        <dc:type
           rdf:resource="http://purl.org/dc/dcmitype/StillImage" />
        <dc:title />
      </cc:Work>
    </rdf:RDF>
  </metadata>
  <g
     transform="translate(5944.9542,1347.6942)"
     id="layer1">
    <g
       id="layer1-6"
       transform="translate(-14814.53,16.043327)">
      <path
         inkscape:connector-curvature="0"
         id="path5416"
         d="m 9457.52,-878.85387 c -98.4192,4.64918 -195.0738,45.3808 -270.3591,113.93306 -79.9849,72.83142 -135.3007,177.08605 -150.9508,288.73982 -15.6502,111.65382 8.9743,229.7001 69.1554,322.08877 48.7848,74.893297 119.8072,132.096974 199.2684,164.180799 79.4613,32.083927 166.9977,39.328439 250.6059,23.76639 113.0348,-21.039276 221.0087,-86.182727 286.2836,-187.947189 48.893,-76.22487 72.2487,-170.5589 67.8305,-263.13459 -4.4181,-92.57568 -36.158,-182.9923 -87.4953,-257.32292 -80.7523,-116.92032 -210.8362,-192.48116 -345.7601,-200.83898"
         style="fill:none;fill-rule:evenodd;stroke:#000000;stroke-width:118.72421265;stroke-linecap:round;stroke-linejoin:round;stroke-miterlimit:4;stroke-dasharray:none;stroke-opacity:1" />
      <path
         inkscape:connector-curvature="0"
         id="path5416-8"
         d="m 10732.434,-1282.958 c -153.612,6.5032 -304.468,63.4773 -421.973,159.3661 -124.837,101.8743 -211.173,247.70245 -235.599,403.8803 -24.428,156.17791 14.006,321.2974 107.935,450.52782 76.143,104.75843 186.993,184.773168 311.014,229.651039 124.023,44.8779974 260.647,55.011394 391.141,33.2436932 176.423,-29.4290952 344.946,-120.5497422 446.826,-262.8947322 76.311,-106.62099 112.765,-238.57252 105.869,-368.06454 -6.895,-129.492 -56.434,-255.96391 -136.562,-359.93526 -126.036,-163.54452 -329.068,-269.23672 -539.655,-280.92742"
         style="fill:none;fill-rule:evenodd;stroke:#000000;stroke-width:130;stroke-linecap:round;stroke-linejoin:round;stroke-miterlimit:4;stroke-dasharray:none;stroke-opacity:1" />
      <path
         inkscape:connector-curvature="0"
         id="path5416-7"
         d="m 7459.4642,-887.49605 c -98.4192,4.6492 -195.0738,45.3808 -270.3591,113.9331 -79.9849,72.8314 -135.3007,177.086 -150.9508,288.7398 -15.6502,111.6538 8.9743,229.7001 69.1554,322.0888 48.7848,74.8933 119.8072,132.0969 199.2684,164.1807996 79.4613,32.0839004 166.9977,39.3284004 250.6059,23.7664004 113.0348,-21.0393004 221.0087,-86.1828 286.2838,-187.9472 48.893,-76.2249 72.249,-170.5589 67.83,-263.1346 -4.418,-92.5757 -36.158,-182.9923 -87.495,-257.3229 -80.7523,-116.9203 -210.8362,-192.4812 -345.7601,-200.839"
         style="fill:none;fill-rule:evenodd;stroke:#000000;stroke-width:118.72421265;stroke-linecap:round;stroke-linejoin:round;stroke-miterlimit:4;stroke-dasharray:none;stroke-opacity:1" />
      <path
         style="fill:none;fill-rule:evenodd;stroke:#000000;stroke-width:130;stroke-linecap:round;stroke-linejoin:round;stroke-miterlimit:4;stroke-dasharray:none;stroke-opacity:1"
         d="m 8004.7825,-323.14218 c 873.949,-0.6108 880.175,-532.55968 468.576,-532.22188 -821.3145,0.6742 -747.2621,1265.35128 262.537,765.045582"
         id="path5613"
         inkscape:connector-curvature="0"
         sodipodi:nodetypes="csc" />
      <path
         style="color:#000000;font-style:normal;font-variant:normal;font-weight:normal;font-stretch:normal;font-size:medium;line-height:normal;font-family:sans-serif;text-indent:0;text-align:start;text-decoration:none;text-decoration-line:none;text-decoration-style:solid;text-decoration-color:#000000;letter-spacing:normal;word-spacing:normal;text-transform:none;direction:ltr;block-progression:tb;writing-mode:lr-tb;baseline-shift:baseline;text-anchor:start;white-space:normal;clip-rule:nonzero;display:inline;overflow:visible;visibility:visible;opacity:1;isolation:auto;mix-blend-mode:normal;color-interpolation:sRGB;color-interpolation-filters:linearRGB;solid-color:#000000;solid-opacity:1;fill:#000000;fill-opacity:1;fill-rule:evenodd;stroke:none;stroke-width:118.72421265;stroke-linecap:round;stroke-linejoin:round;stroke-miterlimit:4;stroke-dasharray:none;stroke-dashoffset:0;stroke-opacity:1;color-rendering:auto;image-rendering:auto;shape-rendering:auto;text-rendering:auto;enable-background:accumulate"
         d="M -1331.1367 1943.4961 A 59.368043 59.368043 0 0 0 -1335.2832 1943.6055 C -1448.1963 1948.9393 -1557.477 1995.2413 -1642.8086 2072.9414 C -1733.5711 2155.5865 -1794.966 2271.6684 -1812.5801 2397.334 C -1830.2169 2523.1607 -1803.138 2654.5021 -1734.377 2760.0625 C -1678.7559 2845.4507 -1598.3825 2910.2311 -1507.5938 2946.8887 C -1416.9745 2983.4778 -1318.095 2991.5011 -1223.9004 2973.9688 C -1095.8799 2950.1401 -973.63302 2876.8275 -898.51172 2759.7129 C -896.6759 2756.8508 -894.87265 2753.9683 -893.10156 2751.0684 C -846.25461 2840.6528 -767.85572 2914.8626 -660.2832 2952.9707 C -501.9131 3009.0742 -289.68951 2988.3752 -27.195312 2858.3223 A 65.0065 65.0065 0 1 0 -84.908203 2741.8359 C -327.3135 2861.9357 -503.01845 2870.7652 -616.87305 2830.4316 C -717.73255 2794.7015 -777.31542 2721.4729 -801.98242 2630.6797 A 65.0065 65.0065 0 0 0 -787.11914 2632.2539 C -336.95694 2631.9393 -88.568147 2500.1505 -11.435547 2327.2734 C 27.130853 2240.8349 12.754472 2142.6415 -46.361328 2075.1406 C -105.47703 2007.6398 -201.74198 1969.9373 -318.64258 1970.0332 C -585.29303 1970.2521 -772.59859 2097.5418 -869.17578 2262.6484 C -883.18095 2231.3394 -899.98056 2201.4415 -919.29883 2173.4707 C -1010.1957 2041.8621 -1155.6245 1956.6944 -1310.2344 1947.1172 A 59.368043 59.368043 0 0 0 -1311.5156 1947.084 A 59.368043 59.368043 0 0 0 -1331.1367 1943.4961 z M -1333.8574 2062.4902 A 59.368043 59.368043 0 0 0 -1317.5742 2065.6152 C -1202.3363 2072.7536 -1087.596 2138.7075 -1016.9883 2240.9395 C -972.02725 2306.0384 -943.91385 2386.1606 -939.96875 2466.8965 C -943.69149 2494.5349 -945.19588 2522.245 -944.44141 2549.7129 C -952.68154 2602.3533 -971.0625 2652.9231 -998.44531 2695.6133 C -1053.8743 2782.0275 -1147.5759 2839 -1245.625 2857.25 C -1318.6469 2870.8416 -1394.8392 2864.3776 -1463.1426 2836.7988 C -1531.2763 2809.2886 -1592.948 2759.6602 -1634.8965 2695.2617 C -1686.4977 2616.0448 -1708.6676 2511.2954 -1695.0039 2413.8145 C -1681.3178 2316.1724 -1632.0824 2223.7443 -1562.875 2160.7266 C -1498.7183 2102.3076 -1416.3889 2067.405 -1333.8574 2062.4902 z M -318.53516 2100.0332 C -229.63616 2099.9602 -172.32836 2128.6254 -144.16016 2160.7891 C -115.99196 2192.9527 -109.37235 2227.7199 -130.15625 2274.3027 C -171.72405 2367.4684 -363.42238 2501.9577 -787.20898 2502.2539 A 65.0065 65.0065 0 0 0 -814.11523 2507.7559 C -802.16413 2311.6502 -646.32456 2100.3023 -318.53516 2100.0332 z "
         transform="translate(8869.5758,-1363.7375)"
         id="path5416-7-8" />
      <path
         inkscape:connector-curvature="0"
         id="path5416-8-7"
         d="m 12814.805,-1282.9738 c -985.389,-49.4832 -1154.836,1478.70278 7.891,1286.6732917"
         style="fill:none;fill-rule:evenodd;stroke:#000000;stroke-width:130;stroke-linecap:round;stroke-linejoin:round;stroke-miterlimit:4;stroke-dasharray:none;stroke-opacity:1"
         sodipodi:nodetypes="cc" />
      <path
         style="fill:none;fill-rule:evenodd;stroke:#000000;stroke-width:130;stroke-linecap:round;stroke-linejoin:round;stroke-miterlimit:4;stroke-dasharray:none;stroke-opacity:1"
         d="m 13786.465,-1211.6525 c -272.463,-121.0947 -955.784,-69.197 -955.784,-69.197 21.624,769.81648 -12.975,1294.490104 -12.975,1294.490104 0,0 704.945,-0.2225 899.561,-17.2992002"
         id="path4139"
         inkscape:connector-curvature="0"
         sodipodi:nodetypes="cccc" />
      <path
         style="fill:none;fill-rule:evenodd;stroke:#000000;stroke-width:129.58345032;stroke-linecap:round;stroke-linejoin:round;stroke-miterlimit:4;stroke-dasharray:none;stroke-opacity:1"
         d="m 12899.819,-636.71839 727.095,4.85636"
         id="path4141"
         inkscape:connector-curvature="0" />
      <path
         style="color:#000000;font-style:normal;font-variant:normal;font-weight:normal;font-stretch:normal;font-size:medium;line-height:normal;font-family:sans-serif;text-indent:0;text-align:start;text-decoration:none;text-decoration-line:none;text-decoration-style:solid;text-decoration-color:#000000;letter-spacing:normal;word-spacing:normal;text-transform:none;direction:ltr;block-progression:tb;writing-mode:lr-tb;baseline-shift:baseline;text-anchor:start;white-space:normal;clip-rule:nonzero;display:inline;overflow:visible;visibility:visible;opacity:1;isolation:auto;mix-blend-mode:normal;color-interpolation:sRGB;color-interpolation-filters:linearRGB;solid-color:#000000;solid-opacity:1;fill:#000000;fill-opacity:1;fill-rule:evenodd;stroke:none;stroke-width:130;stroke-linecap:round;stroke-linejoin:round;stroke-miterlimit:4;stroke-dasharray:none;stroke-dashoffset:0;stroke-opacity:1;color-rendering:auto;image-rendering:auto;shape-rendering:auto;text-rendering:auto;enable-background:accumulate"
         d="M 4239.002 1746.457 C 4226.3061 1746.433 4213.7786 1746.4618 4201.4551 1746.5371 C 4047.5166 1747.4775 3925.9913 1755.5709 3901.4414 1757.3145 A 65.0065 65.0065 0 0 0 3888.543 1755.4609 C 3872.095 1754.6349 3855.8458 1754.2258 3839.8008 1754.2188 C 3342.3968 1754.001 3040.177 2140.8287 3018.791 2513.4473 C 3007.753 2705.7665 3070.8259 2898.6512 3220.0859 3029.0195 C 3362.7454 3153.622 3579.4529 3215.7754 3863.8574 3177.1797 A 65.0065 65.0065 0 0 0 3888.2051 3181.9941 C 3888.2051 3181.9941 4585.2438 3182.7124 4793.4258 3164.4453 A 65.0065 65.0065 0 1 0 4782.0625 3034.9434 C 4628.2305 3048.4414 4115.0537 3051.1786 3956.8438 3051.7363 C 3961.4611 2961.0898 3969.0886 2779.9549 3971.9902 2531.4395 L 4696.959 2536.2812 A 64.798204 64.798204 0 1 0 4697.8242 2406.7012 L 3973.0059 2401.8594 C 3973.6369 2248.2645 3972.3366 2074.2412 3967.6562 1883.6895 C 4033.5362 1880.0864 4145.1354 1875.3043 4276.1914 1876.6875 C 4477.9544 1878.8169 4715.89 1900.1425 4830.543 1951.0996 A 65.0065 65.0065 0 1 0 4883.3418 1832.3027 C 4725.5318 1762.1652 4485.5755 1748.8907 4277.5625 1746.6953 C 4264.5615 1746.5581 4251.6978 1746.4811 4239.002 1746.457 z M 3837.7598 1884.1953 C 3852.1704 2466.1395 3834.6789 2897.0944 3826.7988 3050.9004 C 3580.3315 3080.6632 3412.8873 3024.814 3305.6035 2931.1094 C 3190.4115 2830.4975 3139.4221 2680.4346 3148.5781 2520.8965 C 3166.2938 2212.2281 3406.5418 1884.3866 3837.7598 1884.1953 z "
         transform="translate(8869.5758,-1363.7375)"
         id="path5416-8-7-0" />
    </g>
  </g>
</svg>
