<?xml version="1.0" encoding="UTF-8" standalone="no"?>
<svg
   xmlns:dc="http://purl.org/dc/elements/1.1/"
   xmlns:cc="http://creativecommons.org/ns#"
   xmlns:rdf="http://www.w3.org/1999/02/22-rdf-syntax-ns#"
   xmlns:svg="http://www.w3.org/2000/svg"
   xmlns="http://www.w3.org/2000/svg"
   id="svg8"
   version="1.1"
   viewBox="0 0 210 297"
   height="297mm"
   width="210mm">
  <defs
     id="defs2" />
  <metadata
     id="metadata5">
    <rdf:RDF>
      <cc:Work
         rdf:about="">
        <dc:format>image/svg+xml</dc:format>
        <dc:type
           rdf:resource="http://purl.org/dc/dcmitype/StillImage" />
        <dc:title></dc:title>
      </cc:Work>
    </rdf:RDF>
  </metadata>
  <g
     id="layer1">
    <g
       transform="matrix(0.26458333,0,0,-0.26458333,235.20371,367.42461)"
       id="g4520">
      <path
         style="fill:#4d4d4d"
         d="m -1616.9532,547.06663 -32,-327 c -3.7122,-37.93349 -34.2445,-56.12509 -64.7975,-56.12509 -32.7471,0 -65.5569,20.90221 -65.5569,60.81012 0,2.37135 0.2968,4.79913 0.3544,7.31497 l 15.8376,691.94929 c -230.3065,-34.97658 -364.9321,129.43278 -364.0382,283.16338 0.9226,158.6526 188.3024,338.7326 331.7333,342.9543 l 342.556,10.0828 c 53.9996,1.5894 99.1629,-27.4314 130.8235,-51.5108 71,-65 37.5532,-177.0406 47.5532,-313.0406 -16.6126,-220.44021 -16.4602,-447.05723 -36.2842,-650.99998 l -24,-327 c -3.7462,-37.93014 -42.2445,-56.12509 -72.7975,-56.12509 -32.7471,0 -65.557,20.90221 -65.557,60.81012 9.9754,111.07484 21.4696,223.74459 32.3545,335.31497 -1.955,260.89618 23.7389,534.32048 -20,785.99998 l -151.2796,1.5709 c -10.3221,-259.2028 17.9976,-559.76834 -4.9016,-798.16927 z"
         id="path4518" />
    </g>
  </g>
</svg>
