<?xml version="1.0" encoding="UTF-8" standalone="no"?>
<svg
   xmlns:dc="http://purl.org/dc/elements/1.1/"
   xmlns:cc="http://creativecommons.org/ns#"
   xmlns:rdf="http://www.w3.org/1999/02/22-rdf-syntax-ns#"
   xmlns:svg="http://www.w3.org/2000/svg"
   xmlns="http://www.w3.org/2000/svg"
   xmlns:sodipodi="http://sodipodi.sourceforge.net/DTD/sodipodi-0.dtd"
   xmlns:inkscape="http://www.inkscape.org/namespaces/inkscape"
   version="1.1"
   id="svg2992"
   height="2048"
   width="4000"
   inkscape:version="0.91 r13725"
   sodipodi:docname="u.svg">
  <sodipodi:namedview
     pagecolor="#ffffff"
     bordercolor="#666666"
     borderopacity="1"
     objecttolerance="10"
     gridtolerance="10"
     guidetolerance="10"
     inkscape:pageopacity="0"
     inkscape:pageshadow="2"
     inkscape:window-width="1600"
     inkscape:window-height="844"
     id="namedview33"
     showgrid="true"
     showguides="true"
     inkscape:guide-bbox="true"
     inkscape:snap-grids="false"
     inkscape:zoom="0.23122392"
     inkscape:cx="-1581.2575"
     inkscape:cy="1128.5803"
     inkscape:window-x="1600"
     inkscape:window-y="0"
     inkscape:window-maximized="1"
     inkscape:current-layer="g4191">
    <inkscape:grid
       type="xygrid"
       id="grid4162" />
    <sodipodi:guide
       orientation="0,1"
       position="400,600"
       id="guide4164"
       inkscape:label=""
       inkscape:color="rgb(0,0,255)" />
    <sodipodi:guide
       orientation="0,1"
       position="-880,1600"
       id="guide4166" />
  </sodipodi:namedview>
  <defs
     id="defs5498" />
  <metadata
     id="metadata5594">
    <rdf:RDF>
      <cc:Work
         rdf:about="">
        <dc:format>image/svg+xml</dc:format>
        <dc:type
           rdf:resource="http://purl.org/dc/dcmitype/StillImage" />
        <dc:title />
      </cc:Work>
    </rdf:RDF>
  </metadata>
  <g
     transform="translate(5944.9542,1347.6942)"
     id="layer1">
    <g
       id="layer1-6"
       transform="translate(-14814.53,16.043327)">
      <path
         inkscape:connector-curvature="0"
         id="path5525-42"
         d="m 9064.5303,-857.99798 c -329.6472,1231.32318 765.6965,1122.03755 651.8198,4.2201 -2.6418,-25.93176 -51.4976,829.21061 94.4881,905.064433"
         style="fill:none;fill-rule:evenodd;stroke:#000000;stroke-width:130;stroke-linecap:round;stroke-linejoin:round;stroke-miterlimit:4;stroke-dasharray:none;stroke-opacity:1"
         sodipodi:nodetypes="csc" />
      <path
         style="fill:none;fill-rule:evenodd;stroke:#000000;stroke-width:130;stroke-linecap:round;stroke-linejoin:round;stroke-miterlimit:4;stroke-dasharray:none;stroke-opacity:1"
         d="m 10136.746,-1307.6984 c -30.274,1159.04963 147.224,1346.029116 531.952,1331.413504 358.959,-8.649624 622.772,-357.681244 449.78,-1348.063204"
         id="path4139"
         inkscape:connector-curvature="0"
         sodipodi:nodetypes="ccc" />
      <path
         inkscape:connector-curvature="0"
         id="path5525-42-9"
         d="m 7755.5378,62.258585 c -145.9857,-75.85382 -97.1299,-930.996195 -94.4881,-905.064395 113.8767,1117.81737 -1031.467,1227.10308 -701.8198,-4.2201 0,0 -178.5384,735.52297 -53.1188,1055.55906"
         style="fill:none;fill-rule:evenodd;stroke:#000000;stroke-width:130;stroke-linecap:round;stroke-linejoin:round;stroke-miterlimit:4;stroke-dasharray:none;stroke-opacity:1"
         sodipodi:nodetypes="cscc" />
      <path
         style="color:#000000;font-style:normal;font-variant:normal;font-weight:normal;font-stretch:normal;font-size:medium;line-height:normal;font-family:sans-serif;text-indent:0;text-align:start;text-decoration:none;text-decoration-line:none;text-decoration-style:solid;text-decoration-color:#000000;letter-spacing:normal;word-spacing:normal;text-transform:none;direction:ltr;block-progression:tb;writing-mode:lr-tb;baseline-shift:baseline;text-anchor:start;white-space:normal;clip-rule:nonzero;display:inline;overflow:visible;visibility:visible;opacity:1;isolation:auto;mix-blend-mode:normal;color-interpolation:sRGB;color-interpolation-filters:linearRGB;solid-color:#000000;solid-opacity:1;fill:#000000;fill-opacity:1;fill-rule:evenodd;stroke:none;stroke-width:130;stroke-linecap:round;stroke-linejoin:round;stroke-miterlimit:4;stroke-dasharray:none;stroke-dashoffset:0;stroke-opacity:1;color-rendering:auto;image-rendering:auto;shape-rendering:auto;text-rendering:auto;enable-background:accumulate"
         d="m 5817.6387,-920.74805 a 65.0065,65.0065 0 0 0 -62.8301,47.77735 c -0.134,0.50065 -0.2414,0.97825 -0.375,1.47851 l -0,0 c 0,0 -0.017,0.078 -0.017,0.0781 -24.4512,91.5851 -41.0364,176.33551 -50.9004,254.77929 -8.3467,49.30179 -16.6523,103.31912 -23.9707,159.90235 -29.4663,227.82192 -48.2874,494.323879 24.4179,679.84765 a 65.0065,65.0065 0 1 0 121.0371,-47.43359 c -24.1179,-61.54232 -35.4741,-149.743456 -38.0898,-248.257812 74.064,112.089981 187.4386,171.000995 304.377,164.34961 141.2168,-8.032336 278.8057,-102.550011 373.2578,-261.933598 2.5809,19.70252 5.3776,39.03285 8.623,57.48243 8.4538,48.057352 19.0539,91.278632 34.5762,128.874996 15.5222,37.596363 35.1171,73.262344 76.1933,94.605464 A 65.0065,65.0065 0 1 0 6643.875,-4.5546875 c 4.5798,2.3796685 -6.2325,-5.2705855 -15.9707,-28.8574215 -9.7382,-23.586837 -19.2511,-59.415059 -26.7051,-101.789061 -14.908,-84.74801 -22.4894,-195.84281 -25.2949,-304.06055 -0.4052,-15.6307 -0.5283,-30.93702 -0.7539,-46.38476 18.5528,-110.17784 23.0156,-234.63213 8.9316,-372.88086 -0.1987,-1.95046 -0.1,-3.91336 -2.0293,-10.98047 -0.9648,-3.53356 -1.4073,-8.21088 -8.748,-19.16602 -7.3407,-10.95514 -41.3453,-35.42424 -72.5547,-26.15234 -31.2094,9.2719 -34.9317,24.61544 -38.3809,30.83398 -3.4491,6.21855 -4.2821,9.26175 -5.0566,11.65625 -1.5489,4.789 -1.7872,6.58945 -2.0996,8.21289 -1.2497,6.49377 -1.1688,7.83712 -1.4746,11.01563 -0.6116,6.35702 -1.2056,14.54796 -1.8828,25.48242 -1.3544,21.86892 -2.926,53.88464 -4.2793,93.26172 -2.2185,64.54947 -3.6845,148.96813 -2.6016,238.7832 -18.4739,102.24942 -50.3802,187.41085 -89.7168,255.03125 -77.8992,133.91044 -183.186,197.516224 -271.3555,202.531252 -88.1694,5.015028 -168.1181,-39.185648 -219.5039,-165.345702 -36.7282,-90.1734 -53.4527,-223.86166 -30.9062,-401.82227 23.7557,-138.24714 47.2715,-235.64257 47.2715,-235.64257 a 65.0065,65.0065 0 0 0 -63.125,-79.91993 z"
         id="path5525-42-9-0"
         inkscape:connector-curvature="0" />
      <g
         id="g4191"
         transform="matrix(1,0,0,-1,7779.6239,72.917352)" />
    </g>
  </g>
</svg>
