<?xml version="1.0" encoding="UTF-8" standalone="no"?>
<!-- Created with Inkscape (http://www.inkscape.org/) -->

<svg
   xmlns:dc="http://purl.org/dc/elements/1.1/"
   xmlns:cc="http://creativecommons.org/ns#"
   xmlns:rdf="http://www.w3.org/1999/02/22-rdf-syntax-ns#"
   xmlns:svg="http://www.w3.org/2000/svg"
   xmlns="http://www.w3.org/2000/svg"
   xmlns:sodipodi="http://sodipodi.sourceforge.net/DTD/sodipodi-0.dtd"
   xmlns:inkscape="http://www.inkscape.org/namespaces/inkscape"
   width="2000"
   height="2048"
   id="svg2992"
   version="1.1"
   inkscape:version="0.91pre2 r13516"
   sodipodi:docname="ജ.svg">
  <defs
     id="defs5498" />
  <sodipodi:namedview
     inkscape:window-height="853"
     inkscape:window-width="1600"
     inkscape:pageshadow="2"
     inkscape:pageopacity="0.0"
     borderopacity="1.0"
     bordercolor="#666666"
     pagecolor="#ffffff"
     id="base"
     showgrid="true"
     showguides="true"
     inkscape:guide-bbox="true"
     inkscape:zoom="0.32102648"
     inkscape:cx="-292.44185"
     inkscape:cy="696.99027"
     inkscape:window-x="1598"
     inkscape:window-y="-3"
     inkscape:current-layer="layer1"
     inkscape:window-maximized="1">
    <sodipodi:guide
       orientation="horizontal"
       position="0,600"
       id="guide5596" />
    <inkscape:grid
       type="xygrid"
       id="grid3769"
       empspacing="3"
       visible="true"
       enabled="true"
       snapvisiblegridlinesonly="true"
       spacingx="4px"
       units="px"
       dotted="true"
       spacingy="4px" />
    <sodipodi:guide
       orientation="0,1"
       position="-1040,1600"
       id="guide2985" />
  </sodipodi:namedview>
  <metadata
     id="metadata5594">
    <rdf:RDF>
      <cc:Work
         rdf:about="">
        <dc:format>image/svg+xml</dc:format>
        <dc:type
           rdf:resource="http://purl.org/dc/dcmitype/StillImage" />
        <dc:title />
      </cc:Work>
    </rdf:RDF>
  </metadata>
  <g
     inkscape:label="Layer 1"
     inkscape:groupmode="layer"
     id="layer1"
     transform="translate(0,1048)">
    <path
       style="fill:none;stroke:#000000;stroke-width:130;stroke-linecap:round;stroke-linejoin:round;stroke-miterlimit:4;stroke-dasharray:none;stroke-dashoffset:0;stroke-opacity:1"
       d="m -1796.5052,-8.1764224 c 95.2901,-198.0535976 288.1356,-216.9199176 348.052,-14.2972496 109.1403,480.413012 -444.7619,344.243652 -380.3593,-125.172108 102.5264,-583.01385 631.462,-443.4038 675.4256,-14.44105 -19.8282,531.85681 -43.8282,563.85681 9.195,5.44411 266.17088,-889.82638 1062.331677,-68.4194 390.45048,396.38722 -295.31438,204.29813 -441.31168,101.36479 -762.94868,207.09539 -560.7208,184.32371 -92.104,424.48553 280.6748,235.79131 156.2504,-79.09124 353.69658,-209.0706 507.30398,-230.39919 343.4011,-47.6817 371.4962,109.53797 303.1195,278.30622 -56.7216,140.0013 -338.9125,134.12406 -362.8849,-196.40364"
       id="path3925"
       inkscape:connector-curvature="0"
       sodipodi:nodetypes="cccccsssssc" />
    <g
       id="layer1-1"
       inkscape:label="Layer 1"
       transform="translate(-152.86209,6.172781)">
      <path
         sodipodi:nodetypes="csscccc"
         inkscape:connector-curvature="0"
         id="path3925-6"
         d="M 407.73521,-269.83708 C 624,-248 733.1349,-42.507743 709.14373,87.322494 657.59145,366.30198 202,520 266.40265,-141.41576 337.62443,-872.864 1056,-536 961.15769,339.52784 1008,-1400 2352,-200 1087.1212,530.94511 628.36141,820.77519 1057.4003,585.93595 1343.231,474.36953 2064,184 1776,1288 1207.9081,646.27487"
         style="fill:none;stroke:#000000;stroke-width:130;stroke-linecap:round;stroke-linejoin:round;stroke-miterlimit:4;stroke-dasharray:none;stroke-dashoffset:0;stroke-opacity:1" />
    </g>
  </g>
</svg>
