<?xml version="1.0" encoding="UTF-8" standalone="no"?>
<!-- Created with Inkscape (http://www.inkscape.org/) -->

<svg
   xmlns:dc="http://purl.org/dc/elements/1.1/"
   xmlns:cc="http://creativecommons.org/ns#"
   xmlns:rdf="http://www.w3.org/1999/02/22-rdf-syntax-ns#"
   xmlns:svg="http://www.w3.org/2000/svg"
   xmlns="http://www.w3.org/2000/svg"
   xmlns:sodipodi="http://sodipodi.sourceforge.net/DTD/sodipodi-0.dtd"
   xmlns:inkscape="http://www.inkscape.org/namespaces/inkscape"
   width="2000"
   height="2048"
   id="svg2992"
   version="1.1"
   inkscape:version="0.92.0 r15299"
   sodipodi:docname="മ.svg">
  <defs
     id="defs5498">
    <inkscape:path-effect
       effect="spiro"
       id="path-effect3006"
       is_visible="true" />
  </defs>
  <sodipodi:namedview
     inkscape:window-height="1685"
     inkscape:window-width="3200"
     inkscape:pageshadow="2"
     inkscape:pageopacity="0.0"
     borderopacity="1.0"
     bordercolor="#666666"
     pagecolor="#ffffff"
     id="base"
     showgrid="true"
     showguides="true"
     inkscape:guide-bbox="true"
     inkscape:zoom="0.227"
     inkscape:cx="-2722.0322"
     inkscape:cy="1504.7372"
     inkscape:window-x="0"
     inkscape:window-y="0"
     inkscape:current-layer="layer1"
     inkscape:window-maximized="1">
    <sodipodi:guide
       orientation="horizontal"
       position="0,600"
       id="guide5596"
       inkscape:locked="false" />
    <inkscape:grid
       type="xygrid"
       id="grid3769"
       empspacing="3"
       visible="true"
       enabled="true"
       snapvisiblegridlinesonly="true"
       spacingx="4"
       units="px"
       dotted="true"
       spacingy="4"
       originx="0"
       originy="0" />
    <sodipodi:guide
       orientation="0,1"
       position="-1040,1600"
       id="guide2985"
       inkscape:locked="false" />
  </sodipodi:namedview>
  <metadata
     id="metadata5594">
    <rdf:RDF>
      <cc:Work
         rdf:about="">
        <dc:format>image/svg+xml</dc:format>
        <dc:type
           rdf:resource="http://purl.org/dc/dcmitype/StillImage" />
        <dc:title />
      </cc:Work>
    </rdf:RDF>
  </metadata>
  <g
     inkscape:label="Layer 1"
     inkscape:groupmode="layer"
     id="layer1"
     transform="translate(0,1048)">
    <path
       style="fill:none;stroke:#000000;stroke-width:130;stroke-linecap:round;stroke-linejoin:round;stroke-miterlimit:4;stroke-dasharray:none;stroke-opacity:1"
       d="m 339.17701,-1122.1211 c -732.90388,-301.7115 -204.90597,-680.214 246.57784,-682.7912 988.51825,-2.9203 465.91815,709.1658 -248.46131,869.89212 -306.938172,67.80711 -513.23395,41.56587 99.92986,47.05253 450.12171,15.24464 718.2656,-12.27024 717.0465,-0.90011"
       id="path3880"
       inkscape:connector-curvature="0"
       sodipodi:nodetypes="ccccc" />
    <path
       style="fill:none;stroke:#000000;stroke-width:130;stroke-linecap:round;stroke-linejoin:round;stroke-miterlimit:4;stroke-dasharray:none;stroke-opacity:1"
       d="m -1416.77,-1210.685 c -732.9039,-301.7115 -204.906,-680.214 246.5778,-682.7912 978.1922,-16.5238 427.33005,737.494 -307.2554,882.0369 -271.6454,52.36207 -414.293,29.78036 158.724,34.90778 1185.04965,40.13505 485.73995,10.2608 665.46995,-548.43938"
       id="path3880-1"
       inkscape:connector-curvature="0"
       sodipodi:nodetypes="ccccc" />
    <path
       style="fill:none;stroke:#000000;stroke-width:130;stroke-linecap:round;stroke-linejoin:round;stroke-miterlimit:4;stroke-dasharray:none;stroke-opacity:1"
       d="m 1293.3532,-945.47791 c -391.08007,-478.35469 -41.9104,-852.02019 409.5734,-854.59739 927.3465,-23.7573 415.94,745.751 -325.867,885.54689 -259.2424,47.82356 -382.44447,26.38879 177.3356,31.39777 1185.0497,40.13505 485.74,10.2608 665.47,-548.43936"
       id="path3880-0"
       inkscape:connector-curvature="0"
       sodipodi:nodetypes="ccccc" />
    <path
       style="fill:none;stroke:#000000;stroke-width:130;stroke-linecap:round;stroke-linejoin:round;stroke-miterlimit:4;stroke-dasharray:none;stroke-opacity:1"
       d="M 480.47559,137.17483 C -384,-630 1632,-950 1107.5379,-69.326769 912,154 684.76722,185.56423 543.09572,239.11507 75.079803,341.64227 312.614,340.10337 454.53422,343.19587 1659.0798,341.64227 1395.8947,312.59319 1267.9485,-23.265629 1009.7273,-701.09609 2524.9541,-856.59752 2046.4454,-53.088885 1850.9075,170.23789 1623.6747,201.80212 1482.0032,255.35296 c -468.0159,102.52723 -230.4817,100.98833 -88.5615,104.08083 1204.5456,-1.5536 631.6606,109.3118 760.4404,-475.63444"
       id="path3880-2-4"
       inkscape:connector-curvature="0"
       sodipodi:nodetypes="ccccscccc" />
    <path
       style="fill:none;stroke:#000000;stroke-width:130;stroke-linecap:round;stroke-linejoin:round;stroke-miterlimit:4;stroke-dasharray:none;stroke-opacity:1"
       d="m -1502.4671,127.63295 c -864.4756,-767.1748 1151.5244,-1087.1748 627.06227,-206.50157 -195.53787,223.32677 -422.77067,254.89097 -564.44217,308.44187 -468.0159,102.5272 -230.4817,100.9883 -88.5615,104.0808 1204.5456,-1.5536 631.66057,109.3118 760.4404,-475.63443"
       id="path3880-2-4-50"
       inkscape:connector-curvature="0"
       sodipodi:nodetypes="ccccc" />
    <path
       style="fill:none;stroke:#000000;stroke-width:130;stroke-linecap:round;stroke-linejoin:round;stroke-miterlimit:4;stroke-dasharray:none;stroke-opacity:1"
       d="m -3768,280 c -450.853,-383.42236 -19.4838,-909.42279 432,-912 978.1922,-16.52379 414.3915,800.9887 -320.1939,945.5316 -271.6454,52.36207 -396.8231,33.34098 176.1939,38.4684 1830.2366,146.70973 -232.7544,-663.59625 72,-1368"
       id="path3880-1-3"
       inkscape:connector-curvature="0"
       sodipodi:nodetypes="ccccc" />
    <path
       style="color:#000000;font-style:normal;font-variant:normal;font-weight:normal;font-stretch:normal;font-size:medium;line-height:normal;font-family:sans-serif;font-variant-ligatures:normal;font-variant-position:normal;font-variant-caps:normal;font-variant-numeric:normal;font-variant-alternates:normal;font-feature-settings:normal;text-indent:0;text-align:start;text-decoration:none;text-decoration-line:none;text-decoration-style:solid;text-decoration-color:#000000;letter-spacing:normal;word-spacing:normal;text-transform:none;writing-mode:lr-tb;direction:ltr;text-orientation:mixed;dominant-baseline:auto;baseline-shift:baseline;text-anchor:start;white-space:normal;shape-padding:0;clip-rule:nonzero;display:inline;overflow:visible;visibility:visible;opacity:1;isolation:auto;mix-blend-mode:normal;color-interpolation:sRGB;color-interpolation-filters:linearRGB;solid-color:#000000;solid-opacity:1;vector-effect:none;fill:#000000;fill-opacity:1;fill-rule:nonzero;stroke:none;stroke-width:130;stroke-linecap:round;stroke-linejoin:round;stroke-miterlimit:4;stroke-dasharray:none;stroke-dashoffset:0;stroke-opacity:1;color-rendering:auto;image-rendering:auto;shape-rendering:auto;text-rendering:auto;enable-background:accumulate"
       d="m -5664.0723,-745.84961 a 65.0065,65.0065 0 0 0 -59.5839,40.03906 c -52.0473,120.30115 -44.0606,242.21734 -2.8106,358.94336 -198.9509,40.63165 -376.65,165.72265 -475.6367,330.591799 -60.4081,100.613878 -90.8235,218.216981 -72.332,338.275391 15.6537,101.63468 66.6827,202.8563 156.0605,294.58594 -5.5571,0.7564 -13.5623,1.82188 -17.8984,2.45312 -5.7581,0.83825 -9.8905,1.40109 -15.8789,2.69532 -2.9943,0.64711 -4.0228,-0.65578 -17.3086,5.86523 -3.3215,1.63025 -7.765,3.65221 -14.8985,10.02539 -7.1334,6.37318 -20.3169,20.28502 -21.6777,45.04102 -1.3608,24.75599 13.7354,45.48843 22.9844,53.31445 9.2489,7.82602 14.9571,9.6724 19.0547,11.23437 16.3901,6.24791 16.6898,4.12065 19.9257,4.4043 3.2359,0.28365 5.7362,0.38688 8.5118,0.48047 5.5511,0.18718 11.9214,0.2521 20.1425,0.28125 16.4422,0.0583 39.941,-0.0696 72.1914,-0.19141 64.1468,-0.24231 162.9839,-0.45658 304.6387,0.79883 229.3054,18.3038 398.9355,21.97124 523.8145,12.03906 125.3667,-9.97097 208.5094,-29.07501 264.4394,-83.05859 27.965,-26.99179 44.7454,-65.87753 45.6367,-102.79687 0.8914,-36.91935 -10.3662,-70.50474 -26.3496,-102.70899 -31.9667,-64.40849 -85.3329,-127.58122 -148.9179,-197.14844 -10.4721,-11.45723 -21.6131,-23.28291 -32.6094,-35.02929 23.7509,-32.56803 44.2396,-65.61141 60.873,-98.78516 31.2167,-62.258665 49.2384,-126.314958 46.9063,-190.076172 -2.3322,-63.761218 -27.2219,-126.690368 -74.2813,-175.904298 -94.0576,-98.36406 -260.3236,-144.72536 -513.539,-140.51172 -0.3039,0.002 -0.6063,0.0192 -0.9102,0.0215 -42.2889,-101.29501 -51.5772,-199.00952 -10.8184,-293.21875 a 65.0065,65.0065 0 0 0 -59.7285,-91.66016 z m 140.7598,515.35352 c 193.0659,5.67362 303.2102,50.63523 350.2793,99.85937 26.1647,27.36269 37.0254,55.301581 38.3242,90.810548 1.2988,35.5089669 -9.1681,79.127002 -33.2012,127.058594 -9.8736,19.692088 -22.1546,39.889998 -36.4082,60.332028 -100.6266,-105.26087 -207.7499,-218.387546 -289.0234,-333.50195 -10.5441,-14.93451 -20.4269,-29.77083 -29.9707,-44.55859 z m -147.4551,6.10547 c 21.3133,38.80181 45.3202,76.73821 71.2266,113.43164 91.6844,129.860343 207.4641,251.06601 310.6426,358.56054 -145.9194,147.13077 -381.5669,288.10622 -635.7989,338.14258 -13.2026,2.54383 -25.7654,4.79564 -38.205,7.00781 a 65.0065,65.0065 0 0 0 -18.9883,-26.26757 c -103.2294,-87.79013 -150.7402,-177.78869 -164.0606,-264.27344 -13.3204,-86.48475 7.7897,-172.43414 55.3028,-251.570315 82.5126,-137.430421 246.723,-247.627875 419.8808,-275.031245 z m 473.4121,568.43554 c 7.1173,7.63718 14.6286,15.52941 21.4336,22.97461 60.8519,66.5769 108.0858,126.25002 128.4278,167.23633 10.171,20.49315 12.9936,35.24363 12.8359,41.77734 -0.1577,6.53372 0.4447,6.21951 -5.957,12.39844 -12.8035,12.35786 -71.1442,37.9928 -184.4668,47.00586 -95.517,7.59689 -228.6464,6.48867 -403.8203,-4.89648 171.0996,-71.58685 321.0078,-173.14901 431.5468,-286.4961 z m -933.414,277.67969 c 0.4334,0.0392 1.445,0.32732 2.1543,0.48242 -0.5947,-0.0146 -2.1043,-0.0177 -2.5645,-0.0332 -1.4557,-0.0491 -2.2944,-0.12286 -1.5391,-0.0566 0.3777,0.0331 0.2361,-0.54766 1.9493,-0.39258 z m 9.3711,126.56055 c -2.632,0.85113 -2.9148,0.43389 -3.293,0.51562 -0.5775,0.1248 2.1628,-0.3253 3.293,-0.51562 z"
       id="path3880-1-3-6"
       inkscape:connector-curvature="0" />
  </g>
</svg>
