<?xml version="1.0" encoding="UTF-8" standalone="no"?>
<!-- Created with Inkscape (http://www.inkscape.org/) -->

<svg
   xmlns:dc="http://purl.org/dc/elements/1.1/"
   xmlns:cc="http://creativecommons.org/ns#"
   xmlns:rdf="http://www.w3.org/1999/02/22-rdf-syntax-ns#"
   xmlns:svg="http://www.w3.org/2000/svg"
   xmlns="http://www.w3.org/2000/svg"
   xmlns:sodipodi="http://sodipodi.sourceforge.net/DTD/sodipodi-0.dtd"
   xmlns:inkscape="http://www.inkscape.org/namespaces/inkscape"
   width="2133.3333"
   height="2184.5334"
   id="svg2992"
   version="1.1"
   inkscape:version="0.92.0 r15299"
   sodipodi:docname="യ.svg"
   viewBox="0 0 2000 2048">
  <defs
     id="defs5498">
    <inkscape:path-effect
       effect="spiro"
       id="path-effect6255"
       is_visible="true" />
  </defs>
  <sodipodi:namedview
     inkscape:window-height="1685"
     inkscape:window-width="3200"
     inkscape:pageshadow="2"
     inkscape:pageopacity="0.0"
     borderopacity="1.0"
     bordercolor="#666666"
     pagecolor="#ffffff"
     id="base"
     showgrid="true"
     showguides="true"
     inkscape:guide-bbox="true"
     inkscape:zoom="0.227"
     inkscape:cx="-305.4299"
     inkscape:cy="796.93024"
     inkscape:window-x="0"
     inkscape:window-y="0"
     inkscape:current-layer="layer1"
     inkscape:window-maximized="1">
    <sodipodi:guide
       orientation="horizontal"
       position="0,600"
       id="guide5596"
       inkscape:locked="false" />
    <inkscape:grid
       type="xygrid"
       id="grid3769"
       empspacing="3"
       visible="true"
       enabled="true"
       snapvisiblegridlinesonly="true"
       spacingx="4.0000002"
       units="px"
       dotted="true"
       spacingy="3.9999998"
       originx="0"
       originy="0" />
    <sodipodi:guide
       orientation="0,1"
       position="-1040,1600"
       id="guide2985"
       inkscape:locked="false" />
  </sodipodi:namedview>
  <metadata
     id="metadata5594">
    <rdf:RDF>
      <cc:Work
         rdf:about="">
        <dc:format>image/svg+xml</dc:format>
        <dc:type
           rdf:resource="http://purl.org/dc/dcmitype/StillImage" />
        <dc:title />
      </cc:Work>
    </rdf:RDF>
  </metadata>
  <g
     inkscape:label="Layer 1"
     inkscape:groupmode="layer"
     id="layer1"
     transform="translate(0,1048)">
    <path
       style="fill:none;fill-rule:evenodd;stroke:#000000;stroke-width:130;stroke-linecap:round;stroke-linejoin:round;stroke-miterlimit:4;stroke-dasharray:none;stroke-opacity:1"
       d="m -910.82569,-369.87956 c -13.18501,-25.30062 -17.1336,-55.2896 -10.947,-83.14084 6.18659,-27.85125 22.46029,-53.34825 45.11686,-70.68738 17.87634,-13.68081 39.46687,-22.26143 61.73911,-25.52877 22.27224,-3.26734 45.19479,-1.30091 66.86571,4.79002 43.34184,12.18186 80.85719,40.4327 110.58419,74.24421 64.1522,72.96676 94.28965,172.36711 92.02571,269.49861 -2.26393,97.1315 -35.18422,191.9419859 -84.40979,275.706516 -58.81247,100.078054 -143.81773,187.868524 -250.78453,232.953204 -95.2639,40.1521 -205.28667,44.08361 -303.17347,10.83346 -97.8868,-33.25014 -182.7521,-103.38112 -233.8507,-193.24955 -51.0986,-89.868437 -67.9682,-198.661287 -46.4851,-299.78437 21.4831,-101.12308 81.1246,-193.66152 164.3452,-254.99449 26.7659,-34.3505 65.0864,-59.53174 107.2381,-70.46848 42.1516,-10.93674 87.881,-7.56325 127.9714,9.44057 35.6731,15.13027 66.47514,40.60711 90.50576,71.0049 24.03062,30.39779 41.49644,65.61979 54.14343,102.24697 25.29398,73.25434 31.53157,151.43728 43.28498,228.039117 14.21122,92.6204153 37.36706,185.509852 85.42026,265.954803 24.0266,40.22247 54.2042,76.99411 90.51683,106.60015 36.31263,29.60604 78.86095,51.93065 124.4557,62.71228 45.81632,10.83402 94.20397,9.85283 139.91253,-1.42721 45.70856,-11.28005 88.72377,-32.73713 126.13449,-61.31946 74.82144,-57.16467 125.94415,-141.80101 152.73575,-232.068705 32.38307,-109.106807 30.57873,-228.095935 -5.09768,-336.170685 -35.67641,-108.07476 -105.06586,-204.75346 -196.04062,-273.13878"
       id="path6253"
       inkscape:path-effect="#path-effect6255"
       inkscape:original-d="m -910.82569,-369.87956 c 0,-120.38729 -136.67941,-153.82822 34.16986,-153.82822 170.84929,0 222.1041,-247.46277 239.18901,53.50546 17.08491,300.96826 93.04057,324.49508 7.61592,545.205126 C -715.27555,295.71286 -766.51011,256.0262 -880.63543,307.95601 -1362.6063,531.54767 -1770.6063,3.5476666 -1299.7995,-429.23894 c 136.6795,-33.44093 56.3108,-122.18642 235.2095,-61.02791 279.76912,95.64222 68.33966,140.45184 187.93417,401.290987 119.5945,260.839163 95.37363,455.331793 300.39279,435.267233 205.01907,-20.06455 430.92807,120.88647 418.78277,-294.815375 -14.1453,-484.158485 -64.4589,-609.309465 -201.1383,-609.309465"
       inkscape:connector-curvature="0"
       sodipodi:nodetypes="csssccssssc" />
    <path
       style="fill:none;fill-rule:evenodd;stroke:#000000;stroke-width:130;stroke-linecap:round;stroke-linejoin:round;stroke-miterlimit:4;stroke-dasharray:none;stroke-opacity:1"
       d="M 991.11997,-359.41457 C 1104,-728 1488,-488 1399.3605,-62.939653 1286.3795,478.8472 585.09679,494.2575 406.11157,136.28706 151.18767,-373.56075 558.50987,-664.02397 858.33522,-353.34502 960,-248 1077.5064,246.07418 1307.3701,325.90916 1728,472 2112,40 1649.9804,-553.27488"
       id="path4141"
       inkscape:connector-curvature="0"
       sodipodi:nodetypes="cssssc" />
    <path
       style="fill:none;fill-rule:evenodd;stroke:#000000;stroke-width:130;stroke-linecap:round;stroke-linejoin:round;stroke-miterlimit:4;stroke-dasharray:none;stroke-opacity:1"
       d="m -3240.0002,-343.99984 c 91.9754,-397.86335 657.2816,-345.0326 552.0001,287.999985 -105.2816,633.032595 -914.1958,490.029675 -1008.0001,47.9999979 -93.8043,-442.0296729 238.9277,-758.2548029 480,-239.9999929 241.0723,518.25481 658.5673,831.88743 864.0001,470.24997 205.4328,-361.63746 -336,-1142.24993 0,-1247.99992"
       id="path4141-3"
       inkscape:connector-curvature="0"
       sodipodi:nodetypes="czzzzc" />
    <path
       style="color:#000000;font-style:normal;font-variant:normal;font-weight:normal;font-stretch:normal;font-size:medium;line-height:normal;font-family:sans-serif;font-variant-ligatures:normal;font-variant-position:normal;font-variant-caps:normal;font-variant-numeric:normal;font-variant-alternates:normal;font-feature-settings:normal;text-indent:0;text-align:start;text-decoration:none;text-decoration-line:none;text-decoration-style:solid;text-decoration-color:#000000;letter-spacing:normal;word-spacing:normal;text-transform:none;writing-mode:lr-tb;direction:ltr;text-orientation:mixed;dominant-baseline:auto;baseline-shift:baseline;text-anchor:start;white-space:normal;shape-padding:0;clip-rule:nonzero;display:inline;overflow:visible;visibility:visible;opacity:1;isolation:auto;mix-blend-mode:normal;color-interpolation:sRGB;color-interpolation-filters:linearRGB;solid-color:#000000;solid-opacity:1;vector-effect:none;fill:#000000;fill-opacity:1;fill-rule:evenodd;stroke:none;stroke-width:130;stroke-linecap:round;stroke-linejoin:round;stroke-miterlimit:4;stroke-dasharray:none;stroke-dashoffset:0;stroke-opacity:1;color-rendering:auto;image-rendering:auto;shape-rendering:auto;text-rendering:auto;enable-background:accumulate"
       d="m -2066.3184,925.04688 a 65.0065,65.0065 0 0 0 -17.1953,3.20117 c -55.3061,17.40661 -100.1155,53.85945 -125.4394,99.75195 -25.3239,45.8925 -33.0797,97.5715 -32.9082,151.2168 0.3428,107.2905 32.098,228.4497 66.0976,355.8379 33.9997,127.3881 71.0145,260.0823 86.7422,379.0215 15.7277,118.9392 8.8448,221.0534 -31.4961,292.0683 -44.6949,78.6794 -92.0934,110.676 -143.1347,120.17 -51.0414,9.494 -113.9774,-5.1943 -185.0645,-48.6778 -5.2333,-3.2011 -10.5416,-6.8682 -15.8242,-10.3711 62.6026,-75.6683 108.4106,-174.8457 128.6601,-296.6015 55.7777,-335.3777 -70.4915,-549.5226 -247.1836,-603.4219 -149.0944,-45.4808 -316.8206,30.0096 -397.248,191.6953 -33.2089,-39.3806 -68.246,-69.5002 -105.3535,-90.6855 -81.3501,-46.4443 -176.0061,-40.9608 -244.6231,6 -137.2339,93.9214 -192.0902,307.8818 -141.2949,547.2421 54.4829,256.7373 307.2228,417.3551 559.8867,430.5664 121.3587,6.3457 245.59,-21.9382 349.1504,-94.2558 15.2413,11.0056 30.5746,21.2964 45.9942,30.7285 89.0997,54.5018 184.1233,82.8048 276.6738,65.5898 92.5505,-17.2149 174.3749,-81.6282 232.3965,-183.7675 62.3755,-109.8038 64.8509,-240.8795 47.3379,-373.3203 -17.5131,-132.4409 -56.3362,-269.3155 -90.0157,-395.504 -33.6794,-126.1884 -61.4451,-242.6127 -61.7011,-322.7304 -0.128,-40.0589 6.547,-69.5411 16.7285,-87.9922 10.1815,-18.4511 21.9526,-29.5258 50.6465,-38.5566 a 65.0065,65.0065 0 0 0 -21.8321,-127.20512 z m -614.125,558.35932 c 20.1485,-0.4731 40.2053,2.3094 59.4493,8.1797 102.6344,31.3084 206.3788,160.0951 156.875,457.75 -17.1422,103.072 -53.2346,179.492 -100.8497,236.0801 -108.6249,-104.5667 -218.4821,-260.7789 -304.0957,-444.8301 -7.306,-15.7064 -14.7252,-30.7032 -22.2382,-45.1523 a 65.0065,65.0065 0 0 0 2.6328,-8.793 c 31.9015,-137.9982 120.9167,-201.1842 208.2265,-203.2344 z m -527.9004,79.6446 c 16.8265,-0.5514 35.269,4.993 58.2227,18.0976 45.9073,26.2093 106.3953,92.1785 163.1856,214.2657 88.8617,191.0341 199.8154,355.7805 320.8339,474.2207 -70.8489,40.2381 -153.9296,57.0397 -238.8086,52.6015 -201.5646,-10.5394 -400.1844,-142.438 -439.5058,-327.7304 -43.009,-202.6694 21.5997,-367.8378 87.5488,-412.9727 16.4873,-11.2837 31.697,-17.931 48.5234,-18.4824 z"
       id="path4141-3-6"
       inkscape:connector-curvature="0" />
  </g>
</svg>
