<?xml version="1.0" encoding="UTF-8" standalone="no"?>
<!-- Created with Inkscape (http://www.inkscape.org/) -->

<svg
   xmlns:dc="http://purl.org/dc/elements/1.1/"
   xmlns:cc="http://creativecommons.org/ns#"
   xmlns:rdf="http://www.w3.org/1999/02/22-rdf-syntax-ns#"
   xmlns:svg="http://www.w3.org/2000/svg"
   xmlns="http://www.w3.org/2000/svg"
   xmlns:sodipodi="http://sodipodi.sourceforge.net/DTD/sodipodi-0.dtd"
   xmlns:inkscape="http://www.inkscape.org/namespaces/inkscape"
   width="2000"
   height="2048"
   id="svg2992"
   version="1.1"
   inkscape:version="0.91pre2 r13516"
   sodipodi:docname="ശ്ര.svg">
  <defs
     id="defs5498" />
  <sodipodi:namedview
     inkscape:window-height="857"
     inkscape:window-width="1600"
     inkscape:pageshadow="2"
     inkscape:pageopacity="0.0"
     borderopacity="1.0"
     bordercolor="#666666"
     pagecolor="#ffffff"
     id="base"
     showgrid="true"
     showguides="true"
     inkscape:guide-bbox="true"
     inkscape:zoom="0.32102648"
     inkscape:cx="284.92356"
     inkscape:cy="909.11507"
     inkscape:window-x="1593"
     inkscape:window-y="-12"
     inkscape:current-layer="layer1"
     inkscape:window-maximized="1">
    <sodipodi:guide
       orientation="horizontal"
       position="0,600"
       id="guide5596" />
    <inkscape:grid
       type="xygrid"
       id="grid3769"
       empspacing="3"
       visible="true"
       enabled="true"
       snapvisiblegridlinesonly="true"
       spacingx="4px"
       units="px"
       dotted="true"
       spacingy="4px" />
    <sodipodi:guide
       orientation="0,1"
       position="-1040,1600"
       id="guide2985" />
  </sodipodi:namedview>
  <metadata
     id="metadata5594">
    <rdf:RDF>
      <cc:Work
         rdf:about="">
        <dc:format>image/svg+xml</dc:format>
        <dc:type
           rdf:resource="http://purl.org/dc/dcmitype/StillImage" />
        <dc:title></dc:title>
      </cc:Work>
    </rdf:RDF>
  </metadata>
  <g
     inkscape:label="Layer 1"
     inkscape:groupmode="layer"
     id="layer1"
     transform="translate(0,1048)">
    <path
       style="fill:none;stroke:#000000;stroke-width:130;stroke-linecap:round;stroke-linejoin:round;stroke-miterlimit:4;stroke-dasharray:none;stroke-opacity:1"
       d="M 243.26056,-543.1005 C 128.14788,-378.69951 68.3375,-130.70952 134.6773,82.027009 177.21735,227.26598 289.46531,329.35894 408.94408,333.9999 c 51.56399,1.51162 100.32727,-33.88605 142.93956,-69.00113 88.55375,-77.47541 110.61587,-222.45344 126.10795,-350.292274 15.34287,-131.483736 49.35914,-270.371886 135.32303,-352.875886 84.421,-85.87824 198.22288,-116.58435 303.45988,-98.7914 136.1711,26.02482 254.0202,164.53328 291.8491,335.28656 18.1186,156.02316 16.3944,338.70735 -70.513,462.02045 C 1245.027,393.95394 1067.5444,370.4879 982.7465,235.26389 941.01068,175.61815 940.85389,89.151336 933.87472,13.318428 924.2015,-156.63573 1045.988,-266.95931 1266.7054,-207.1114 1824,-56 1728,568 1344,712 192,1096 -609.72378,24.219127 8.7797807,-600.28468"
       id="path3916"
       inkscape:connector-curvature="0"
       sodipodi:nodetypes="cccccccccccscc" />
  </g>
</svg>
