<?xml version="1.0" encoding="UTF-8" standalone="no"?>
<!-- Created with Inkscape (http://www.inkscape.org/) -->

<svg
   xmlns:dc="http://purl.org/dc/elements/1.1/"
   xmlns:cc="http://creativecommons.org/ns#"
   xmlns:rdf="http://www.w3.org/1999/02/22-rdf-syntax-ns#"
   xmlns:svg="http://www.w3.org/2000/svg"
   xmlns="http://www.w3.org/2000/svg"
   xmlns:sodipodi="http://sodipodi.sourceforge.net/DTD/sodipodi-0.dtd"
   xmlns:inkscape="http://www.inkscape.org/namespaces/inkscape"
   width="2000"
   height="2048"
   id="svg2992"
   version="1.1"
   inkscape:version="0.48.5 r10040"
   sodipodi:docname="േ.svg">
  <defs
     id="defs5498">
    <inkscape:path-effect
       effect="spiro"
       id="path-effect3891"
       is_visible="true" />
  </defs>
  <sodipodi:namedview
     inkscape:window-height="857"
     inkscape:window-width="1600"
     inkscape:pageshadow="2"
     inkscape:pageopacity="0.0"
     borderopacity="1.0"
     bordercolor="#666666"
     pagecolor="#ffffff"
     id="base"
     showgrid="true"
     showguides="true"
     inkscape:guide-bbox="true"
     inkscape:zoom="0.32102648"
     inkscape:cx="755.98086"
     inkscape:cy="898.50156"
     inkscape:window-x="1593"
     inkscape:window-y="-12"
     inkscape:current-layer="layer1"
     inkscape:window-maximized="1">
    <sodipodi:guide
       orientation="horizontal"
       position="0,600"
       id="guide5596" />
    <inkscape:grid
       type="xygrid"
       id="grid3769"
       empspacing="3"
       visible="true"
       enabled="true"
       snapvisiblegridlinesonly="true"
       spacingx="4px"
       units="px"
       dotted="true"
       spacingy="4px" />
    <sodipodi:guide
       orientation="0,1"
       position="-1040,1600"
       id="guide2985" />
  </sodipodi:namedview>
  <metadata
     id="metadata5594">
    <rdf:RDF>
      <cc:Work
         rdf:about="">
        <dc:format>image/svg+xml</dc:format>
        <dc:type
           rdf:resource="http://purl.org/dc/dcmitype/StillImage" />
        <dc:title></dc:title>
      </cc:Work>
    </rdf:RDF>
  </metadata>
  <g
     inkscape:label="Layer 1"
     inkscape:groupmode="layer"
     id="layer1"
     transform="translate(0,1048)">
    <path
       style="fill:none;stroke:#000000;stroke-width:130;stroke-linecap:round;stroke-linejoin:round;stroke-miterlimit:4;stroke-opacity:1;stroke-dasharray:none"
       d="m 391.00714,-390.5336 c 2.95907,33.26325 18.63363,65.23714 43.1154,87.94932 24.48177,22.71218 57.53969,35.9483 90.93114,36.40808 33.72714,0.4644 67.54958,-12.17419 92.38532,-34.99789 24.83574,-22.8237 40.32149,-55.65579 41.66122,-89.35951 1.15172,-28.9738 -7.95615,-58.01483 -24.15168,-82.0671 -16.19554,-24.05228 -39.25973,-43.17522 -65.21268,-56.1078 -52.77619,-26.29882 -116.45834,-26.46671 -172.04869,-6.80285 -55.59034,19.66385 -103.40721,57.87204 -140.72658,103.52528 -48.51179,59.34507 -80.36821,131.65224 -94.69042,206.95234 -14.32221,75.3001 -11.37152,153.489346 5.32606,228.2985788 14.38321,64.4402572 39.10891,126.9719912 76.43384,181.4355012 37.32492,54.4635 87.55837,100.66841 146.97707,129.45802 54.21671,26.26914 116.85281,37.5931 175.66403,24.52559 29.40561,-6.53375 57.56028,-19.10617 81.47088,-37.42728 23.9106,-18.32111 43.49563,-42.43723 55.64035,-70.00325 11.40294,-25.88235 16.14708,-54.45306 15.53546,-82.72936 -0.61162,-28.27631 -6.47718,-56.287401 -15.53546,-83.080515 -14.90285,-44.080533 -38.87831,-85.59585 -72.72892,-117.522717 -33.85061,-31.926867 -77.95234,-53.798758 -124.35532,-57.255808 -46.40299,-3.45704 -94.73361,12.549255 -127.13198,45.948869 -16.19918,16.699808 -28.2751,37.460351 -34.26193,59.9426761 -5.98684,22.4823249 -5.80978,46.6464389 1.0207,68.8869799 7.62675,24.833243 23.57792,47.030535 44.68219,62.178705"
       id="path3889"
       inkscape:path-effect="#path-effect3891"
       inkscape:original-d="m 391.00714,-390.5336 c 0,41.45246 44.68218,165.80987 134.04654,124.3574 89.36436,-41.45247 178.72872,-41.45247 134.04654,-124.3574 -44.68218,-82.90494 44.68218,-138.1749 -89.36436,-138.1749 -134.04654,0 -275.94985,-22.8502 -312.77527,96.72243 -44.68218,145.08364 -89.36436,269.44105 -89.36436,435.2509188 0,165.8098812 0,290.1672812 223.41091,310.8935212 223.4109,20.72623 312.77526,41.45247 312.77526,-82.90494 0,-124.35741 178.72873,-82.90494 0,-165.809875 -178.72872,-82.904941 -357.45745,-131.084196 -357.45745,0 0,124.357405 0,20.726235 44.68219,62.178705"
       inkscape:connector-curvature="0"
       sodipodi:nodetypes="csssssssssc" />
  </g>
</svg>
