<?xml version="1.0" encoding="UTF-8" standalone="no"?>
<svg
   xmlns:dc="http://purl.org/dc/elements/1.1/"
   xmlns:cc="http://creativecommons.org/ns#"
   xmlns:rdf="http://www.w3.org/1999/02/22-rdf-syntax-ns#"
   xmlns:svg="http://www.w3.org/2000/svg"
   xmlns="http://www.w3.org/2000/svg"
   xmlns:sodipodi="http://sodipodi.sourceforge.net/DTD/sodipodi-0.dtd"
   xmlns:inkscape="http://www.inkscape.org/namespaces/inkscape"
   version="1.1"
   id="svg2992"
   height="2048"
   width="4000"
   inkscape:version="0.91 r13725"
   sodipodi:docname="currency.svg">
  <sodipodi:namedview
     pagecolor="#ffffff"
     bordercolor="#666666"
     borderopacity="1"
     objecttolerance="10"
     gridtolerance="10"
     guidetolerance="10"
     inkscape:pageopacity="0"
     inkscape:pageshadow="2"
     inkscape:window-width="1600"
     inkscape:window-height="844"
     id="namedview33"
     showgrid="true"
     showguides="true"
     inkscape:guide-bbox="true"
     inkscape:snap-grids="false"
     inkscape:zoom="0.23122392"
     inkscape:cx="1384.9656"
     inkscape:cy="-609.48252"
     inkscape:window-x="1600"
     inkscape:window-y="0"
     inkscape:window-maximized="1"
     inkscape:current-layer="layer1-6">
    <inkscape:grid
       type="xygrid"
       id="grid4162" />
    <sodipodi:guide
       orientation="0,1"
       position="400,600"
       id="guide4164"
       inkscape:label=""
       inkscape:color="rgb(0,0,255)" />
    <sodipodi:guide
       orientation="0,1"
       position="-880,1600"
       id="guide4166" />
  </sodipodi:namedview>
  <defs
     id="defs5498">
    <inkscape:path-effect
       effect="spiro"
       id="path-effect4788"
       is_visible="true" />
    <inkscape:path-effect
       effect="spiro"
       id="path-effect4788-5"
       is_visible="true" />
    <inkscape:path-effect
       effect="spiro"
       id="path-effect4788-3"
       is_visible="true" />
    <inkscape:path-effect
       effect="spiro"
       id="path-effect4788-3-6"
       is_visible="true" />
    <inkscape:path-effect
       effect="spiro"
       id="path-effect4788-3-2"
       is_visible="true" />
  </defs>
  <metadata
     id="metadata5594">
    <rdf:RDF>
      <cc:Work
         rdf:about="">
        <dc:format>image/svg+xml</dc:format>
        <dc:type
           rdf:resource="http://purl.org/dc/dcmitype/StillImage" />
        <dc:title />
      </cc:Work>
    </rdf:RDF>
  </metadata>
  <g
     transform="translate(5944.9542,1347.6942)"
     id="layer1">
    <g
       id="layer1-6"
       transform="translate(-14814.53,16.043327)">
      <path
         inkscape:connector-curvature="0"
         id="path5416-9"
         d="m 7476.7634,-891.82085 c -98.4192,4.6492 -195.0738,45.3808 -270.3591,113.9331 -79.9849,72.8314 -135.3007,177.086 -150.9508,288.73979 -15.6502,111.65382 8.9743,229.7001 69.1554,322.08877 48.7848,74.893287 119.8072,132.096967 199.2684,164.1807966 79.4613,32.0839204 166.9977,39.3284304 250.6059,23.7663904 113.0348,-21.03928039 221.0087,-86.18273 286.2836,-187.947187 48.893,-76.22487 72.2487,-170.5589 67.8305,-263.13459 -4.4181,-92.57568 -36.158,-182.99227 -87.4953,-257.32287 -80.7523,-116.9203 -210.8362,-192.4812 -345.7601,-200.839"
         style="fill:none;fill-rule:evenodd;stroke:#000000;stroke-width:118.72421265;stroke-linecap:round;stroke-linejoin:round;stroke-miterlimit:4;stroke-dasharray:none;stroke-opacity:1" />
      <path
         style="fill:none;fill-rule:evenodd;stroke:#000000;stroke-width:120;stroke-linecap:round;stroke-linejoin:round;stroke-miterlimit:4;stroke-dasharray:none;stroke-opacity:1"
         d="m 6952.9494,-864.85185 171.5493,143.92917 m 718.5668,619.8545 157.9577,134.445028"
         id="path4154"
         inkscape:connector-curvature="0"
         sodipodi:nodetypes="cccc" />
      <path
         style="fill:none;fill-rule:evenodd;stroke:#000000;stroke-width:120;stroke-linecap:round;stroke-linejoin:round;stroke-miterlimit:4;stroke-dasharray:none;stroke-opacity:1"
         d="m 8032.7048,-871.06019 c -68.4971,59.47695 -130.507,108.14187 -199.004,167.61882 m -673.014,585.75757 -170.222,151.614778"
         id="path4154-9"
         inkscape:connector-curvature="0"
         sodipodi:nodetypes="cccc" />
      <path
         style="color:#000000;font-style:normal;font-variant:normal;font-weight:normal;font-stretch:normal;font-size:medium;line-height:normal;font-family:sans-serif;text-indent:0;text-align:start;text-decoration:none;text-decoration-line:none;text-decoration-style:solid;text-decoration-color:#000000;letter-spacing:normal;word-spacing:normal;text-transform:none;direction:ltr;block-progression:tb;writing-mode:lr-tb;baseline-shift:baseline;text-anchor:start;white-space:normal;clip-rule:nonzero;display:inline;overflow:visible;visibility:visible;opacity:1;isolation:auto;mix-blend-mode:normal;color-interpolation:sRGB;color-interpolation-filters:linearRGB;solid-color:#000000;solid-opacity:1;fill:#000000;fill-opacity:1;fill-rule:evenodd;stroke:none;stroke-width:118.72421265;stroke-linecap:round;stroke-linejoin:round;stroke-miterlimit:4;stroke-dasharray:none;stroke-dashoffset:0;stroke-opacity:1;color-rendering:auto;image-rendering:auto;shape-rendering:auto;text-rendering:auto;enable-background:accumulate"
         d="M -1238.6367 1849.498 A 59.368043 59.368043 0 0 0 -1242.7812 1849.6074 C -1355.6942 1854.9413 -1464.9749 1901.2452 -1550.3066 1978.9453 C -1561.2437 1988.9042 -1571.7496 1999.352 -1581.8086 2010.2402 L -1725.2305 1889.9082 A 60.006 60.006 0 0 0 -1763.7129 1875.3262 A 60.006 60.006 0 0 0 -1802.3594 1981.8379 L -1652.873 2107.2559 C -1687.0888 2166.9639 -1710.314 2233.6767 -1720.0781 2303.3379 C -1737.7148 2429.1646 -1710.6361 2560.506 -1641.875 2666.0664 C -1640.0805 2668.8213 -1638.2577 2671.5519 -1636.4121 2674.2637 L -1766.1855 2789.8516 A 60.006 60.006 0 1 0 -1686.373 2879.4609 L -1557.2324 2764.4375 C -1514.9757 2802.0915 -1466.7221 2832.044 -1415.0918 2852.8906 C -1324.4727 2889.4797 -1225.5929 2897.5052 -1131.3984 2879.9727 C -1044.0984 2863.7235 -959.48867 2824.4557 -890.67188 2763.9863 L -754.61133 2879.793 A 60.006 60.006 0 1 0 -676.83203 2788.4121 L -811.38867 2673.8848 C -809.57342 2671.1833 -807.77555 2668.4666 -806.01172 2665.7168 C -749.74012 2577.9886 -723.86892 2472.1451 -728.85352 2367.7012 C -733.2198 2276.2113 -760.97212 2187.5961 -806.64453 2110.8789 C -753.16016 2065.7146 -701.50976 2024.2966 -644.70117 1974.9688 A 60.006 60.006 0 0 0 -680.95703 1869.1523 A 60.006 60.006 0 0 0 -723.37891 1884.3613 C -776.38602 1930.3883 -826.18049 1970.4096 -879.10352 2015.002 C -968.71181 1920.4578 -1090.0911 1861.0278 -1217.7324 1853.1211 A 59.368043 59.368043 0 0 0 -1219.0156 1853.0879 A 59.368043 59.368043 0 0 0 -1238.6367 1849.498 z M -1241.3574 1968.4941 A 59.368043 59.368043 0 0 0 -1225.0723 1971.6172 C -1109.8344 1978.7555 -995.09393 2044.7114 -924.48633 2146.9434 C -879.43943 2212.1661 -851.30191 2292.4695 -847.44141 2373.3613 C -843.58961 2454.0688 -864.42896 2536.8936 -905.94336 2601.6152 C -961.37206 2688.0293 -1055.0739 2745.004 -1153.123 2763.2539 C -1226.1448 2776.8456 -1302.3392 2770.3814 -1370.6426 2742.8027 C -1421.4672 2722.2813 -1468.6884 2689.4459 -1506.8164 2647.3594 A 60.006 60.006 0 0 0 -1514.1309 2639.0273 C -1524.3044 2627.1024 -1533.7722 2614.5024 -1542.3945 2601.2656 C -1593.9956 2522.0487 -1616.1676 2417.2973 -1602.5039 2319.8164 C -1588.8178 2222.1744 -1539.5803 2129.7482 -1470.373 2066.7305 C -1406.2168 2008.3119 -1323.8882 1973.4093 -1241.3574 1968.4941 z "
         transform="translate(8869.5758,-1363.7375)"
         id="path5416-9-5" />
      <path
         style="fill:none;fill-rule:evenodd;stroke:#000000;stroke-width:130;stroke-linecap:round;stroke-linejoin:round;stroke-miterlimit:4;stroke-dasharray:none;stroke-opacity:1"
         d="m 9037.3893,-969.26835 c -109.0595,-69.28635 -248.9754,-87.79525 -372.2995,-49.24995 -63.0055,19.69256 -121.8538,53.8434 -167.8929,101.14981 -46.0391,47.3064 -78.8851,107.94793 -90.1534,172.99038 -10.6079,61.23067 -2.1988,124.17062 10.5725,184.98689 12.7712,60.81626 29.9157,120.88459 37.0004,182.62218 16.2533,141.63561 -23.3096,288.926674 -108.3429,403.356352 l 807.6628,4.324812"
         id="path4786"
         inkscape:path-effect="#path-effect4788"
         inkscape:original-d="m 9037.3893,-969.26835 c -105.456,-49.10565 -254.371,-91.23855 -372.2995,-49.24995 -118.2247,42.09383 -219.3766,154.75165 -258.0463,274.14019 -38.0729,117.54605 55.8274,244.32693 47.5729,367.60907 -9.3007,138.90684 -108.3429,403.356352 -108.3429,403.356352 l 807.6628,4.324812"
         inkscape:connector-curvature="0"
         sodipodi:nodetypes="caaacc" />
      <path
         style="fill:none;fill-rule:evenodd;stroke:#000000;stroke-width:130;stroke-linecap:round;stroke-linejoin:round;stroke-miterlimit:4;stroke-dasharray:none;stroke-opacity:1"
         d="m 8213.4344,-513.71045 506.6199,4.32482"
         id="path4790"
         inkscape:connector-curvature="0"
         sodipodi:nodetypes="cc" />
      <path
         style="color:#000000;font-style:normal;font-variant:normal;font-weight:normal;font-stretch:normal;font-size:medium;line-height:normal;font-family:sans-serif;text-indent:0;text-align:start;text-decoration:none;text-decoration-line:none;text-decoration-style:solid;text-decoration-color:#000000;letter-spacing:normal;word-spacing:normal;text-transform:none;direction:ltr;block-progression:tb;writing-mode:lr-tb;baseline-shift:baseline;text-anchor:start;white-space:normal;clip-rule:nonzero;display:inline;overflow:visible;visibility:visible;opacity:1;isolation:auto;mix-blend-mode:normal;color-interpolation:sRGB;color-interpolation-filters:linearRGB;solid-color:#000000;solid-opacity:1;fill:#000000;fill-opacity:1;fill-rule:evenodd;stroke:none;stroke-width:130;stroke-linecap:round;stroke-linejoin:round;stroke-miterlimit:4;stroke-dasharray:none;stroke-dashoffset:0;stroke-opacity:1;color-rendering:auto;image-rendering:auto;shape-rendering:auto;text-rendering:auto;enable-background:accumulate"
         d="m 9040.8967,746.25148 c -50.1655,0.2565 -100.3859,7.8203 -148.7598,22.9395 -72.429,22.6379 -140.6413,61.9142 -195.0839,117.8554 -54.626,56.1296 -93.8822,127.94812 -107.6172,207.22862 -10.797,62.3224 -5.1799,122.3755 4.8398,177.9082 l -133.8496,-1.1426 a 65.0065,65.0065 0 1 0 -1.1094,129.9961 l 163.3457,1.3945 c 5.8902,26.8616 10.9256,52.7845 13.8145,77.959 14.3094,124.6958 -21.0743,256.4339 -95.9375,357.1777 a 65.0065,65.0065 0 0 0 51.8242,103.7676 l 807.6621,4.3242 a 65.0065,65.0065 0 1 0 0.6953,-129.998 l -693.7187,-3.7149 c 51.2093,-106.9969 72.2249,-227.8731 58.6269,-346.3769 -2.4438,-21.2945 -5.8503,-41.9345 -9.748,-62.002 l 210.0547,1.793 a 65.0065,65.0065 0 1 0 1.1113,-129.9941 l -240.1328,-2.0508 c -11.5952,-56.2532 -17.5511,-109.7235 -9.3867,-156.8496 8.8017,-50.8045 35.2374,-100.2688 72.6894,-138.75202 37.636,-38.6715 87.1182,-67.6962 140.7012,-84.4433 104.307,-32.6016 225.8107,-16.5282 318.0527,42.0742 a 65.0065,65.0065 0 1 0 69.711,-109.7285 c -78.672,-49.9814 -170.0207,-76.9058 -262.2207,-79.209 -5.1863,-0.1296 -10.3749,-0.1828 -15.5645,-0.1563 z"
         id="path4786-3"
         inkscape:connector-curvature="0" />
      <path
         style="fill:none;fill-rule:evenodd;stroke:#000000;stroke-width:130;stroke-linecap:round;stroke-linejoin:round;stroke-opacity:1;stroke-miterlimit:4;stroke-dasharray:none"
         d="m 9626.4179,-1071.6112 458.4301,618.44813 376.259,-627.09773"
         id="path4828"
         inkscape:connector-curvature="0" />
      <path
         style="fill:none;fill-rule:evenodd;stroke:#000000;stroke-width:130;stroke-linecap:round;stroke-linejoin:round;stroke-miterlimit:4;stroke-dasharray:none;stroke-opacity:1"
         d="m 10084.198,-418.56458 4.701,458.82708"
         id="path4830"
         inkscape:connector-curvature="0"
         sodipodi:nodetypes="cc" />
      <path
         style="fill:none;fill-rule:evenodd;stroke:#000000;stroke-width:130;stroke-linecap:round;stroke-linejoin:round;stroke-miterlimit:4;stroke-dasharray:none;stroke-opacity:1"
         d="m 9831.5381,-485.59919 506.6199,4.3248"
         id="path4790-1"
         inkscape:connector-curvature="0"
         sodipodi:nodetypes="cc" />
      <path
         style="fill:none;fill-rule:evenodd;stroke:#000000;stroke-width:130;stroke-linecap:round;stroke-linejoin:round;stroke-miterlimit:4;stroke-dasharray:none;stroke-opacity:1"
         d="m 9831.5385,-247.73453 506.6185,4.3248"
         id="path4790-1-7"
         inkscape:connector-curvature="0"
         sodipodi:nodetypes="cc" />
      <path
         style="color:#000000;font-style:normal;font-variant:normal;font-weight:normal;font-stretch:normal;font-size:medium;line-height:normal;font-family:sans-serif;text-indent:0;text-align:start;text-decoration:none;text-decoration-line:none;text-decoration-style:solid;text-decoration-color:#000000;letter-spacing:normal;word-spacing:normal;text-transform:none;direction:ltr;block-progression:tb;writing-mode:lr-tb;baseline-shift:baseline;text-anchor:start;white-space:normal;clip-rule:nonzero;display:inline;overflow:visible;visibility:visible;opacity:1;isolation:auto;mix-blend-mode:normal;color-interpolation:sRGB;color-interpolation-filters:linearRGB;solid-color:#000000;solid-opacity:1;fill:#000000;fill-opacity:1;fill-rule:evenodd;stroke:none;stroke-width:130;stroke-linecap:round;stroke-linejoin:round;stroke-miterlimit:4;stroke-dasharray:none;stroke-dashoffset:0;stroke-opacity:1;color-rendering:auto;image-rendering:auto;shape-rendering:auto;text-rendering:auto;enable-background:accumulate"
         d="M 1639.0996 2048.998 A 65.0065 65.0065 0 0 0 1581.2402 2081.3281 L 1255.0215 2625.0293 L 854.50781 2084.7129 A 65.0065 65.0065 0 1 0 750.07031 2162.1289 L 1108.2188 2645.291 L 1007.9648 2644.4355 A 65.0065 65.0065 0 1 0 1006.8555 2774.4297 L 1195.084 2776.0371 A 65.0065 65.0065 0 0 0 1195.0723 2777.1328 L 1196.166 2883.9062 L 1007.9648 2882.3008 A 65.0065 65.0065 0 1 0 1006.8555 3012.2949 L 1197.498 3013.9219 L 1199.7734 3235.9609 A 65.0065 65.0065 0 1 0 1329.7656 3234.6289 L 1327.5156 3015.0312 L 1513.4727 3016.6191 A 65.0065 65.0065 0 1 0 1514.582 2886.625 L 1326.1836 2885.0176 L 1325.0781 2777.1465 L 1513.4746 2778.7559 A 65.0065 65.0065 0 1 0 1514.584 2648.7598 L 1393.0078 2647.7227 L 1692.7148 2148.2129 A 65.0065 65.0065 0 0 0 1639.0996 2048.998 z "
         transform="translate(8869.5758,-1363.7375)"
         id="path4828-0" />
      <path
         style="fill:none;fill-rule:evenodd;stroke:#000000;stroke-width:130;stroke-linecap:round;stroke-linejoin:round;stroke-miterlimit:4;stroke-dasharray:none;stroke-opacity:1"
         d="m 11937.248,-1000.8131 c -120.203,-51.7166 -259.932,-56.3885 -383.321,-12.8163 -123.389,43.57209 -229.199,134.95069 -290.272,250.68094 -44.37,84.07843 -65.35,180.18536 -61.198,275.16224 4.152,94.97688 33.303,188.61111 82.821,269.76416 72.052,118.083027 187.744,208.8471736 319.583,250.722595 131.839,41.875421 278.702,34.505354 405.686,-20.358725"
         id="path4786-5"
         inkscape:path-effect="#path-effect4788-3"
         inkscape:original-d="m 11937.248,-1000.8131 c -278.082,-114.7858 -566.641,-35.2194 -673.593,237.86464 -63.656,170.27556 -88.601,400.37041 21.623,544.9264 153.804,201.709724 174.062,227.4123121 725.269,230.36387"
         inkscape:connector-curvature="0"
         sodipodi:nodetypes="ccac" />
      <path
         style="fill:none;fill-rule:evenodd;stroke:#000000;stroke-width:130;stroke-linecap:round;stroke-linejoin:round;stroke-miterlimit:4;stroke-dasharray:none;stroke-opacity:1"
         d="m 10964.639,-621.83078 882.879,25.94886"
         id="path4790-1-8"
         inkscape:connector-curvature="0"
         sodipodi:nodetypes="cc" />
      <path
         style="fill:none;fill-rule:evenodd;stroke:#000000;stroke-width:130;stroke-linecap:round;stroke-linejoin:round;stroke-miterlimit:4;stroke-dasharray:none;stroke-opacity:1"
         d="m 10964.639,-383.96608 882.878,25.94886"
         id="path4790-1-7-0"
         inkscape:connector-curvature="0"
         sodipodi:nodetypes="cc" />
      <path
         style="color:#000000;font-style:normal;font-variant:normal;font-weight:normal;font-stretch:normal;font-size:medium;line-height:normal;font-family:sans-serif;text-indent:0;text-align:start;text-decoration:none;text-decoration-line:none;text-decoration-style:solid;text-decoration-color:#000000;letter-spacing:normal;word-spacing:normal;text-transform:none;direction:ltr;block-progression:tb;writing-mode:lr-tb;baseline-shift:baseline;text-anchor:start;white-space:normal;clip-rule:nonzero;display:inline;overflow:visible;visibility:visible;opacity:1;isolation:auto;mix-blend-mode:normal;color-interpolation:sRGB;color-interpolation-filters:linearRGB;solid-color:#000000;solid-opacity:1;fill:#000000;fill-opacity:1;fill-rule:evenodd;stroke:none;stroke-width:130;stroke-linecap:round;stroke-linejoin:round;stroke-miterlimit:4;stroke-dasharray:none;stroke-dashoffset:0;stroke-opacity:1;color-rendering:auto;image-rendering:auto;shape-rendering:auto;text-rendering:auto;enable-background:accumulate"
         d="M 2866.8027 2071.5449 C 2864.2246 2071.5438 2861.6464 2071.5597 2859.0684 2071.5918 C 2794.9034 2072.3911 2730.8287 2083.5017 2669.8887 2105.0215 C 2530.5957 2154.2097 2412.7174 2256.0097 2343.7734 2386.6562 C 2324.8588 2422.4984 2309.7698 2460.1396 2298.5605 2498.8535 L 2104.1543 2493.1387 A 65.0065 65.0065 0 1 0 2100.334 2623.082 L 2275.8809 2628.2422 C 2274.4183 2650.4461 2274.15 2672.7375 2275.123 2694.9941 C 2275.7246 2708.7521 2276.8002 2722.468 2278.3203 2736.1211 L 2104.1543 2731.002 A 65.0065 65.0065 0 1 0 2100.334 2860.9473 L 2307.3789 2867.0332 C 2322.5188 2911.9931 2342.6643 2955.2434 2367.3965 2995.7754 C 2447.8485 3127.6253 2575.5791 3227.8342 2722.7891 3274.5918 C 2869.9991 3321.3494 3032.1426 3313.2119 3173.9316 3251.9512 A 65.0065 65.0065 0 1 0 3122.3711 3132.6133 C 3010.1921 3181.0808 2878.6106 3187.6846 2762.1426 3150.6914 C 2645.6746 3113.6982 2542.0211 3032.3786 2478.3691 2928.0625 C 2467.2153 2909.7826 2457.232 2890.7577 2448.4746 2871.1797 L 2983.2129 2886.8965 A 65.0065 65.0065 0 1 0 2987.0312 2756.9512 L 2409.9375 2739.9902 C 2407.4084 2723.1712 2405.7404 2706.2504 2405 2689.3164 C 2404.1669 2670.2577 2404.5075 2651.1221 2405.9688 2632.0645 L 2983.2129 2649.0312 A 65.0065 65.0065 0 1 0 2987.0332 2519.0879 L 2434.0586 2502.8359 C 2441.0774 2483.7773 2449.3095 2465.2099 2458.7461 2447.3281 C 2511.9481 2346.5142 2605.6908 2265.5577 2713.1758 2227.6016 C 2820.6608 2189.6455 2944.4541 2193.7851 3049.1641 2238.8359 A 65.0065 65.0065 0 1 0 3100.541 2119.4199 C 3026.5973 2087.606 2946.7246 2071.5811 2866.8027 2071.5449 z "
         transform="translate(8869.5758,-1363.7375)"
         id="path4786-5-4" />
    </g>
  </g>
</svg>
