<?xml version="1.0" encoding="UTF-8" standalone="no"?>
<!-- Created with Inkscape (http://www.inkscape.org/) -->

<svg
   xmlns:dc="http://purl.org/dc/elements/1.1/"
   xmlns:cc="http://creativecommons.org/ns#"
   xmlns:rdf="http://www.w3.org/1999/02/22-rdf-syntax-ns#"
   xmlns:svg="http://www.w3.org/2000/svg"
   xmlns="http://www.w3.org/2000/svg"
   xmlns:sodipodi="http://sodipodi.sourceforge.net/DTD/sodipodi-0.dtd"
   xmlns:inkscape="http://www.inkscape.org/namespaces/inkscape"
   width="4000"
   height="2048"
   id="svg2992"
   version="1.1"
   inkscape:version="0.91pre2 r13516"
   sodipodi:docname="g.svg">
  <defs
     id="defs5498">
    <inkscape:path-effect
       effect="spiro"
       id="path-effect5422"
       is_visible="true" />
    <inkscape:path-effect
       effect="spiro"
       id="path-effect5418"
       is_visible="true" />
    <inkscape:path-effect
       effect="spiro"
       id="path-effect5402"
       is_visible="true" />
  </defs>
  <sodipodi:namedview
     inkscape:window-height="853"
     inkscape:window-width="1600"
     inkscape:pageshadow="2"
     inkscape:pageopacity="0.0"
     borderopacity="1.0"
     bordercolor="#666666"
     pagecolor="#ffffff"
     id="base"
     showgrid="true"
     showguides="true"
     inkscape:guide-bbox="true"
     inkscape:zoom="0.04012831"
     inkscape:cx="-1815.6521"
     inkscape:cy="2505.4086"
     inkscape:window-x="1598"
     inkscape:window-y="-3"
     inkscape:current-layer="layer1"
     inkscape:window-maximized="1">
    <sodipodi:guide
       orientation="horizontal"
       position="0,600"
       id="guide5596" />
    <inkscape:grid
       type="xygrid"
       id="grid3769"
       empspacing="3"
       visible="true"
       enabled="true"
       snapvisiblegridlinesonly="true"
       spacingx="4px"
       units="px"
       dotted="true"
       spacingy="4px" />
    <sodipodi:guide
       orientation="0,1"
       position="-1040,1600"
       id="guide2985" />
    <sodipodi:guide
       orientation="1,0"
       position="100,2496"
       id="guide7215"
       inkscape:label=""
       inkscape:color="rgb(0,0,255)" />
  </sodipodi:namedview>
  <metadata
     id="metadata5594">
    <rdf:RDF>
      <cc:Work
         rdf:about="">
        <dc:format>image/svg+xml</dc:format>
        <dc:type
           rdf:resource="http://purl.org/dc/dcmitype/StillImage" />
        <dc:title></dc:title>
      </cc:Work>
    </rdf:RDF>
  </metadata>
  <g
     inkscape:label="Layer 1"
     inkscape:groupmode="layer"
     id="layer1"
     transform="translate(0,1048)">
    <path
       style="fill:none;fill-rule:evenodd;stroke:#000000;stroke-width:130;stroke-linecap:round;stroke-linejoin:round;stroke-miterlimit:4;stroke-dasharray:none;stroke-opacity:1"
       d="m -41.031937,-7048.3772 c -17.0596,-233.4471 -172.966723,-317.7706 -366.529233,-250.4415 -434.00733,155.8482 -363.43733,980.7141 -20.47239,863.7479 181.60306,-9.4932 412.334323,-570.5328 386.845823,-608.6921 139.567803,1063.7805 -280.565763,1358.2263 -763.375863,1064.859"
       id="path4165"
       inkscape:connector-curvature="0"
       sodipodi:nodetypes="ccccc" />
    <path
       style="fill:none;fill-rule:evenodd;stroke:#000000;stroke-width:130;stroke-linecap:round;stroke-linejoin:round;stroke-miterlimit:4;stroke-dasharray:none;stroke-opacity:1"
       d="m 703.76562,-7048.7477 c -17.0596,-233.4472 -172.96671,-317.7706 -366.52921,-250.4415 -434.007297,155.8482 -363.437397,980.7141 -20.4724,863.7479 181.603,-9.4933 412.33431,-570.5329 386.84581,-608.6922 -27.4512,302.8612 -27.4512,494.8612 8.7799,648.1516"
       id="path4165-7"
       inkscape:connector-curvature="0"
       sodipodi:nodetypes="ccccc" />
    <path
       style="fill:none;fill-rule:evenodd;stroke:#000000;stroke-width:130;stroke-linecap:round;stroke-linejoin:round;stroke-miterlimit:4;stroke-dasharray:none;stroke-opacity:1"
       d="m 897.26012,-6752.8467 c 690.89848,988.965 1082.77658,-550.3152 377.65658,-579.7416 -358.75808,-15.2935 -406.75808,656.7065 -387.61978,394.3796 13.3606,-183.1319 -25.7146,-357.5011 -14.801,-373.8401 27.4512,302.8612 25.4852,1489.2037 25.4852,1489.2037"
       id="path4165-7-7"
       inkscape:connector-curvature="0"
       sodipodi:nodetypes="ccscc" />
    <path
       style="fill:none;fill-rule:evenodd;stroke:#000000;stroke-width:123.72288513;stroke-linecap:round;stroke-linejoin:round;stroke-miterlimit:4;stroke-dasharray:none;stroke-opacity:1"
       d="m 2456.2759,-7127.1744 c -97.0036,-102.3669 -236.4284,-163.2405 -377.447,-164.7954 -34.3995,-0.3793 -69.0057,2.6441 -102.2288,11.5715 -33.223,8.9274 -65.0852,23.9032 -91.5691,45.8594 -31.3751,26.0112 -54.5954,61.592 -66.3528,100.6143 -11.7574,39.0223 -12.0882,81.3305 -1.5279,120.6937 10.5603,39.3631 31.9142,75.6934 60.7402,104.5037 28.826,28.8104 65.0184,50.085 104.0394,61.8466 62.901,18.9594 130.1472,13.1333 195.8018,10.7965 65.6546,-2.3367 134.6686,-0.1682 191.7941,32.2767 36.5931,20.7833 66.2586,53.4994 83.4874,91.8944 17.2287,38.3949 21.9509,82.2636 13.4116,123.4714 -7.2493,34.9825 -23.8465,67.8143 -46.6685,95.3005 -22.8219,27.4861 -51.7636,49.6775 -83.6207,65.8469 -63.7143,32.339 -137.8016,40.1922 -208.8572,32.6817 -113.6829,-12.0162 -222.8886,-62.9702 -305.131,-142.3702"
       id="path5400"
       inkscape:path-effect="#path-effect5402"
       inkscape:original-d="m 2456.2759,-7127.1744 c 0,0 -183.6491,-222.2263 -377.447,-164.7954 -193.7979,57.4309 -242.2474,-244.0812 -193.7979,57.4309 48.4494,301.512 -145.3485,344.5852 96.8989,387.6583 242.2475,43.0732 290.6969,-129.2194 387.5959,43.0732 96.899,172.2926 193.798,86.1463 96.899,215.3658 -96.899,129.2194 -242.2474,215.3657 -339.1464,193.8291 -96.899,-21.5365 -305.131,-142.3702 -305.131,-142.3702"
       inkscape:connector-curvature="0"
       sodipodi:nodetypes="cssssssc" />
    <path
       style="fill:none;fill-rule:evenodd;stroke:#000000;stroke-width:122.77711487;stroke-linecap:round;stroke-linejoin:round;stroke-miterlimit:4;stroke-dasharray:none;stroke-opacity:1"
       d="m 3095.0255,-7308.0368 c -105.7191,4.6287 -209.5427,45.1809 -290.412,113.4312 -85.9174,72.5106 -145.3361,176.306 -162.147,287.4679 -16.8109,111.162 9.64,228.6883 74.2848,320.67 52.4032,74.5634 128.6934,131.5151 214.0484,163.4576 85.355,31.9426 179.3841,39.1552 269.1936,23.6617 121.4187,-20.9466 237.4012,-85.8031 307.5176,-187.1193 52.5194,-75.8891 77.6074,-169.8076 72.8615,-261.9755 -4.7458,-92.1679 -38.8399,-182.1862 -93.9849,-256.1894 -86.7418,-116.4053 -226.4742,-191.6333 -371.4055,-199.9543"
       id="path5416"
       inkscape:path-effect="#path-effect5418"
       inkscape:original-d="m 3095.0255,-7308.0368 c -263.5866,62.3731 -158.6188,-307.5873 -290.412,113.4312 -131.7932,421.0185 -439.3108,467.7984 -87.8622,608.1379 351.4487,140.3395 351.4487,163.7294 483.242,187.1193 131.7933,23.39 263.5865,46.7799 307.5176,-187.1193 43.9311,-233.8992 110.6698,-331.0456 -21.1234,-518.1649 -131.7933,-187.1194 -371.4055,-199.9543 -371.4055,-199.9543"
       inkscape:connector-curvature="0"
       sodipodi:nodetypes="csssssc" />
    <path
       style="fill:none;fill-rule:evenodd;stroke:#000000;stroke-width:130;stroke-linecap:round;stroke-linejoin:round;stroke-miterlimit:4;stroke-dasharray:none;stroke-opacity:1"
       d="m -3006.4213,-7315.8568 c 153.9103,215.5049 87.2202,909.6648 87.2202,909.6648 -48,-1423.5049 680.6685,-960.9814 573.5947,0.9201 -96,-1536.0001 853.466,-879.0399 457.6297,9.345"
       id="path5424"
       inkscape:connector-curvature="0"
       sodipodi:nodetypes="cccc" />
    <path
       style="fill:none;fill-rule:evenodd;stroke:#000000;stroke-width:130;stroke-linecap:round;stroke-linejoin:round;stroke-miterlimit:4;stroke-dasharray:none;stroke-opacity:1"
       d="m -1696.2655,-7306.5388 c 153.9103,215.5049 87.2202,909.6648 87.2202,909.6648 -48,-1423.5049 916.5343,-969.4152 573.5947,0.92"
       id="path5424-0"
       inkscape:connector-curvature="0"
       sodipodi:nodetypes="ccc" />
    <path
       style="fill:none;fill-rule:evenodd;stroke:#000000;stroke-width:130;stroke-linecap:round;stroke-linejoin:round;stroke-miterlimit:4;stroke-dasharray:none;stroke-opacity:1"
       d="m -3971.3213,-6975.0649 c 690.8985,-988.9649 1082.7765,550.3152 377.6566,579.7416 -358.7581,15.2935 -406.7581,-656.7065 -387.6198,-394.3796 13.3606,183.1319 -25.7146,357.5011 -14.801,373.8401 27.4512,-302.8612 25.4852,-1489.2036 25.4852,-1489.2036"
       id="path4165-7-7-4"
       inkscape:connector-curvature="0"
       sodipodi:nodetypes="ccscc" />
    <path
       style="fill:none;fill-rule:evenodd;stroke:#000000;stroke-width:130;stroke-linecap:round;stroke-linejoin:round;stroke-miterlimit:4;stroke-dasharray:none;stroke-opacity:1"
       d="m -4274.2242,-6975.0649 c -690.8985,-988.9649 -1082.7765,550.3152 -377.6566,579.7416 358.7581,15.2935 406.7581,-656.7065 387.6198,-394.3796 -13.3606,183.1319 25.7146,357.5011 14.801,373.8401 -27.4512,-302.8612 -25.4852,-1489.2036 -25.4852,-1489.2036"
       id="path4165-7-7-45"
       inkscape:connector-curvature="0"
       sodipodi:nodetypes="ccscc" />
    <path
       style="fill:none;fill-rule:evenodd;stroke:#000000;stroke-width:130;stroke-linecap:round;stroke-linejoin:round;stroke-miterlimit:4;stroke-dasharray:none;stroke-opacity:1"
       d="m -5126.1629,-7286.0812 c -407.4651,63.3023 -413.6952,1032.6473 -402.2177,874.3344 13.2771,-183.138 29.3783,-691.0506 -6.4332,-860.0249"
       id="path4165-7-7-2"
       inkscape:connector-curvature="0"
       sodipodi:nodetypes="csc" />
    <path
       style="fill:none;fill-rule:evenodd;stroke:#000000;stroke-width:129.72686768;stroke-linecap:round;stroke-linejoin:round;stroke-miterlimit:4;stroke-dasharray:none;stroke-opacity:1"
       d="m -5820.9351,-7277.8216 6.5522,881.9536"
       id="path5483"
       inkscape:connector-curvature="0"
       sodipodi:nodetypes="cc" />
    <path
       style="fill:none;fill-rule:evenodd;stroke:#000000;stroke-width:100.82745361;stroke-linecap:round;stroke-linejoin:round;stroke-miterlimit:4;stroke-dasharray:none;stroke-opacity:1"
       d="m -5825.2101,-6446.8461 0,65.6336"
       id="path5483-2"
       inkscape:connector-curvature="0"
       sodipodi:nodetypes="cc" />
    <path
       style="fill:none;fill-rule:evenodd;stroke:#000000;stroke-width:130;stroke-linecap:round;stroke-linejoin:round;stroke-miterlimit:4;stroke-dasharray:none;stroke-opacity:1"
       d="m 4486.9106,-6603.3262 c -690.8985,988.9649 -1082.7765,-550.3152 -377.6566,-579.7416 358.7581,-15.2935 406.7581,656.7065 387.6198,394.3796 -13.3606,-183.1319 25.7146,-357.5011 14.801,-373.8401 -27.4512,302.8612 -25.4852,1489.2036 -25.4852,1489.2036"
       id="path4165-7-7-45-7"
       inkscape:connector-curvature="0"
       sodipodi:nodetypes="ccscc" />
    <path
       style="fill:none;fill-rule:evenodd;stroke:#000000;stroke-width:130;stroke-linecap:round;stroke-linejoin:round;stroke-miterlimit:4;stroke-dasharray:none;stroke-opacity:1"
       d="m -7473.4239,-7293.3359 c 176.9902,1266.9788 368.9902,1122.9788 645.4465,11.6477"
       id="path5525"
       inkscape:connector-curvature="0"
       sodipodi:nodetypes="cc" />
    <path
       style="fill:none;fill-rule:evenodd;stroke:#000000;stroke-width:130;stroke-linecap:round;stroke-linejoin:round;stroke-miterlimit:4;stroke-dasharray:none;stroke-opacity:1"
       d="m 5100.6872,-7758.9691 c 0,0 -133.4674,985.7599 61.674,1229.4626 322.326,402.5374 515.2423,-227.2423 515.2423,-227.2423"
       id="path5525-4"
       inkscape:connector-curvature="0"
       sodipodi:nodetypes="csc" />
    <path
       style="fill:none;fill-rule:evenodd;stroke:#000000;stroke-width:130;stroke-linecap:round;stroke-linejoin:round;stroke-miterlimit:4;stroke-dasharray:none;stroke-opacity:1"
       d="m 4812.6872,-7105.309 480,0"
       id="path5527-5"
       inkscape:connector-curvature="0" />
    <path
       style="fill:none;fill-rule:evenodd;stroke:#000000;stroke-width:130;stroke-linecap:round;stroke-linejoin:round;stroke-miterlimit:4;stroke-dasharray:none;stroke-opacity:1"
       d="m -8291.6848,-7292.1669 c -143.6803,1309.1697 709.4739,996.6179 651.8198,4.2201 -1.5118,-26.0221 -47.2355,800.8893 12.3167,892.0899"
       id="path5525-42"
       inkscape:connector-curvature="0"
       sodipodi:nodetypes="csc" />
    <path
       style="fill:none;fill-rule:evenodd;stroke:#000000;stroke-width:130;stroke-linecap:round;stroke-linejoin:round;stroke-miterlimit:4;stroke-dasharray:none;stroke-opacity:1"
       d="m -9822.6927,-7301.1838 c 176.9902,1266.9789 375.2203,1107.4039 667.4308,-1.681 192.7446,1269.2251 378.5146,1140.8001 654.9709,29.4691"
       id="path5525-41"
       inkscape:connector-curvature="0"
       sodipodi:nodetypes="ccc" />
    <path
       style="fill:none;fill-rule:evenodd;stroke:#000000;stroke-width:130;stroke-linecap:round;stroke-linejoin:round;stroke-miterlimit:4;stroke-dasharray:none;stroke-opacity:1"
       d="m 5987.1148,-7306.9009 c -138.7807,1245.1738 539.4493,1111.7937 639.889,21.2668 1.4634,-15.8882 181.3303,1799.907 -536.4538,1441.9747"
       id="path5525-3"
       inkscape:connector-curvature="0"
       sodipodi:nodetypes="csc" />
    <path
       style="fill:none;fill-rule:evenodd;stroke:#000000;stroke-width:130;stroke-linecap:round;stroke-linejoin:round;stroke-miterlimit:4;stroke-dasharray:none;stroke-opacity:1"
       d="m -6113.3782,-7227.4019 c -551.0799,-354.8303 -569.77,1100.1795 6.23,788.1795"
       id="path5613"
       inkscape:connector-curvature="0"
       sodipodi:nodetypes="cc" />
    <path
       style="fill:none;fill-rule:evenodd;stroke:#000000;stroke-width:130;stroke-linecap:round;stroke-linejoin:round;stroke-miterlimit:4;stroke-dasharray:none;stroke-opacity:1"
       d="m -10043.676,-6607.5279 c -209.428,361.4991 -666.426,263.9306 -670.208,-302.8823 53.702,-525.8518 585.095,-368.7127 595.644,-141.8963 10.435,224.3532 -162.936,318.7074 -488.968,219.1533"
       id="path5525-4-3"
       inkscape:connector-curvature="0"
       sodipodi:nodetypes="ccsc" />
    <path
       style="fill:none;fill-rule:evenodd;stroke:#000000;stroke-width:130;stroke-linecap:round;stroke-linejoin:round;stroke-miterlimit:4;stroke-dasharray:none;stroke-opacity:1"
       d="m 7139.4723,-7757.1184 c 0,0 -108.2987,1329.6093 -44.0529,1361.6212"
       id="path5525-4-3-5"
       inkscape:connector-curvature="0"
       sodipodi:nodetypes="cc" />
    <path
       style="fill:none;fill-rule:evenodd;stroke:#000000;stroke-width:130;stroke-linecap:round;stroke-linejoin:round;stroke-miterlimit:4;stroke-dasharray:none;stroke-opacity:1"
       d="m 7963.7548,-6395.8356 c 502.894,-704.8505 -382.3458,-1522.6906 -456.7236,-15.7301 31.8981,-66.9605 6.9781,-1175.0616 -47.1868,-1356.6025"
       id="path4165-7-7-4-6"
       inkscape:connector-curvature="0"
       sodipodi:nodetypes="ccc" />
    <path
       style="fill:none;fill-rule:evenodd;stroke:#000000;stroke-width:130;stroke-linecap:round;stroke-linejoin:round;stroke-miterlimit:4;stroke-dasharray:none;stroke-opacity:1"
       d="m 8401.2873,-7828.1038 c 0,0 -48.7234,1268.3897 -26.4317,1432.1057"
       id="path5525-4-3-5-5-0"
       inkscape:connector-curvature="0"
       sodipodi:nodetypes="cc" />
    <path
       style="fill:none;fill-rule:evenodd;stroke:#000000;stroke-width:130;stroke-linecap:round;stroke-linejoin:round;stroke-miterlimit:4;stroke-dasharray:none;stroke-opacity:1"
       d="m 8769.0573,-7324.0065 c 0,176.2115 -311.6828,465.6211 -311.6828,465.6211 0,0 495.7885,277.3569 495.7885,462.3789"
       id="path5684-1"
       inkscape:connector-curvature="0"
       sodipodi:nodetypes="ccc" />
    <path
       style="fill:none;fill-rule:evenodd;stroke:#000000;stroke-width:117.3781662;stroke-linecap:round;stroke-linejoin:round;stroke-miterlimit:4;stroke-dasharray:none;stroke-opacity:1"
       d="m -11867.035,-7308.7541 681.062,919.3115"
       id="path5704-4"
       inkscape:connector-curvature="0" />
    <path
       style="fill:none;fill-rule:evenodd;stroke:#000000;stroke-width:111.34872437;stroke-linecap:round;stroke-linejoin:round;stroke-miterlimit:4;stroke-dasharray:none;stroke-opacity:1"
       d="m -11938.616,-6386.3405 804.403,-875.5511"
       id="path5706-0"
       inkscape:connector-curvature="0" />
  </g>
</svg>
