<?xml version="1.0" encoding="UTF-8" standalone="no"?>
<svg
   xmlns:dc="http://purl.org/dc/elements/1.1/"
   xmlns:cc="http://creativecommons.org/ns#"
   xmlns:rdf="http://www.w3.org/1999/02/22-rdf-syntax-ns#"
   xmlns:svg="http://www.w3.org/2000/svg"
   xmlns="http://www.w3.org/2000/svg"
   xmlns:sodipodi="http://sodipodi.sourceforge.net/DTD/sodipodi-0.dtd"
   xmlns:inkscape="http://www.inkscape.org/namespaces/inkscape"
   version="1.1"
   id="svg2992"
   height="2048"
   width="4000"
   inkscape:version="0.91 r13725"
   sodipodi:docname="registered.svg">
  <sodipodi:namedview
     pagecolor="#ffffff"
     bordercolor="#666666"
     borderopacity="1"
     objecttolerance="10"
     gridtolerance="10"
     guidetolerance="10"
     inkscape:pageopacity="0"
     inkscape:pageshadow="2"
     inkscape:window-width="1600"
     inkscape:window-height="844"
     id="namedview33"
     showgrid="true"
     showguides="true"
     inkscape:guide-bbox="true"
     inkscape:snap-grids="false"
     inkscape:zoom="0.23122392"
     inkscape:cx="779.21063"
     inkscape:cy="1128.5803"
     inkscape:window-x="1600"
     inkscape:window-y="0"
     inkscape:window-maximized="1"
     inkscape:current-layer="layer1-6">
    <inkscape:grid
       type="xygrid"
       id="grid4162" />
    <sodipodi:guide
       orientation="0,1"
       position="400,600"
       id="guide4164"
       inkscape:label=""
       inkscape:color="rgb(0,0,255)" />
    <sodipodi:guide
       orientation="0,1"
       position="-880,1600"
       id="guide4166" />
  </sodipodi:namedview>
  <defs
     id="defs5498" />
  <metadata
     id="metadata5594">
    <rdf:RDF>
      <cc:Work
         rdf:about="">
        <dc:format>image/svg+xml</dc:format>
        <dc:type
           rdf:resource="http://purl.org/dc/dcmitype/StillImage" />
        <dc:title></dc:title>
      </cc:Work>
    </rdf:RDF>
  </metadata>
  <g
     transform="translate(5944.9542,1347.6942)"
     id="layer1">
    <g
       id="layer1-6"
       transform="translate(-14814.53,16.043327)">
      <path
         inkscape:connector-curvature="0"
         id="path5416-8"
         d="m 10732.434,-1282.958 c -153.612,6.5032 -304.468,63.4773 -421.973,159.3661 -124.837,101.8743 -211.173,247.70245 -235.599,403.8803 -24.428,156.17791 14.006,321.2974 107.935,450.52782 76.143,104.75843 186.993,184.773168 311.014,229.651039 124.023,44.8779974 260.647,55.011394 391.141,33.2436932 176.423,-29.4290952 344.946,-120.5497422 446.826,-262.8947322 76.311,-106.62099 112.765,-238.57252 105.869,-368.06454 -6.895,-129.492 -56.434,-255.96391 -136.562,-359.93526 -126.036,-163.54452 -329.068,-269.23672 -539.655,-280.92742"
         style="fill:none;fill-rule:evenodd;stroke:#000000;stroke-width:130;stroke-linecap:round;stroke-linejoin:round;stroke-miterlimit:4;stroke-dasharray:none;stroke-opacity:1" />
      <path
         inkscape:connector-curvature="0"
         id="path4165-7-7-2-5"
         d="m 10516.694,-240.64133 c 9.372,-105.97931 -7.077,-789.32867 -7.077,-789.32867 410.139,-57.0524 528.35,38.57723 532.187,213.97084 4.634,211.78377 -198.384,263.20443 -461.307,253.71206 l 540.178,320.2148"
         style="fill:none;fill-rule:evenodd;stroke:#000000;stroke-width:130;stroke-linecap:round;stroke-linejoin:round;stroke-miterlimit:4;stroke-dasharray:none;stroke-opacity:1"
         sodipodi:nodetypes="ccscc" />
      <path
         style="color:#000000;font-style:normal;font-variant:normal;font-weight:normal;font-stretch:normal;font-size:medium;line-height:normal;font-family:sans-serif;text-indent:0;text-align:start;text-decoration:none;text-decoration-line:none;text-decoration-style:solid;text-decoration-color:#000000;letter-spacing:normal;word-spacing:normal;text-transform:none;direction:ltr;block-progression:tb;writing-mode:lr-tb;baseline-shift:baseline;text-anchor:start;white-space:normal;clip-rule:nonzero;display:inline;overflow:visible;visibility:visible;opacity:1;isolation:auto;mix-blend-mode:normal;color-interpolation:sRGB;color-interpolation-filters:linearRGB;solid-color:#000000;solid-opacity:1;fill:#000000;fill-opacity:1;fill-rule:evenodd;stroke:none;stroke-width:130;stroke-linecap:round;stroke-linejoin:round;stroke-miterlimit:4;stroke-dasharray:none;stroke-dashoffset:0;stroke-opacity:1;color-rendering:auto;image-rendering:auto;shape-rendering:auto;text-rendering:auto;enable-background:accumulate"
         d="m 8716.6738,-1322.0645 a 65.0065,65.0065 0 0 0 -4.539,0.098 c -167.8443,7.1057 -331.4735,68.803 -460.3203,173.9473 a 65.0065,65.0065 0 0 0 0,0 c -137.0045,111.8037 -231.638,271.01828 -258.7227,444.19533 -27.1175,173.37289 15.1234,355.07779 119.5762,498.78711 84.528,116.294582 205.8612,203.4840617 341.4746,252.556644 135.4413,49.009746 282.9671,59.754206 423.9531,36.236328 191.2753,-31.906603 375.0047,-129.92202 488.9883,-289.177732 85.3811,-119.29367 125.5875,-265.37071 117.9199,-409.35156 -7.6545,-143.75555 -62.2061,-282.25825 -149.9844,-396.15622 -138.3732,-179.5532 -357.6102,-293.3861 -587.5371,-306.1504 a 65.0065,65.0065 0 0 0 -7.0527,-0.082 65.0065,65.0065 0 0 0 -23.7559,-4.9043 z m 1.6367,129.9278 a 65.0065,65.0065 0 0 0 21.9668,4.8594 c 191.2471,10.617 378.0725,108.1672 491.7715,255.70308 a 65.0065,65.0065 0 0 0 0,0.002 c 72.4777,94.0446 117.0031,208.48444 123.1387,323.71289 6.1244,115.00319 -26.5775,232.82904 -93.8184,326.77735 -89.7767,125.43428 -243.0933,209.65973 -404.6641,236.611327 -120.0019,20.017521 -245.7254,10.496254 -358.33,-30.25 C 8385.9483,-115.40372 8285.5822,-188.24458 8217.8242,-281.4668 l 0,0 c -83.4053,-114.75151 -118.0335,-263.28466 -96.295,-402.26758 21.7673,-139.17807 99.8057,-271.61955 212.4747,-363.56442 106.1631,-86.6334 244.2472,-138.8845 383.6269,-144.7852 a 65.0065,65.0065 0 0 0 0.6777,-0.053 z"
         id="path5416-8-8"
         inkscape:connector-curvature="0" />
      <path
         style="color:#000000;font-style:normal;font-variant:normal;font-weight:normal;font-stretch:normal;font-size:medium;line-height:normal;font-family:sans-serif;text-indent:0;text-align:start;text-decoration:none;text-decoration-line:none;text-decoration-style:solid;text-decoration-color:#000000;letter-spacing:normal;word-spacing:normal;text-transform:none;direction:ltr;block-progression:tb;writing-mode:lr-tb;baseline-shift:baseline;text-anchor:start;white-space:normal;clip-rule:nonzero;display:inline;overflow:visible;visibility:visible;opacity:1;isolation:auto;mix-blend-mode:normal;color-interpolation:sRGB;color-interpolation-filters:linearRGB;solid-color:#000000;solid-opacity:1;fill:#000000;fill-opacity:1;fill-rule:evenodd;stroke:none;stroke-width:130;stroke-linecap:round;stroke-linejoin:round;stroke-miterlimit:4;stroke-dasharray:none;stroke-dashoffset:0;stroke-opacity:1;color-rendering:auto;image-rendering:auto;shape-rendering:auto;text-rendering:auto;enable-background:accumulate"
         d="m 8692.8887,-1086.0586 c -61.2919,0.6422 -130.719,6.6432 -209.7774,17.6406 a 65.0065,65.0065 0 0 0 -56.0254,65.9453 c 0,0 4.1055,170.63726 7.0411,354.39653 2.9355,183.75927 3.5817,390.18763 0.2695,427.64258 a 65.0065,65.0065 0 1 0 129.4941,11.45117 c 3.8946,-44.0406 3.9378,-139.44873 2.7989,-249.58985 l 503.289,298.34766 a 65.0065,65.0065 0 1 0 66.291,-111.82812 l -353.0234,-209.26954 c 49.6119,-7.92109 95.8879,-20.58259 137.8184,-39.84179 99.8872,-45.87946 170.9474,-143.56237 168.1738,-270.32422 -2.2321,-102.03088 -48.5918,-202.77786 -150.7774,-251.41992 -63.866,-30.4013 -143.4191,-44.2207 -245.5722,-43.1504 z m 0.5234,131.10548 c 89.6644,-0.4048 151.4151,11.45005 189.1738,29.42382 60.4139,28.75804 75.0787,63.52205 76.6836,136.88477 1.8604,85.02185 -26.2728,118.94199 -92.4668,149.3457 -66.1939,30.40372 -174.8822,42.55808 -301.5117,37.98633 a 65.0065,65.0065 0 0 0 -0.4453,0.006 c -0.2553,-16.39947 -0.472,-32.41963 -0.7344,-48.8457 -2.1464,-134.36485 -4.4015,-237.34228 -5.7461,-296.52149 50.5665,-5.44351 95.6125,-8.10127 135.0469,-8.27929 z"
         id="path4165-7-7-2-5-1"
         inkscape:connector-curvature="0" />
    </g>
  </g>
</svg>
