<?xml version="1.0" encoding="UTF-8" standalone="no"?>
<!-- Created with Inkscape (http://www.inkscape.org/) -->

<svg
   xmlns:dc="http://purl.org/dc/elements/1.1/"
   xmlns:cc="http://creativecommons.org/ns#"
   xmlns:rdf="http://www.w3.org/1999/02/22-rdf-syntax-ns#"
   xmlns:svg="http://www.w3.org/2000/svg"
   xmlns="http://www.w3.org/2000/svg"
   xmlns:sodipodi="http://sodipodi.sourceforge.net/DTD/sodipodi-0.dtd"
   xmlns:inkscape="http://www.inkscape.org/namespaces/inkscape"
   width="2000"
   height="2048"
   id="svg2992"
   version="1.1"
   inkscape:version="0.48.5 r10040"
   sodipodi:docname="ഇ.svg">
  <defs
     id="defs5498" />
  <sodipodi:namedview
     inkscape:window-height="857"
     inkscape:window-width="1600"
     inkscape:pageshadow="2"
     inkscape:pageopacity="0.0"
     borderopacity="1.0"
     bordercolor="#666666"
     pagecolor="#ffffff"
     id="base"
     showgrid="true"
     showguides="true"
     inkscape:guide-bbox="true"
     inkscape:zoom="0.227"
     inkscape:cx="219.89126"
     inkscape:cy="1220.0555"
     inkscape:window-x="1593"
     inkscape:window-y="-12"
     inkscape:current-layer="layer1"
     inkscape:window-maximized="1">
    <sodipodi:guide
       orientation="horizontal"
       position="0,600"
       id="guide5596" />
    <inkscape:grid
       type="xygrid"
       id="grid3769"
       empspacing="3"
       visible="true"
       enabled="true"
       snapvisiblegridlinesonly="true"
       spacingx="4px"
       units="px"
       dotted="true"
       spacingy="4px" />
    <sodipodi:guide
       orientation="0,1"
       position="-1040,1600"
       id="guide2985" />
  </sodipodi:namedview>
  <metadata
     id="metadata5594">
    <rdf:RDF>
      <cc:Work
         rdf:about="">
        <dc:format>image/svg+xml</dc:format>
        <dc:type
           rdf:resource="http://purl.org/dc/dcmitype/StillImage" />
        <dc:title />
      </cc:Work>
    </rdf:RDF>
  </metadata>
  <g
     inkscape:label="Layer 1"
     inkscape:groupmode="layer"
     id="layer1"
     transform="translate(0,1048)">
    <path
       style="fill:none;stroke:#000000;stroke-width:20;stroke-linecap:butt;stroke-linejoin:miter;stroke-miterlimit:4;stroke-opacity:1;stroke-dasharray:none"
       d="M 192,40 C 314.69804,-54.92177 500.63283,6.511 590.81619,118.6072 673.40182,210.8677 609.24044,365.3229 494.18921,391.5789 409.08087,410.347 310.8572,419.1767 238.39086,359.7922 97.975664,246.9897 43.677557,56.8256 40.410096,-117.2193 38.602704,-314.00569 188.63008,-482.58527 359.20477,-562.33422 c 103.64489,-51.84483 229.95724,-38.61877 324.14809,27.62926 165.81345,106.65364 202.31485,319.14265 217.5548,500.80076 C 911.87553,102.4308 911.76834,239.3199 912,376 845.63569,196.1862 887.24026,-3.2656 949.4598,-178.64138 c 66.944,-172.69791 176.236,-354.42443 362.1431,-413.88676 132.7515,-43.35108 249.4819,65.97046 317.7814,168.26871 112.4733,156.07876 145.0522,369.7856 63.6316,546.80893 -76.8331,175.696 -239.2536,316.9659 -432.4683,343.6262 C 1003.3684,514.6495 743.03144,462.062 484.55789,463.5381 346.0969,487.7067 204.93722,522.2043 81.696835,592.3001 -16.328843,630.4633 2.8194015,755.1791 92.539324,789.3463 216.3818,858.6627 359.076,903.1799 501.64359,902.7806 907.51078,875.6621 1307.0193,745.5992 1716.448,785.8106 1803.1669,796.0438 1889.5696,816.7991 1968,856"
       id="path2986"
       inkscape:connector-curvature="0" />
  </g>
</svg>
