<?xml version="1.0" encoding="UTF-8" standalone="no"?>
<!-- Created with Inkscape (http://www.inkscape.org/) -->

<svg
   xmlns:dc="http://purl.org/dc/elements/1.1/"
   xmlns:cc="http://creativecommons.org/ns#"
   xmlns:rdf="http://www.w3.org/1999/02/22-rdf-syntax-ns#"
   xmlns:svg="http://www.w3.org/2000/svg"
   xmlns="http://www.w3.org/2000/svg"
   xmlns:sodipodi="http://sodipodi.sourceforge.net/DTD/sodipodi-0.dtd"
   xmlns:inkscape="http://www.inkscape.org/namespaces/inkscape"
   width="2000"
   height="2048"
   id="svg2992"
   version="1.1"
   inkscape:version="0.48.5 r10040"
   sodipodi:docname="ഇ.svg">
  <defs
     id="defs5498" />
  <sodipodi:namedview
     inkscape:window-height="857"
     inkscape:window-width="1600"
     inkscape:pageshadow="2"
     inkscape:pageopacity="0.0"
     borderopacity="1.0"
     bordercolor="#666666"
     pagecolor="#ffffff"
     id="base"
     showgrid="true"
     showguides="true"
     inkscape:guide-bbox="true"
     inkscape:zoom="0.227"
     inkscape:cx="52.490379"
     inkscape:cy="691.42114"
     inkscape:window-x="1593"
     inkscape:window-y="-12"
     inkscape:current-layer="layer1"
     inkscape:window-maximized="1">
    <sodipodi:guide
       orientation="horizontal"
       position="0,600"
       id="guide5596" />
    <inkscape:grid
       type="xygrid"
       id="grid3769"
       empspacing="3"
       visible="true"
       enabled="true"
       snapvisiblegridlinesonly="true"
       spacingx="4px"
       units="px"
       dotted="true"
       spacingy="4px" />
    <sodipodi:guide
       orientation="0,1"
       position="-1040,1600"
       id="guide2985" />
  </sodipodi:namedview>
  <metadata
     id="metadata5594">
    <rdf:RDF>
      <cc:Work
         rdf:about="">
        <dc:format>image/svg+xml</dc:format>
        <dc:type
           rdf:resource="http://purl.org/dc/dcmitype/StillImage" />
        <dc:title />
      </cc:Work>
    </rdf:RDF>
  </metadata>
  <g
     inkscape:label="Layer 1"
     inkscape:groupmode="layer"
     id="layer1"
     transform="translate(0,1048)">
    <path
       style="fill:none;stroke:#000000;stroke-width:130;stroke-linecap:butt;stroke-linejoin:miter;stroke-miterlimit:4;stroke-opacity:1;stroke-dasharray:none"
       d="m 152.11724,12.51498 c 93.50478,-82.314149 235.20055,-29.04095 303.92679,68.16649 62.93624,80.00635 14.04062,213.94662 -73.63675,236.71527 -64.85872,16.2753 -139.71226,23.93222 -194.93686,-27.56475 C 80.463881,192.01205 39.084793,27.10578 36.594751,-123.82227 35.217388,-294.47125 149.54911,-440.65988 279.53937,-509.81648 c 78.98491,-44.95873 175.24407,-33.48938 247.02431,23.95951 126.36185,92.48777 154.17856,276.75373 165.79251,434.283792 8.35831,118.226818 8.27662,236.934138 8.45316,355.460228 C 650.23494,147.95633 681.94064,-25.00403 729.35643,-177.08619 780.37261,-326.84615 863.66101,-484.43553 1005.3357,-536 c 101.1663,-37.59314 190.1232,57.20818 242.1724,145.91905 85.7128,135.34819 110.5403,320.670225 48.4919,474.1811 C 1237.4476,236.45999 1113.6715,358.96625 966.42785,382.0855 770.43869,424.12095 572.04308,378.51819 375.06752,379.79823 269.55023,400.75673 161.97633,430.67231 68.058235,491.4579 -6.6444277,524.55222 7.9479208,632.70312 76.320996,662.33219 170.69793,722.4419 279.44123,761.04627 388.08806,760.7 697.38824,737.18342 1001.8426,624.39563 1313.857,659.2661 c 66.086,8.87402 131.9311,26.87257 191.7008,60.86676"
       id="path2986"
       inkscape:connector-curvature="0" />
  </g>
</svg>
