<?xml version="1.0" encoding="UTF-8" standalone="no"?>
<!-- Created with Inkscape (http://www.inkscape.org/) -->

<svg
   xmlns:dc="http://purl.org/dc/elements/1.1/"
   xmlns:cc="http://creativecommons.org/ns#"
   xmlns:rdf="http://www.w3.org/1999/02/22-rdf-syntax-ns#"
   xmlns:svg="http://www.w3.org/2000/svg"
   xmlns="http://www.w3.org/2000/svg"
   xmlns:sodipodi="http://sodipodi.sourceforge.net/DTD/sodipodi-0.dtd"
   xmlns:inkscape="http://www.inkscape.org/namespaces/inkscape"
   width="2000"
   height="2048"
   id="svg2992"
   version="1.1"
   inkscape:version="0.91pre2 r13516"
   sodipodi:docname="ഇ.svg">
  <defs
     id="defs5498" />
  <sodipodi:namedview
     inkscape:window-height="853"
     inkscape:window-width="1600"
     inkscape:pageshadow="2"
     inkscape:pageopacity="0.0"
     borderopacity="1.0"
     bordercolor="#666666"
     pagecolor="#ffffff"
     id="base"
     showgrid="true"
     showguides="true"
     inkscape:guide-bbox="true"
     inkscape:zoom="0.16051324"
     inkscape:cx="327.36496"
     inkscape:cy="976.48731"
     inkscape:window-x="1598"
     inkscape:window-y="-3"
     inkscape:current-layer="layer1"
     inkscape:window-maximized="1">
    <sodipodi:guide
       orientation="horizontal"
       position="0,600"
       id="guide5596" />
    <inkscape:grid
       type="xygrid"
       id="grid3769"
       empspacing="3"
       visible="true"
       enabled="true"
       snapvisiblegridlinesonly="true"
       spacingx="4px"
       units="px"
       dotted="true"
       spacingy="4px" />
    <sodipodi:guide
       orientation="0,1"
       position="-1040,1600"
       id="guide2985" />
  </sodipodi:namedview>
  <metadata
     id="metadata5594">
    <rdf:RDF>
      <cc:Work
         rdf:about="">
        <dc:format>image/svg+xml</dc:format>
        <dc:type
           rdf:resource="http://purl.org/dc/dcmitype/StillImage" />
        <dc:title />
      </cc:Work>
    </rdf:RDF>
  </metadata>
  <g
     inkscape:label="Layer 1"
     inkscape:groupmode="layer"
     id="layer1"
     transform="translate(0,1048)">
    <path
       style="fill:none;stroke:#000000;stroke-width:130;stroke-linecap:round;stroke-linejoin:round;stroke-miterlimit:4;stroke-dasharray:none;stroke-opacity:1"
       d="m -1343.0865,-12.405082 c 228.9412,-168.004628 450.12737,236.452672 230.29,304.881762 -206.8694,50.79373 -303.125,-145.64551 -333.6324,-310.89697 -36.7282,-313.24529 239.2251,-686.49977 477.78882,-492.35674 126.36185,92.48777 154.17856,276.75373 165.79251,434.28379 8.35831,118.226818 8.27662,236.93414 8.45316,355.46023 19.19065,-167.88705 -28.21373,-297.741004 19.20206,-449.82316 182.64357,-742.91381 748.701755,-307.80187 575.98855,230.036258 -141.3734,440.244172 -535.42031,381.354822 -917.8174,401.573282 -474.7558,25.18698 -381.2222,299.00051 9.9055,303.02657 309.30018,-23.51658 694.7447,-117.57925 1006.7591,-82.70878"
       id="path2986"
       inkscape:connector-curvature="0"
       sodipodi:nodetypes="cccccccsccc" />
    <path
       style="color:#000000;font-style:normal;font-variant:normal;font-weight:normal;font-stretch:normal;font-size:medium;line-height:normal;font-family:sans-serif;text-indent:0;text-align:start;text-decoration:none;text-decoration-line:none;text-decoration-style:solid;text-decoration-color:#000000;letter-spacing:normal;word-spacing:normal;text-transform:none;direction:ltr;block-progression:tb;writing-mode:lr-tb;baseline-shift:baseline;text-anchor:start;clip-rule:nonzero;display:inline;overflow:visible;visibility:visible;opacity:1;isolation:auto;mix-blend-mode:normal;color-interpolation:sRGB;color-interpolation-filters:linearRGB;solid-color:#000000;solid-opacity:1;fill:#000000;fill-opacity:1;fill-rule:nonzero;stroke:none;stroke-width:130;stroke-linecap:round;stroke-linejoin:round;stroke-miterlimit:4;stroke-dasharray:none;stroke-dashoffset:0;stroke-opacity:1;color-rendering:auto;image-rendering:auto;shape-rendering:auto;text-rendering:auto;enable-background:accumulate"
       d="m 444.98828,-606.67188 c -90.12853,1.92377 -177.17866,37.17816 -241.26172,108.54297 C 110.51485,-394.32555 68.797361,-226.06352 99.326172,2.234375 a 65.0065,65.0065 0 0 0 0.560547,3.46875 C 122.317,124.25486 152.20954,212.10911 189.60742,277.21289 c 37.39788,65.10379 84.45593,109.42109 140.2207,126.85938 55.76478,17.43828 113.56747,3.52142 157.47657,-24.63672 43.9091,-28.15815 77.97399,-69.24316 103.4082,-115.95899 50.86842,-93.43165 71.61701,-215.485164 11.55859,-316.068357 -30.0292,-50.291593 -82.1064,-90.605643 -149.35937,-109.570313 -63.59243,-17.93243 -140.25623,-18.69748 -232.82422,-1.37109 4.22344,-119.49558 37.45924,-199.95906 80.36328,-247.73828 58.74361,-65.41865 138.25974,-81.85262 228.64453,-53.56055 144.21474,45.1418 304.63445,218.28572 329.03321,512.037108 C 847.58677,125.98079 843.54407,212.20213 847.4082,306.13867 a 65.0065,65.0065 0 0 0 129.19141,7.19336 C 991.25645,217.88259 994.41631,128.59828 988.29492,45.951172 1040.642,-325.95064 1249.6074,-463.3591 1411.0098,-467.38867 c 97.0105,-2.42196 177.3096,41.24943 215.6972,118.58789 38.3877,77.33846 39.4086,198.7921 -59.7246,364.904296 C 1406.6105,284.8302 1072.4681,379.41324 858.9043,475.85156 c -7.6e-4,3.5e-4 -0.001,0.002 -0.002,0.002 C 754.96168,521.22398 682.94209,560.78837 634.18945,602 c -24.43844,20.65833 -44.17907,41.80803 -56.2539,70.82031 -12.07484,29.01229 -10.32604,69.79229 7.08789,97.56836 34.82785,55.55214 89.29708,67.90474 155.8125,81.04688 66.51541,13.14213 150.35124,19.49915 250.61718,20.53125 a 65.0065,65.0065 0 0 0 3.64649,-0.0664 L 1712.1621,839.0332 a 65.0065,65.0065 0 1 0 -5.9512,-129.86523 l -715.02926,32.77539 c -94.54893,-1.03881 -171.9559,-7.53356 -225.14648,-18.04297 -24.05162,-4.75213 -41.75688,-11.76547 -53.75,-17.2168 1.86487,-1.77223 3.5272,-3.45732 5.82812,-5.40234 30.30347,-25.61616 95.06612,-63.66964 193.52344,-106.60742 a 65.0065,65.0065 0 0 0 0.76758,-0.3418 c 193.0019,-87.15358 572.8222,-187.55632 766.2109,-511.607421 114.1254,-191.233719 126.9274,-363.628469 64.5371,-489.324219 -62.3902,-125.69575 -195.4269,-194.24423 -335.3867,-190.75 -180.9528,4.51767 -372.4692,126.29849 -478.59177,376.32617 -76.11234,-193.29761 -213.25788,-321.55068 -361.24414,-367.87304 -40.37193,-12.63714 -81.97389,-18.64983 -122.94141,-17.7754 z M 341.13477,-46.021484 c 31.07519,-0.149513 56.43661,3.324446 76.49414,8.980468 40.11504,11.312045 59.79756,28.942325 73.02539,51.095704 26.45565,44.306756 19.70413,125.142652 -14.11524,187.259762 -16.90968,31.05856 -39.48542,55.91207 -59.41015,68.68946 -19.92474,12.77738 -33.14801,14.79488 -48.5,9.99414 -15.352,-4.80075 -39.50208,-20.89356 -66.29688,-67.53907 -26.64406,-46.38309 -53.76014,-121.102306 -74.34961,-229.154292 -0.711,-5.381556 -1.21284,-10.521704 -1.83008,-15.794922 a 65.0065,65.0065 0 0 0 4.21094,-0.775391 c 42.90828,-8.833546 79.69629,-12.606346 110.77149,-12.755859 z"
       id="path2986-7"
       inkscape:connector-curvature="0" />
    <path
       style="fill:none;stroke:#000000;stroke-width:130;stroke-linecap:round;stroke-linejoin:round;stroke-miterlimit:4;stroke-dasharray:none;stroke-opacity:1"
       d="m -3150.8968,-100.61127 c 742.744,-152.90904 118.744,1000.93102 -53.5023,90.550028 -115.7537,-865.618978 892.2463,-625.618978 748.5998,309.847312 -48.3535,-1175.46629 1136.9629,-968.74379 710.4458,-254.051991 -176.8806,296.389371 -533.8641,393.882401 -737.1469,485.678501 -405.6524,176.9072 -284.657,267.8504 106.4707,271.8765 l 717.0634,-32.8686"
       id="path2986-7-6"
       inkscape:connector-curvature="0"
       sodipodi:nodetypes="cccsccc" />
  </g>
</svg>
