<?xml version="1.0" encoding="UTF-8" standalone="no"?>
<!-- Created with Inkscape (http://www.inkscape.org/) -->

<svg
   xmlns:dc="http://purl.org/dc/elements/1.1/"
   xmlns:cc="http://creativecommons.org/ns#"
   xmlns:rdf="http://www.w3.org/1999/02/22-rdf-syntax-ns#"
   xmlns:svg="http://www.w3.org/2000/svg"
   xmlns="http://www.w3.org/2000/svg"
   xmlns:sodipodi="http://sodipodi.sourceforge.net/DTD/sodipodi-0.dtd"
   xmlns:inkscape="http://www.inkscape.org/namespaces/inkscape"
   width="2000"
   height="2048"
   id="svg2992"
   version="1.1"
   inkscape:version="0.91pre2 r13516"
   sodipodi:docname="ക്കു.svg">
  <defs
     id="defs5498">
    <inkscape:path-effect
       effect="spiro"
       id="path-effect3846"
       is_visible="true" />
    <inkscape:path-effect
       effect="spiro"
       id="path-effect3801"
       is_visible="true" />
  </defs>
  <sodipodi:namedview
     inkscape:window-height="853"
     inkscape:window-width="1600"
     inkscape:pageshadow="2"
     inkscape:pageopacity="0.0"
     borderopacity="1.0"
     bordercolor="#666666"
     pagecolor="#ffffff"
     id="base"
     showgrid="true"
     showguides="true"
     inkscape:guide-bbox="true"
     inkscape:zoom="0.32102648"
     inkscape:cx="1316.8395"
     inkscape:cy="754.67307"
     inkscape:window-x="1598"
     inkscape:window-y="-3"
     inkscape:current-layer="layer1"
     inkscape:window-maximized="1">
    <sodipodi:guide
       orientation="horizontal"
       position="0,600"
       id="guide5596" />
    <inkscape:grid
       type="xygrid"
       id="grid3769"
       empspacing="3"
       visible="true"
       enabled="true"
       snapvisiblegridlinesonly="true"
       spacingx="4px"
       units="px"
       dotted="true"
       spacingy="4px" />
    <sodipodi:guide
       orientation="0,1"
       position="-1040,1600"
       id="guide2985" />
  </sodipodi:namedview>
  <metadata
     id="metadata5594">
    <rdf:RDF>
      <cc:Work
         rdf:about="">
        <dc:format>image/svg+xml</dc:format>
        <dc:type
           rdf:resource="http://purl.org/dc/dcmitype/StillImage" />
        <dc:title />
      </cc:Work>
    </rdf:RDF>
  </metadata>
  <g
     inkscape:label="Layer 1"
     inkscape:groupmode="layer"
     id="layer1"
     transform="translate(0,1048)">
    <path
       style="fill:none;fill-rule:evenodd;stroke:#000000;stroke-width:130;stroke-linecap:round;stroke-linejoin:round;stroke-miterlimit:4;stroke-dasharray:none;stroke-opacity:1"
       d="m -1684.3652,-142.65498 c 32.495,-673.22667 543.7546,-463.55311 537.9103,46.725124 -9.9103,865.274876 -585.9103,289.274876 -506.7602,196.389886 16.8499,476.88499 -701.3972,259.28639 -233.5599,-130.578083 832.6895,-693.907917 1591.8246,-33.246381 1127.2529,329.931753 -283.4439,166.25002 -280.8288,-152.82635 -164.4429,-444.41736 353.49,-770.38618 1207.59976,-238.05132 564.3257,110.457239 -74.75,40.497528 189.3543,35.273072 267.8451,116.73858 56.7323,58.882441 71.854,308.982881 -269.2455,283.142751"
       id="path7161"
       inkscape:connector-curvature="0"
       sodipodi:nodetypes="cscsccssc" />
    <path
       style="color:#000000;font-style:normal;font-variant:normal;font-weight:normal;font-stretch:normal;font-size:medium;line-height:normal;font-family:sans-serif;text-indent:0;text-align:start;text-decoration:none;text-decoration-line:none;text-decoration-style:solid;text-decoration-color:#000000;letter-spacing:normal;word-spacing:normal;text-transform:none;direction:ltr;block-progression:tb;writing-mode:lr-tb;baseline-shift:baseline;text-anchor:start;clip-rule:nonzero;display:inline;overflow:visible;visibility:visible;opacity:1;isolation:auto;mix-blend-mode:normal;color-interpolation:sRGB;color-interpolation-filters:linearRGB;solid-color:#000000;solid-opacity:1;fill:#000000;fill-opacity:1;fill-rule:evenodd;stroke:none;stroke-width:130;stroke-linecap:round;stroke-linejoin:round;stroke-miterlimit:4;stroke-dasharray:none;stroke-dashoffset:0;stroke-opacity:1;color-rendering:auto;image-rendering:auto;shape-rendering:auto;text-rendering:auto;enable-background:accumulate"
       d="m 737.88867,-630.73828 c -73.49169,-0.85213 -148.31998,34.01003 -201.01758,101.42187 -56.23074,71.93151 -92.91548,176.07346 -107.24804,317.61719 -60.98214,37.95995 -122.50361,82.12443 -184.14258,133.490236 C 119.95292,26.397302 61.777019,128.703 63.597656,224.89453 c 1.820637,96.19154 69.882964,169.31813 148.824224,198.19531 78.94125,28.87719 173.70828,21.98837 250.46093,-32.01953 30.8864,-21.73357 57.4541,-51.31434 77.9961,-87.58203 47.13675,50.53135 107.85164,96.58823 178.25,121.26953 84.3106,29.55886 193.72611,17.16084 264.10937,-68.91015 70.38322,-86.071 106.60882,-225.57798 109.16992,-449.189457 0.6974,-60.893723 -5.1039,-118.591523 -16.4355,-172.027343 53.8418,4.11379 103.6259,14.11162 148.5136,28.71289 -11.6685,21.26598 -22.9453,43.43318 -33.6621,66.78906 a 65.0065,65.0065 0 0 0 -1.291,3.01172 c -61.1568,153.22103 -96.7581,309.63415 -70.9336,431.47266 12.9123,60.91925 50.8867,122.06398 115.8047,141.11328 64.918,19.0493 134.1761,-1.87477 212.8262,-48.00586 a 65.0065,65.0065 0 0 0 7.1465,-4.85742 c 130.4433,-101.9739 184.1465,-239.04594 160.8437,-365.351565 -20.434,-110.755895 -94.2836,-208.410585 -200.9922,-277.431645 157.6578,-197.1507 350.9224,-209.59879 464.793,-157.99609 70.5233,31.95905 106.3717,83.11329 103.2226,139.35547 -3.149,56.24217 -49.5529,138.14769 -198.9804,219.103515 -8.0671,4.370546 -16.1812,9.058551 -25.7325,18.847656 -9.5512,9.789105 -22.8337,29.5438 -21.371,55.291016 1.4626,25.747216 16.7294,43.545715 26.8886,51.943359 10.1593,8.397644 18.0689,11.845275 25.3574,14.896485 29.1543,12.204836 56.0343,15.896083 88.9434,22.794921 65.8183,13.797678 144.4245,41.214018 157.9141,55.214848 -0.768,-0.79706 9.5378,15.6165 12.1816,35.98437 2.6439,20.36787 0.1542,44.06568 -9.4863,64.29492 -19.281,40.45848 -65.3494,84.68352 -220.2207,72.95117 a 65.0065,65.0065 0 1 0 -9.8203,129.62696 c 186.2282,14.1078 303.1465,-53.79807 347.3965,-146.65039 22.1249,-46.42616 26.5368,-94.67789 21.0488,-136.95703 -5.4881,-42.27915 -18.3483,-79.208991 -47.4824,-109.447269 -50.8564,-52.783726 -118.2972,-70.695956 -177.5684,-82.791016 102.3682,-78.679275 155.6757,-167.592685 160.7285,-257.837895 6.5797,-117.51407 -72.5783,-216.63933 -179.3594,-265.02929 -177.6732,-80.51615 -443.4156,-35.11467 -635.6406,217.50976 -78.129,-29.80508 -167.1156,-47.09772 -263.9043,-48.32422 -54.35405,-119.50646 -141.84846,-202.09261 -244.87108,-227.26953 -16.52898,-4.03939 -33.41733,-6.13734 -50.37695,-6.33398 z m -11.45898,128.63281 c 9.96649,-0.0953 20.2267,1.35778 30.97461,3.98438 40.67327,9.93983 89.32433,48.543 129.03711,111.12695 -99.4468,14.71518 -204.62572,45.84706 -312.87891,96.69141 16.30104,-74.42693 40.44729,-126.61092 65.72852,-158.95118 29.96938,-38.33744 57.2392,-52.56553 87.13867,-52.85156 z m 214.38867,238.87109 c 14.05013,49.54761 22.31335,105.91522 21.59766,168.404302 C 960.02197,114.19591 920.53213,227.16782 882.60156,273.55273 844.671,319.93765 813.1731,319.97249 762.13867,302.08008 711.10425,284.18767 652.03694,236.96649 615.7168,191.76758 c -13.92072,-17.32376 -24.43425,-34.37863 -30.66797,-47.16211 0.83986,-14.44165 1.10395,-29.27166 0.5625,-44.5957 A 65.0065,65.0065 0 0 0 471.17773,60.146484 C 442.68767,93.580426 444.75494,131.69 453.36328,162.8125 c -8.14027,64.77839 -34.8503,100.52144 -65.29101,121.94141 -38.55974,27.133 -90.95562,30.89295 -130.99024,16.24804 -40.03461,-14.6449 -62.76293,-39.21147 -63.50781,-78.5664 -0.74488,-39.35494 26.73776,-110.44944 135.1289,-200.775394 45.8147,-38.178912 91.18126,-71.777177 135.96876,-101.542968 a 65.0065,65.0065 0 0 0 89.54882,-54.830078 c 138.22063,-77.12855 269.05457,-116.40194 386.59766,-128.52149 z m 401.45114,81.64649 c 82.7743,53.2239 132.4265,123.947691 145.1094,192.691406 14.2247,77.100468 -10.7561,157.786544 -109.6035,236.503904 -60.7153,34.81977 -96.3136,36.44844 -106.7676,33.38086 -10.6732,-3.13191 -17.9162,-8.8087 -25.2324,-43.32617 -14.576,-68.76872 9.1055,-216.802633 63.8808,-354.71875 10.5043,-22.80225 21.3946,-44.28271 32.6133,-64.53125 z m 503.418,206.156249 c -0.9747,0.687756 -1.1652,0.643771 -0.4961,0.28125 0.1706,-0.09241 0.3257,-0.188795 0.4961,-0.28125 z"
       id="path7161-9"
       inkscape:connector-curvature="0" />
  </g>
</svg>
