<?xml version="1.0" encoding="UTF-8" standalone="no"?>
<!-- Created with Inkscape (http://www.inkscape.org/) -->

<svg
   xmlns:dc="http://purl.org/dc/elements/1.1/"
   xmlns:cc="http://creativecommons.org/ns#"
   xmlns:rdf="http://www.w3.org/1999/02/22-rdf-syntax-ns#"
   xmlns:svg="http://www.w3.org/2000/svg"
   xmlns="http://www.w3.org/2000/svg"
   xmlns:sodipodi="http://sodipodi.sourceforge.net/DTD/sodipodi-0.dtd"
   xmlns:inkscape="http://www.inkscape.org/namespaces/inkscape"
   width="2000"
   height="2048"
   id="svg2992"
   version="1.1"
   inkscape:version="0.91pre2 r13516"
   sodipodi:docname="ജ്ഞ.svg">
  <defs
     id="defs5498" />
  <sodipodi:namedview
     inkscape:window-height="851"
     inkscape:window-width="1600"
     inkscape:pageshadow="2"
     inkscape:pageopacity="0.0"
     borderopacity="1.0"
     bordercolor="#666666"
     pagecolor="#ffffff"
     id="base"
     showgrid="true"
     showguides="true"
     inkscape:guide-bbox="true"
     inkscape:zoom="0.227"
     inkscape:cx="1713.1591"
     inkscape:cy="1015.6235"
     inkscape:window-x="1599"
     inkscape:window-y="-1"
     inkscape:current-layer="layer1"
     inkscape:window-maximized="1">
    <sodipodi:guide
       orientation="horizontal"
       position="0,600"
       id="guide5596" />
    <inkscape:grid
       type="xygrid"
       id="grid3769"
       empspacing="3"
       visible="true"
       enabled="true"
       snapvisiblegridlinesonly="true"
       spacingx="4px"
       units="px"
       dotted="true"
       spacingy="4px" />
    <sodipodi:guide
       orientation="0,1"
       position="-1040,1600"
       id="guide2985" />
  </sodipodi:namedview>
  <metadata
     id="metadata5594">
    <rdf:RDF>
      <cc:Work
         rdf:about="">
        <dc:format>image/svg+xml</dc:format>
        <dc:type
           rdf:resource="http://purl.org/dc/dcmitype/StillImage" />
        <dc:title></dc:title>
      </cc:Work>
    </rdf:RDF>
  </metadata>
  <g
     inkscape:label="Layer 1"
     inkscape:groupmode="layer"
     id="layer1"
     transform="translate(0,1048)">
    <path
       style="fill:none;stroke:#000000;stroke-width:130;stroke-linecap:round;stroke-linejoin:round;stroke-miterlimit:4;stroke-dasharray:none;stroke-dashoffset:0;stroke-opacity:1"
       d="M 240.70994,-1.9464067 C 569.29278,-332.0801 772.03918,227.82546 493.49581,267.26768 -139.04487,205.80505 356.77286,-670.70788 691.02263,-469.75318 901.53984,-328.28267 838.2391,0.46953133 838.2391,255.0636 c 18.8283,-228.236169 98.07076,-566.76478 201.3235,-656.28661 427.1976,-370.3871 686.8046,297.46123 243.9111,647.19753 C 1001.6531,468.51765 755.94947,378.85889 427.07474,459.29993 -432,616 702.837,977.51542 1260.5526,512.27055 1488,280 1488,280 1769.8195,-58.983236 c 206.2197,-131.956394 285.4328,8.820171 307.9284,118.238334 47.2464,229.805272 -364.7116,565.092452 -396.288,-103.579613 -24.1362,-511.114115 598.8467,-744.293935 605.6266,-98.615115 6.2626,575.99998 -23.0473,719.99998 -0.01,6.62298 86.2652,-604.0061 697.5161,-491.5094 671.2548,56.311795 -22.2942,465.065205 -478.2462,646.743105 -395.3598,25.09461 111.972,-839.789515 1285.0657,-568.029405 583.8539,392.753545"
       id="path3925"
       inkscape:connector-curvature="0"
       sodipodi:nodetypes="ccccsscccssccssc" />
  </g>
</svg>
