<?xml version="1.0" encoding="UTF-8" standalone="no"?>
<!-- Created with Inkscape (http://www.inkscape.org/) -->

<svg
   xmlns:dc="http://purl.org/dc/elements/1.1/"
   xmlns:cc="http://creativecommons.org/ns#"
   xmlns:rdf="http://www.w3.org/1999/02/22-rdf-syntax-ns#"
   xmlns:svg="http://www.w3.org/2000/svg"
   xmlns="http://www.w3.org/2000/svg"
   xmlns:sodipodi="http://sodipodi.sourceforge.net/DTD/sodipodi-0.dtd"
   xmlns:inkscape="http://www.inkscape.org/namespaces/inkscape"
   width="2000"
   height="2048"
   id="svg2992"
   version="1.1"
   inkscape:version="0.91pre2 r13516"
   sodipodi:docname="ജ്ഞ.svg">
  <defs
     id="defs5498" />
  <sodipodi:namedview
     inkscape:window-height="851"
     inkscape:window-width="1600"
     inkscape:pageshadow="2"
     inkscape:pageopacity="0.0"
     borderopacity="1.0"
     bordercolor="#666666"
     pagecolor="#ffffff"
     id="base"
     showgrid="true"
     showguides="true"
     inkscape:guide-bbox="true"
     inkscape:zoom="0.227"
     inkscape:cx="1109.6349"
     inkscape:cy="1015.6235"
     inkscape:window-x="1599"
     inkscape:window-y="-1"
     inkscape:current-layer="layer1"
     inkscape:window-maximized="1">
    <sodipodi:guide
       orientation="horizontal"
       position="0,600"
       id="guide5596" />
    <inkscape:grid
       type="xygrid"
       id="grid3769"
       empspacing="3"
       visible="true"
       enabled="true"
       snapvisiblegridlinesonly="true"
       spacingx="4px"
       units="px"
       dotted="true"
       spacingy="4px" />
    <sodipodi:guide
       orientation="0,1"
       position="-1040,1600"
       id="guide2985" />
  </sodipodi:namedview>
  <metadata
     id="metadata5594">
    <rdf:RDF>
      <cc:Work
         rdf:about="">
        <dc:format>image/svg+xml</dc:format>
        <dc:type
           rdf:resource="http://purl.org/dc/dcmitype/StillImage" />
        <dc:title />
      </cc:Work>
    </rdf:RDF>
  </metadata>
  <g
     inkscape:label="Layer 1"
     inkscape:groupmode="layer"
     id="layer1"
     transform="translate(0,1048)">
    <path
       style="fill:none;stroke:#000000;stroke-width:130;stroke-linecap:round;stroke-linejoin:round;stroke-miterlimit:4;stroke-dasharray:none;stroke-dashoffset:0;stroke-opacity:1"
       d="M 240.70994,-1.9464067 C 444.3511,-206.54872 633.43233,-70.572918 622.0186,74.066556 590.7341,470.51687 171.83784,330.45058 193.8193,-78.592408 226.98123,-695.68781 864,-680 858.79612,-178.21269 896.78013,314.28172 768,424 921.66684,-173.31862 1248,-1016 1872,-200 1283.4737,245.97452 1001.6531,468.51765 755.94947,378.85889 427.07474,459.29993 -318.95395,595.37976 538.36164,955.68382 1142.1559,743.46465 1614.291,542.7613 1734.8675,122.30866 1805.3614,-32.551518 1956,-248 2139.2523,-50.163065 2161.7479,59.255098 c 47.2464,229.805272 -364.7116,565.092452 -396.288,-103.579613 -24.1362,-511.114115 651.7101,-744.293935 658.49,-98.615115 6.2626,575.99998 -27.4526,706.78412 -4.4153,-6.59288 86.2652,-604.0061 747.1109,-478.29354 720.8496,69.527655 -22.2942,465.065205 -579.5678,646.743105 -496.6814,25.09461 111.972,-839.789515 1342.3344,-568.029405 641.1226,392.753545"
       id="path3925"
       inkscape:connector-curvature="0"
       sodipodi:nodetypes="cssccccccssccssc" />
  </g>
</svg>
