<?xml version="1.0" encoding="UTF-8" standalone="no"?>
<!-- Created with Inkscape (http://www.inkscape.org/) -->

<svg
   xmlns:dc="http://purl.org/dc/elements/1.1/"
   xmlns:cc="http://creativecommons.org/ns#"
   xmlns:rdf="http://www.w3.org/1999/02/22-rdf-syntax-ns#"
   xmlns:svg="http://www.w3.org/2000/svg"
   xmlns="http://www.w3.org/2000/svg"
   xmlns:sodipodi="http://sodipodi.sourceforge.net/DTD/sodipodi-0.dtd"
   xmlns:inkscape="http://www.inkscape.org/namespaces/inkscape"
   width="2000"
   height="2048"
   id="svg2992"
   version="1.1"
   inkscape:version="0.91pre2 r13516"
   sodipodi:docname="ഞ്ച.svg">
  <defs
     id="defs5498">
    <inkscape:path-effect
       effect="spiro"
       id="path-effect6308"
       is_visible="true" />
  </defs>
  <sodipodi:namedview
     inkscape:window-height="851"
     inkscape:window-width="1600"
     inkscape:pageshadow="2"
     inkscape:pageopacity="0.0"
     borderopacity="1.0"
     bordercolor="#666666"
     pagecolor="#ffffff"
     id="base"
     showgrid="true"
     showguides="true"
     inkscape:guide-bbox="true"
     inkscape:zoom="0.227"
     inkscape:cx="323.35299"
     inkscape:cy="977.94169"
     inkscape:window-x="1599"
     inkscape:window-y="-1"
     inkscape:current-layer="layer1"
     inkscape:window-maximized="1">
    <sodipodi:guide
       orientation="horizontal"
       position="0,600"
       id="guide5596" />
    <inkscape:grid
       type="xygrid"
       id="grid3769"
       empspacing="3"
       visible="true"
       enabled="true"
       snapvisiblegridlinesonly="true"
       spacingx="4px"
       units="px"
       dotted="true"
       spacingy="4px" />
    <sodipodi:guide
       orientation="0,1"
       position="-1040,1600"
       id="guide2985" />
  </sodipodi:namedview>
  <metadata
     id="metadata5594">
    <rdf:RDF>
      <cc:Work
         rdf:about="">
        <dc:format>image/svg+xml</dc:format>
        <dc:type
           rdf:resource="http://purl.org/dc/dcmitype/StillImage" />
        <dc:title />
      </cc:Work>
    </rdf:RDF>
  </metadata>
  <g
     inkscape:label="Layer 1"
     inkscape:groupmode="layer"
     id="layer1"
     transform="translate(0,1048)">
    <path
       style="fill:none;fill-rule:evenodd;stroke:#000000;stroke-width:130;stroke-linecap:round;stroke-linejoin:round;stroke-miterlimit:4;stroke-dasharray:none;stroke-opacity:1"
       d="m 294.39962,-42.039463 c 40.16286,-27.860007 89.85928,-41.694681 138.64072,-38.595318 48.78145,3.099363 96.32733,23.112395 132.64126,55.831407 48.6841,43.864596 75.98162,110.843164 70.43313,176.138334 -5.5485,65.29517 -44.3066,127.1982 -101.31542,159.51289 -42.52749,24.10614 -93.66385,31.66471 -141.88194,23.62052 C 344.69928,326.42418 299.50824,303.23993 262.90601,270.83669 189.70155,206.0302 152.97559,107.69902 143.94034,10.34843 c -11.10857,-119.68963 17.07014,-243.81757 84.67313,-343.20994 67.60299,-99.39237 175.30845,-172.2172 294.00046,-191.22287 84.72599,-13.56683 173.6198,0.25942 250.2227,38.9188 76.6029,38.65939 140.52963,101.95748 179.94411,178.17461 l 8.04051,631.17931 6.26792,-630.84945 c 23.71982,-73.32172 73.59963,-137.88171 138.56033,-179.34026 64.9607,-41.45856 144.5228,-59.50968 221.0146,-50.14395 107.3439,13.14329 204.0261,79.11949 268.367,166.04305 64.3409,86.92355 98.6611,193.19131 113.5568,300.30607 12.8563,92.449531 11.0979,190.50889 -30.4698,274.08119 -20.7838,41.78614 -51.4923,79.06801 -90.4942,104.69806 -39.0019,25.63006 -86.4685,39.12456 -132.912,34.53648 -38.7912,-3.83212 -75.9601,-20.1092 -106.4634,-44.37829 -30.5033,-24.2691 -54.4483,-56.31749 -71.0714,-91.57531 -33.2462,-70.51566 -36.963,-151.811519 -26.8979,-229.119106 17.7321,-136.196014 78.3135,-268.049284 177.2102,-363.355214 98.8968,-95.30592 236.7823,-151.60853 373.8699,-143.19643 105.0642,6.44705 207.6898,50.90152 283.0016,124.44192 58.9434,57.55699 100.8895,132.31356 119.2987,212.61444 18.4091,80.30088 13.2166,165.864084 -14.768,243.349504 -27.9846,77.485416 -78.663,146.620956 -144.134,196.627706 -65.471,50.00676 -145.5047,80.70914 -227.623,87.32035 l 879.22,4.02024 c -37.7957,-139.01625 -62.1242,-281.69049 -72.5344,-425.376468 -11.1803,-154.315132 -6.2986,-309.789192 14.5407,-463.098952"
       id="path6306"
       inkscape:path-effect="#path-effect6308"
       inkscape:original-d="M 294.39962,-42.039463 C 394.90589,-86.262234 473.21582,-173.55264 565.6816,-24.803374 658.14733,123.94591 587.06259,190.24034 534.79931,310.84785 482.53607,431.45536 340.93261,74.67243 143.94034,10.34843 c -196.992276,-64.324012 528.30504,-348.816 378.67359,-534.43281 -260.49788,-323.14631 334.83532,-45.96411 430.16681,217.09341 43.64783,151.04471 8.04051,631.17931 8.04051,631.17931 0,0 -26.85952,-405.130918 6.26792,-630.84945 13.02312,-185.59775 207.81523,-253.13494 359.57493,-229.48421 84.4252,16.081 297.4985,341.72135 381.9238,466.34912 84.4252,124.62776 -233.8541,558.27893 -253.876,413.31573 -29.7583,-215.45623 -132.068,-272.606954 -204.4327,-365.072706 -222.3099,-312.908084 275.9773,-492.680974 551.0801,-506.551644 192.9721,-4.02026 146.3132,-341.9072 283.0016,124.44192 136.6884,466.34906 -267.2263,739.912 -267.2263,739.912 l 879.22,4.02024 c 0,0 -64.4939,-268.586706 -72.5344,-425.376468 -8.0405,-156.789772 14.5407,-463.098952 14.5407,-463.098952"
       inkscape:connector-curvature="0"
       sodipodi:nodetypes="cssssccccssccsccsc" />
  </g>
</svg>
