<?xml version="1.0" encoding="UTF-8" standalone="no"?>
<!-- Created with Inkscape (http://www.inkscape.org/) -->

<svg
   xmlns:dc="http://purl.org/dc/elements/1.1/"
   xmlns:cc="http://creativecommons.org/ns#"
   xmlns:rdf="http://www.w3.org/1999/02/22-rdf-syntax-ns#"
   xmlns:svg="http://www.w3.org/2000/svg"
   xmlns="http://www.w3.org/2000/svg"
   xmlns:sodipodi="http://sodipodi.sourceforge.net/DTD/sodipodi-0.dtd"
   xmlns:inkscape="http://www.inkscape.org/namespaces/inkscape"
   width="2000"
   height="2048"
   id="svg2992"
   version="1.1"
   inkscape:version="0.91pre2 r13516"
   sodipodi:docname="ഞ്ജ.svg">
  <defs
     id="defs5498" />
  <sodipodi:namedview
     inkscape:window-height="851"
     inkscape:window-width="1600"
     inkscape:pageshadow="2"
     inkscape:pageopacity="0.0"
     borderopacity="1.0"
     bordercolor="#666666"
     pagecolor="#ffffff"
     id="base"
     showgrid="true"
     showguides="true"
     inkscape:guide-bbox="true"
     inkscape:zoom="0.32102648"
     inkscape:cx="1275.496"
     inkscape:cy="909.11509"
     inkscape:window-x="1599"
     inkscape:window-y="-1"
     inkscape:current-layer="layer1"
     inkscape:window-maximized="1">
    <sodipodi:guide
       orientation="horizontal"
       position="0,600"
       id="guide5596" />
    <inkscape:grid
       type="xygrid"
       id="grid3769"
       empspacing="3"
       visible="true"
       enabled="true"
       snapvisiblegridlinesonly="true"
       spacingx="4px"
       units="px"
       dotted="true"
       spacingy="4px" />
    <sodipodi:guide
       orientation="0,1"
       position="-1040,1600"
       id="guide2985" />
  </sodipodi:namedview>
  <metadata
     id="metadata5594">
    <rdf:RDF>
      <cc:Work
         rdf:about="">
        <dc:format>image/svg+xml</dc:format>
        <dc:type
           rdf:resource="http://purl.org/dc/dcmitype/StillImage" />
        <dc:title></dc:title>
      </cc:Work>
    </rdf:RDF>
  </metadata>
  <g
     inkscape:label="Layer 1"
     inkscape:groupmode="layer"
     id="layer1"
     transform="translate(0,1048)">
    <path
       style="fill:none;stroke:#000000;stroke-width:119.69802856;stroke-linecap:round;stroke-linejoin:round;stroke-miterlimit:4;stroke-dasharray:none;stroke-opacity:1"
       d="M 196.38989,-72.849922 C 384,-200 463.21312,-59.223442 485.70874,50.194724 532.95513,280 120.99709,615.28719 89.420674,-53.384886 65.28455,-564.499 688.26737,-797.67881 695.04729,-152 c 6.26266,576 -23.04729,720 -0.008,6.62298 121.12758,-692.97002 678.45441,-358.39612 738.58371,-60.90602 20.0837,369.29532 -480.47942,283.698212 -432.958,-3.54181 38.8561,-204.97393 295.105,-425.10074 505.0827,-298.85978 210.5172,141.47051 147.2165,470.222705 147.2165,724.81678 18.8283,-228.236176 98.0708,-566.76478 201.3235,-656.28661 427.1976,-370.38707 686.8046,297.46123 243.9111,647.19753 -281.8206,222.5431 -527.5242,132.88437 -856.399,213.3254 -551.95592,209.11131 -12.5246,533.45491 280.6749,235.79131 173.7628,-176.4083 508.3701,-234.47591 635.7446,-188.0068 502.8818,156.4133 -211.1631,606.22942 -253.6212,2.1301"
       id="path3792"
       inkscape:connector-curvature="0"
       sodipodi:nodetypes="cssccccccsscscc" />
  </g>
</svg>
