<?xml version="1.0" encoding="UTF-8" standalone="no"?>
<!-- Created with Inkscape (http://www.inkscape.org/) -->

<svg
   xmlns:dc="http://purl.org/dc/elements/1.1/"
   xmlns:cc="http://creativecommons.org/ns#"
   xmlns:rdf="http://www.w3.org/1999/02/22-rdf-syntax-ns#"
   xmlns:svg="http://www.w3.org/2000/svg"
   xmlns="http://www.w3.org/2000/svg"
   xmlns:sodipodi="http://sodipodi.sourceforge.net/DTD/sodipodi-0.dtd"
   xmlns:inkscape="http://www.inkscape.org/namespaces/inkscape"
   width="2000"
   height="2048"
   id="svg2992"
   version="1.1"
   inkscape:version="0.91pre2 r13516"
   sodipodi:docname="ഞ്ച.svg">
  <defs
     id="defs5498">
    <inkscape:path-effect
       effect="spiro"
       id="path-effect6308"
       is_visible="true" />
  </defs>
  <sodipodi:namedview
     inkscape:window-height="851"
     inkscape:window-width="1600"
     inkscape:pageshadow="2"
     inkscape:pageopacity="0.0"
     borderopacity="1.0"
     bordercolor="#666666"
     pagecolor="#ffffff"
     id="base"
     showgrid="true"
     showguides="true"
     inkscape:guide-bbox="true"
     inkscape:zoom="0.227"
     inkscape:cx="2539.212"
     inkscape:cy="977.94169"
     inkscape:window-x="1599"
     inkscape:window-y="-1"
     inkscape:current-layer="layer1"
     inkscape:window-maximized="1">
    <sodipodi:guide
       orientation="horizontal"
       position="0,600"
       id="guide5596" />
    <inkscape:grid
       type="xygrid"
       id="grid3769"
       empspacing="3"
       visible="true"
       enabled="true"
       snapvisiblegridlinesonly="true"
       spacingx="4px"
       units="px"
       dotted="true"
       spacingy="4px" />
    <sodipodi:guide
       orientation="0,1"
       position="-1040,1600"
       id="guide2985" />
  </sodipodi:namedview>
  <metadata
     id="metadata5594">
    <rdf:RDF>
      <cc:Work
         rdf:about="">
        <dc:format>image/svg+xml</dc:format>
        <dc:type
           rdf:resource="http://purl.org/dc/dcmitype/StillImage" />
        <dc:title />
      </cc:Work>
    </rdf:RDF>
  </metadata>
  <g
     inkscape:label="Layer 1"
     inkscape:groupmode="layer"
     id="layer1"
     transform="translate(0,1048)">
    <path
       style="fill:none;fill-rule:evenodd;stroke:#000000;stroke-width:130;stroke-linecap:round;stroke-linejoin:round;stroke-miterlimit:4;stroke-dasharray:none;stroke-opacity:1"
       d="m 294.39962,-42.039463 c 40.16286,-27.860007 89.85928,-41.694681 138.64072,-38.595318 48.78145,3.099363 96.32733,23.112395 132.64126,55.831407 48.6841,43.864596 75.98162,110.843164 70.43313,176.138334 -5.5485,65.29517 -44.3066,127.1982 -101.31542,159.51289 -42.52749,24.10614 -93.66385,31.66471 -141.88194,23.62052 C 344.69928,326.42418 299.50824,303.23993 262.90601,270.83669 189.70155,206.0302 152.97559,107.69902 143.94034,10.34843 c -11.10857,-119.68963 17.07014,-243.81757 84.67313,-343.20994 67.60299,-99.39237 175.30845,-172.2172 294.00046,-191.22287 84.72599,-13.56683 173.6198,0.25942 250.2227,38.9188 76.6029,38.65939 140.52963,101.95748 179.94411,178.17461 l 3.63522,653.20574 10.67321,-652.87588 c 23.71745,-73.32317 73.59673,-137.88492 138.55803,-179.34382 64.9612,-41.4589 144.5248,-59.50888 221.0169,-50.14039 107.3419,13.14686 204.0194,79.12647 268.358,166.04977 64.3386,86.92329 98.6598,193.18759 113.5658,300.29935 12.8663,92.455204 11.1223,190.52357 -30.4449,274.10391 -20.7837,41.79017 -51.4956,79.07511 -90.5033,104.70277 -39.0076,25.62767 -86.4824,39.11364 -132.9278,34.50905 -38.7836,-3.845 -75.9401,-20.13384 -106.4304,-44.40923 -30.4902,-24.27539 -54.4219,-56.32458 -71.0378,-91.57885 -33.2318,-70.50852 -36.961,-151.780851 -26.9645,-229.084626 17.6254,-136.297984 78.0146,-268.349624 176.912,-363.780704 98.8975,-95.43108 237.0272,-151.72398 374.1681,-142.77094 104.9519,6.85163 207.0239,51.7148 283.0016,124.44192 105.6041,101.08598 157.1038,255.695 133.2106,399.9160547 C 2193.6783,140.4742 2095.0703,270.21479 1962.5091,331.84381 l 409.7653,16.21017 c 35.6251,1.40932 71.4532,2.53693 106.7923,-2.18315 35.3391,-4.72009 70.1428,-15.36092 100.7389,-33.6642 30.5961,-18.30327 56.7315,-44.22726 74.4152,-75.18555 17.6838,-30.95829 26.8105,-66.76469 25.9727,-102.40778 l -17.8146,-692.18158"
       id="path6306"
       inkscape:path-effect="#path-effect6308"
       inkscape:original-d="M 294.39962,-42.039463 C 394.90589,-86.262234 473.21582,-173.55264 565.6816,-24.803374 658.14733,123.94591 587.06259,190.24034 534.79931,310.84785 482.53607,431.45536 340.93261,74.67243 143.94034,10.34843 c -196.992276,-64.324012 528.30504,-348.816 378.67359,-534.43281 -260.49788,-323.14631 334.83532,-45.96411 430.16681,217.09341 43.64783,151.04471 3.63522,653.20574 3.63522,653.20574 0,0 -22.45423,-427.157348 10.67321,-652.87588 13.02312,-185.59775 207.81523,-253.13494 359.57493,-229.48421 84.4252,16.081 297.4985,341.72135 381.9238,466.34912 84.4252,124.62776 -233.8541,558.27893 -253.876,413.31573 -29.7583,-215.45623 -132.068,-272.606954 -204.4327,-365.072706 -222.3099,-312.908084 275.9773,-492.680974 551.0801,-506.551644 192.9721,-4.02026 146.3132,-341.9072 283.0016,124.44192 136.6884,466.34906 -121.8518,735.50671 -121.8518,735.50671 l 409.7653,16.21017 c 307.7625,25.20748 238.1573,286.02532 307.9191,-213.44068 l -17.8146,-692.18158"
       inkscape:connector-curvature="0"
       sodipodi:nodetypes="cssssccccssccscccc" />
  </g>
</svg>
