<?xml version="1.0" encoding="UTF-8" standalone="no"?>
<!-- Created with Inkscape (http://www.inkscape.org/) -->

<svg
   xmlns:dc="http://purl.org/dc/elements/1.1/"
   xmlns:cc="http://creativecommons.org/ns#"
   xmlns:rdf="http://www.w3.org/1999/02/22-rdf-syntax-ns#"
   xmlns:svg="http://www.w3.org/2000/svg"
   xmlns="http://www.w3.org/2000/svg"
   xmlns:sodipodi="http://sodipodi.sourceforge.net/DTD/sodipodi-0.dtd"
   xmlns:inkscape="http://www.inkscape.org/namespaces/inkscape"
   version="1.1"
   width="2000"
   height="2000"
   id="svg2992"
   inkscape:version="0.48.5 r10040"
   sodipodi:docname="ണ.svg">
  <sodipodi:namedview
     pagecolor="#ffffff"
     bordercolor="#666666"
     borderopacity="1"
     objecttolerance="10"
     gridtolerance="10"
     guidetolerance="10"
     inkscape:pageopacity="0"
     inkscape:pageshadow="2"
     inkscape:window-width="1600"
     inkscape:window-height="857"
     id="namedview7"
     showgrid="true"
     inkscape:zoom="0.3337544"
     inkscape:cx="1009.6245"
     inkscape:cy="1226.6867"
     inkscape:window-x="1593"
     inkscape:window-y="-12"
     inkscape:window-maximized="1"
     inkscape:current-layer="layer1"
     showguides="true"
     inkscape:guide-bbox="true">
    <inkscape:grid
       type="xygrid"
       id="grid2984" />
    <sodipodi:guide
       orientation="0,1"
       position="-2000,1600"
       id="guide2984" />
    <sodipodi:guide
       orientation="0,1"
       position="-2640,560"
       id="guide2986" />
  </sodipodi:namedview>
  <defs
     id="defs5498" />
  <metadata
     id="metadata5594">
    <rdf:RDF>
      <cc:Work
         rdf:about="">
        <dc:format>image/svg+xml</dc:format>
        <dc:type
           rdf:resource="http://purl.org/dc/dcmitype/StillImage" />
        <dc:title></dc:title>
      </cc:Work>
    </rdf:RDF>
  </metadata>
  <g
     transform="translate(0,1000)"
     id="layer1">
    <path
       style="fill:none;stroke:#000000;stroke-width:130;stroke-linecap:butt;stroke-linejoin:miter;stroke-miterlimit:4;stroke-opacity:1;stroke-dasharray:none"
       d="m 236.53347,103.25103 c 82.2245,-20.725169 168.93038,33.59778 220.23432,95.5242 62.06153,75.04052 -26.82719,149.55834 -98.29876,165.71401 C 265.93878,405.64786 131.20256,387.9901 96.11779,278.89903 65.914009,191.5637 91.343436,96.017242 99.694798,6.4888577 130.30708,-159.25222 172.4182,-339.68644 299.21079,-459.86007 c 84.54772,-74.67836 211.40521,-47.28617 305.34506,-7.69887 154.24177,75.88804 186.64812,266.06331 185.68924,421.334358 1.90875,148.286362 -25.25397,294.884092 -29.65741,442.818592 -5.81051,-250.4485 -5.23021,-512.61942 98.29477,-745.77271 38.72839,-87.98776 130.397,-184.08877 234.83525,-142.09604 142.1806,68.16652 195.6134,234.03012 228.5206,376.93195 34.1153,167.075791 32.0357,339.79552 9.1408,508.22001 -10.0123,-240.56935 -8.7913,-500.25351 118.6693,-713.32677 68.7023,-120.35327 221.1398,-189.37847 354.2526,-139.23566 233.2137,77.21561 348.6507,398.525708 256.0758,592.87492 C 1920,560 1473.8841,310.0354 1630.1172,-76.99647 c 90.0294,-215.19925 164.1617,-445.00843 163.0513,-681.34515 1.9179,-89.37794 -46.7009,-198.12799 -148.5574,-201.4976 -95.6324,0.2568 -211.106,10.88271 -274.7034,91.68768 C 1348.6133,-836.70295 1346.0749,-794.857 1360,-760"
       id="path5869-2"
       inkscape:connector-curvature="0"
       sodipodi:nodetypes="ccccccccccccccccccccc" />
  </g>
</svg>
