<?xml version="1.0" encoding="UTF-8" standalone="no"?>
<!-- Created with Inkscape (http://www.inkscape.org/) -->

<svg
   xmlns:dc="http://purl.org/dc/elements/1.1/"
   xmlns:cc="http://creativecommons.org/ns#"
   xmlns:rdf="http://www.w3.org/1999/02/22-rdf-syntax-ns#"
   xmlns:svg="http://www.w3.org/2000/svg"
   xmlns="http://www.w3.org/2000/svg"
   xmlns:sodipodi="http://sodipodi.sourceforge.net/DTD/sodipodi-0.dtd"
   xmlns:inkscape="http://www.inkscape.org/namespaces/inkscape"
   version="1.1"
   width="2000"
   height="2000"
   id="svg2992"
   inkscape:version="0.91pre2 r13516"
   sodipodi:docname="ണ്‍.svg">
  <sodipodi:namedview
     pagecolor="#ffffff"
     bordercolor="#666666"
     borderopacity="1"
     objecttolerance="10"
     gridtolerance="10"
     guidetolerance="10"
     inkscape:pageopacity="0"
     inkscape:pageshadow="2"
     inkscape:window-width="1600"
     inkscape:window-height="857"
     id="namedview7"
     showgrid="true"
     inkscape:zoom="0.3337544"
     inkscape:cx="599.14302"
     inkscape:cy="1226.6867"
     inkscape:window-x="1593"
     inkscape:window-y="-12"
     inkscape:window-maximized="1"
     inkscape:current-layer="layer1"
     showguides="true"
     inkscape:guide-bbox="true">
    <inkscape:grid
       type="xygrid"
       id="grid2984" />
    <sodipodi:guide
       orientation="0,1"
       position="-2000,1600"
       id="guide2984" />
    <sodipodi:guide
       orientation="0,1"
       position="-2640,560"
       id="guide2986" />
  </sodipodi:namedview>
  <defs
     id="defs5498" />
  <metadata
     id="metadata5594">
    <rdf:RDF>
      <cc:Work
         rdf:about="">
        <dc:format>image/svg+xml</dc:format>
        <dc:type
           rdf:resource="http://purl.org/dc/dcmitype/StillImage" />
        <dc:title />
      </cc:Work>
    </rdf:RDF>
  </metadata>
  <g
     transform="translate(0,1000)"
     id="layer1">
    <path
       style="fill:none;stroke:#000000;stroke-width:130;stroke-linecap:round;stroke-linejoin:round;stroke-miterlimit:4;stroke-dasharray:none;stroke-opacity:1"
       d="M 278.48048,-1.6165013 C 460.41387,-41.113407 562.99924,312.42077 358.46903,364.48924 -200,520 160,-600 604.55585,-467.55894 c 154.24177,75.88804 186.64812,266.06331 185.68924,421.334358 1.90875,148.286362 -22.25775,318.853812 -26.66119,466.788312 -5.81051,-250.4485 -8.22643,-536.58914 95.29855,-769.74243 38.72839,-87.98776 130.397,-184.08877 234.83525,-142.09604 142.1806,68.16652 195.6134,234.03012 228.5206,376.93195 34.1153,167.075791 32.0357,357.77281 9.1408,526.1973 -10.0123,-240.56935 -8.7913,-518.2308 118.6693,-731.30406 68.7023,-120.35327 199.8308,-255.05199 354.2526,-139.23566 166.8067,125.10506 228.8088,335.68899 169.1856,589.8787 C 1793.1098,677.00378 1474.1204,310.13071 1630.1172,-76.99647 1760.2364,-399.90485 1840,-520 1793.1685,-758.34162 1760,-1040 1280,-960 1360,-760"
       id="path5869-2"
       inkscape:connector-curvature="0"
       sodipodi:nodetypes="ccccccccccscscc" />
  </g>
</svg>
