<?xml version="1.0" encoding="UTF-8" standalone="no"?>
<!-- Created with Inkscape (http://www.inkscape.org/) -->

<svg
   xmlns:dc="http://purl.org/dc/elements/1.1/"
   xmlns:cc="http://creativecommons.org/ns#"
   xmlns:rdf="http://www.w3.org/1999/02/22-rdf-syntax-ns#"
   xmlns:svg="http://www.w3.org/2000/svg"
   xmlns="http://www.w3.org/2000/svg"
   xmlns:sodipodi="http://sodipodi.sourceforge.net/DTD/sodipodi-0.dtd"
   xmlns:inkscape="http://www.inkscape.org/namespaces/inkscape"
   width="2000"
   height="2000"
   id="svg2992"
   version="1.1"
   inkscape:version="0.91pre2 r13516"
   sodipodi:docname="ത.svg">
  <defs
     id="defs5498">
    <inkscape:path-effect
       effect="spiro"
       id="path-effect2987"
       is_visible="true" />
  </defs>
  <sodipodi:namedview
     inkscape:window-height="857"
     inkscape:window-width="1600"
     inkscape:pageshadow="2"
     inkscape:pageopacity="0.0"
     borderopacity="1.0"
     bordercolor="#666666"
     pagecolor="#ffffff"
     id="base"
     showgrid="true"
     showguides="true"
     inkscape:guide-bbox="true"
     inkscape:zoom="0.227"
     inkscape:cx="-492.59306"
     inkscape:cy="955.86963"
     inkscape:window-x="1593"
     inkscape:window-y="-12"
     inkscape:current-layer="layer1"
     inkscape:window-maximized="1">
    <sodipodi:guide
       orientation="horizontal"
       position="0,600"
       id="guide5596" />
    <inkscape:grid
       type="xygrid"
       id="grid3769"
       empspacing="5"
       visible="true"
       enabled="true"
       snapvisiblegridlinesonly="true" />
    <sodipodi:guide
       orientation="0,1"
       position="-2720,1600"
       id="guide4772" />
  </sodipodi:namedview>
  <metadata
     id="metadata5594">
    <rdf:RDF>
      <cc:Work
         rdf:about="">
        <dc:format>image/svg+xml</dc:format>
        <dc:type
           rdf:resource="http://purl.org/dc/dcmitype/StillImage" />
        <dc:title />
      </cc:Work>
    </rdf:RDF>
  </metadata>
  <g
     inkscape:label="Layer 1"
     inkscape:groupmode="layer"
     id="layer1"
     transform="translate(0,1000)">
    <path
       style="fill:none;stroke:#000000;stroke-width:117.1517868;stroke-linecap:round;stroke-linejoin:round;stroke-miterlimit:4;stroke-dasharray:none;stroke-opacity:1"
       d="M 348.10055,371.2442 C 207.38518,259.65321 117.96851,85.810169 109.02749,-93.559341 c -4.58574,-91.996469 11.93724,-186.883699 59.76826,-265.602019 47.15329,-77.60293 123.44232,-136.11542 209.18893,-166.00128 86.34639,-30.09491 183.11203,-31.49617 268.9572,0 84.81428,31.11794 156.29943,92.75862 209.18895,166.00128 63.3572,87.73854 101.54502,192.08539 119.53651,298.802271 16.92254,100.376368 15.53577,207.704459 -29.88422,298.802279 -17.41009,34.91902 -41.27059,67.0079 -71.93824,91.13142 -30.66766,24.12353 -68.38477,39.97326 -107.36646,41.66959 -47.60314,2.0715 -94.82429,-17.20503 -131.00724,-48.20735 -36.18296,-31.00233 -61.86132,-73.02791 -78.18169,-117.79392 -38.46303,-105.502282 -26.13585,-222.791469 0,-332.00252 19.30836,-80.68174 46.19857,-160.36357 89.54582,-231.09809 43.34724,-70.73452 104.15798,-132.38668 179.41135,-167.30496 77.05347,-35.75355 167.32616,-41.63729 248.67264,-17.17722 81.3466,24.46008 153.1468,78.85418 199.5894,149.97825 34.5043,52.84125 55.0999,114.11941 63.8432,176.61981 8.7433,62.5004 5.886,126.265031 -4.075,188.582965 -23.256,145.494725 -85.8229,284.514075 -179.3048,398.403035"
       id="path2985"
       inkscape:path-effect="#path-effect2987"
       inkscape:original-d="M 348.10055,371.2442 C 258.44815,238.44319 79.143359,39.241668 109.02749,-93.559341 138.91163,-226.36036 49.259226,-259.56061 168.79575,-359.16136 c 119.53655,-99.60075 89.6524,-132.80102 209.18893,-166.00128 119.53653,-33.20023 179.30481,-33.20023 268.9572,0 89.65239,33.20026 119.53654,0 209.18895,166.00128 89.65229,166.00127 104.50852,191.0937 119.53651,298.802271 13.81732,99.031029 29.88416,232.401769 -29.88422,298.802279 -59.76823,66.4005 0,199.20151 -179.3047,132.80101 -179.30481,-66.40051 -179.30481,0 -209.18893,-166.00127 -29.88414,-166.001262 -31.50064,-227.014106 0,-332.00252 47.25096,-157.48263 0,-332.00252 268.95717,-398.40305 268.95714,-66.40049 388.49384,33.20026 448.26204,132.80103 59.7682,99.60076 59.7682,166.00125 59.7682,365.202775 0,199.201515 -119.5364,265.602025 -179.3048,398.403035"
       inkscape:connector-curvature="0"
       sodipodi:nodetypes="csssssasssasssc" />
  </g>
</svg>
