<?xml version="1.0" encoding="UTF-8" standalone="no"?>
<!-- Created with Inkscape (http://www.inkscape.org/) -->

<svg
   xmlns:dc="http://purl.org/dc/elements/1.1/"
   xmlns:cc="http://creativecommons.org/ns#"
   xmlns:rdf="http://www.w3.org/1999/02/22-rdf-syntax-ns#"
   xmlns:svg="http://www.w3.org/2000/svg"
   xmlns="http://www.w3.org/2000/svg"
   xmlns:sodipodi="http://sodipodi.sourceforge.net/DTD/sodipodi-0.dtd"
   xmlns:inkscape="http://www.inkscape.org/namespaces/inkscape"
   width="2000"
   height="2000"
   id="svg2992"
   version="1.1"
   inkscape:version="0.91pre2 r13516"
   sodipodi:docname="തു.svg">
  <defs
     id="defs5498">
    <inkscape:path-effect
       effect="spiro"
       id="path-effect2987"
       is_visible="true" />
  </defs>
  <sodipodi:namedview
     inkscape:window-height="857"
     inkscape:window-width="1600"
     inkscape:pageshadow="2"
     inkscape:pageopacity="0.0"
     borderopacity="1.0"
     bordercolor="#666666"
     pagecolor="#ffffff"
     id="base"
     showgrid="true"
     showguides="true"
     inkscape:guide-bbox="true"
     inkscape:zoom="0.227"
     inkscape:cx="-466.16134"
     inkscape:cy="603.44672"
     inkscape:window-x="1593"
     inkscape:window-y="-12"
     inkscape:current-layer="layer1"
     inkscape:window-maximized="1">
    <sodipodi:guide
       orientation="horizontal"
       position="0,600"
       id="guide5596" />
    <inkscape:grid
       type="xygrid"
       id="grid3769"
       empspacing="5"
       visible="true"
       enabled="true"
       snapvisiblegridlinesonly="true" />
    <sodipodi:guide
       orientation="0,1"
       position="-2280,1600"
       id="guide4138" />
  </sodipodi:namedview>
  <metadata
     id="metadata5594">
    <rdf:RDF>
      <cc:Work
         rdf:about="">
        <dc:format>image/svg+xml</dc:format>
        <dc:type
           rdf:resource="http://purl.org/dc/dcmitype/StillImage" />
        <dc:title />
      </cc:Work>
    </rdf:RDF>
  </metadata>
  <g
     inkscape:label="Layer 1"
     inkscape:groupmode="layer"
     id="layer1"
     transform="translate(0,1000)">
    <path
       style="fill:none;stroke:#000000;stroke-width:114.88468933;stroke-linecap:round;stroke-linejoin:round;stroke-miterlimit:4;stroke-dasharray:none;stroke-opacity:1"
       d="M 320.39804,358.48167 C 180.25601,254.03231 90.293875,85.097322 81.845871,-89.482423 77.545077,-178.35923 94.26432,-270.04379 141.48392,-345.46191 c 47.44924,-75.78489 123.98635,-131.47816 208.73313,-159.98718 86.37683,-29.05737 182.50434,-30.5315 268.37118,0 83.79818,29.79595 155.44749,88.77923 208.73315,159.98718 62.8278,83.95952 101.26605,184.67071 119.27606,287.976921 16.87366,96.788059 15.30897,200.706549 -29.81899,287.976909 -17.6479,34.12825 -41.88467,65.18352 -72.55894,88.31954 -30.67426,23.13602 -67.96698,38.07975 -106.35521,39.67021 -46.78975,1.93855 -93.30929,-16.17345 -129.5163,-45.87347 -36.20701,-29.70002 -62.50543,-70.36708 -79.21683,-114.11371 -38.67901,-101.25281 -26.75204,-214.938518 0,-319.97435 19.92517,-78.23167 48.06084,-155.09891 91.68814,-223.02435 43.62729,-67.92545 103.55405,-126.74896 176.68302,-160.94488 76.62746,-35.83186 166.27396,-42.98194 247.60397,-19.72005 81.3301,23.2619 153.6452,76.74257 199.6815,147.7098 33.0725,50.98293 52.5858,110.06696 61.1436,170.23185 8.5579,60.1649 6.4215,121.488728 -1.5058,181.739936 C 1285.6326,117.34752 1230.9387,260.2974 1125.5115,358.48167 1026.5835,450.6133 890.83573,495.77795 756.06144,506.30804 621.28716,516.83812 486.12952,495.36279 353.56996,468.84951 300.98198,458.33137 247.92391,446.95074 194.32743,448.83316 c -26.79825,0.9412 -53.60552,5.25353 -78.80652,14.41546 -25.201008,9.16194 -48.783076,23.27651 -67.583121,42.39692 -28.588686,29.07585 -45.1789204,69.61168 -45.1789204,110.38812 0,40.77644 16.5902344,81.31227 45.1789204,110.38812"
       id="path2985"
       inkscape:path-effect="#path-effect2987"
       inkscape:original-d="M 320.39804,358.48167 C 230.94096,230.49192 52.026864,38.507316 81.845871,-89.482423 111.6649,-217.47217 22.207842,-249.4696 141.48392,-345.46191 260.76,-441.4542 230.94096,-473.45165 350.21705,-505.44909 c 119.27608,-31.99742 178.91412,-31.99742 268.37118,0 89.45705,31.99744 119.27607,0 208.73315,159.98718 89.45707,159.98717 104.28079,184.17055 119.27606,287.976921 13.78727,95.443218 29.81898,223.982039 -29.81899,287.976909 -59.63811,63.99488 0,191.98461 -178.91415,127.98975 -178.91412,-63.99487 -178.91412,0 -208.73313,-159.98718 -29.81902,-159.987174 -31.43201,-218.789574 0,-319.97435 47.14801,-151.77717 0,-319.97434 268.37116,-383.96923 268.37127,-63.99486 387.64747,31.99744 447.28547,127.98975 59.6378,95.9923 59.6378,159.98717 59.6378,351.971786 0,191.984604 -85.8324,282.062924 -178.9141,383.969224 C 906.72891,598.006 640.72919,472.19134 353.56996,468.84951 c -101.87738,0 -237.71391,-110.38811 -305.632171,36.79603 -67.918263,147.18416 -273.921599,209.49981 0,220.77624"
       inkscape:connector-curvature="0"
       sodipodi:nodetypes="csssssasssasssscsc" />
    <path
       style="fill:none;fill-rule:evenodd;stroke:#000000;stroke-width:130;stroke-linecap:round;stroke-linejoin:round;stroke-miterlimit:4;stroke-dasharray:none;stroke-opacity:1"
       d="M 45.973568,728.75771 C 82,878 419.62115,793.94714 788.0793,763.11013 c 358.7458,-30.02415 592.2466,-4.75771 592.2466,-4.75771"
       id="path11657"
       inkscape:connector-curvature="0"
       sodipodi:nodetypes="csc" />
  </g>
</svg>
