<?xml version="1.0" encoding="UTF-8" standalone="no"?>
<!-- Created with Inkscape (http://www.inkscape.org/) -->

<svg
   xmlns:dc="http://purl.org/dc/elements/1.1/"
   xmlns:cc="http://creativecommons.org/ns#"
   xmlns:rdf="http://www.w3.org/1999/02/22-rdf-syntax-ns#"
   xmlns:svg="http://www.w3.org/2000/svg"
   xmlns="http://www.w3.org/2000/svg"
   xmlns:sodipodi="http://sodipodi.sourceforge.net/DTD/sodipodi-0.dtd"
   xmlns:inkscape="http://www.inkscape.org/namespaces/inkscape"
   width="2000"
   height="2000"
   id="svg2992"
   version="1.1"
   inkscape:version="0.91pre2 r13516"
   sodipodi:docname="തു.svg">
  <defs
     id="defs5498">
    <inkscape:path-effect
       effect="spiro"
       id="path-effect2987"
       is_visible="true" />
  </defs>
  <sodipodi:namedview
     inkscape:window-height="884"
     inkscape:window-width="1600"
     inkscape:pageshadow="2"
     inkscape:pageopacity="0.0"
     borderopacity="1.0"
     bordercolor="#666666"
     pagecolor="#ffffff"
     id="base"
     showgrid="true"
     showguides="true"
     inkscape:guide-bbox="true"
     inkscape:zoom="0.227"
     inkscape:cx="137.36289"
     inkscape:cy="603.44672"
     inkscape:window-x="-7"
     inkscape:window-y="-12"
     inkscape:current-layer="layer1"
     inkscape:window-maximized="1">
    <sodipodi:guide
       orientation="horizontal"
       position="0,600"
       id="guide5596" />
    <inkscape:grid
       type="xygrid"
       id="grid3769"
       empspacing="5"
       visible="true"
       enabled="true"
       snapvisiblegridlinesonly="true" />
    <sodipodi:guide
       orientation="0,1"
       position="-2280,1600"
       id="guide4138" />
  </sodipodi:namedview>
  <metadata
     id="metadata5594">
    <rdf:RDF>
      <cc:Work
         rdf:about="">
        <dc:format>image/svg+xml</dc:format>
        <dc:type
           rdf:resource="http://purl.org/dc/dcmitype/StillImage" />
        <dc:title />
      </cc:Work>
    </rdf:RDF>
  </metadata>
  <g
     inkscape:label="Layer 1"
     inkscape:groupmode="layer"
     id="layer1"
     transform="translate(0,1000)">
    <path
       style="fill:none;stroke:#000000;stroke-width:114.88468933;stroke-linecap:round;stroke-linejoin:round;stroke-miterlimit:4;stroke-dasharray:none;stroke-opacity:1"
       d="M 320.39804,358.48167 C 180.25601,254.03231 90.293875,85.097322 81.845871,-89.482423 77.545077,-178.35923 94.26432,-270.04379 141.48392,-345.46191 c 47.44924,-75.78489 123.98635,-131.47816 208.73313,-159.98718 86.37683,-29.05737 182.50434,-30.5315 268.37118,0 83.79818,29.79595 155.44749,88.77923 208.73315,159.98718 62.82779,83.95953 101.26605,184.67071 119.27606,287.976921 16.87366,96.78806 15.309,200.706559 -29.81899,287.976909 -17.64791,34.12824 -41.88469,65.1835 -72.55895,88.31951 -30.67427,23.13602 -67.96697,38.07974 -106.3552,39.67024 -46.78977,1.93859 -93.30936,-16.17334 -129.5164,-45.87335 -36.20704,-29.70001 -62.50546,-70.36713 -79.21673,-114.11383 -38.67865,-101.25286 -26.75072,-214.938266 0,-319.97435 19.92431,-78.23235 48.05805,-155.10084 91.68488,-223.02711 43.62682,-67.92627 103.55497,-126.75017 176.68628,-160.94212 76.62707,-35.82637 166.27102,-42.96792 247.59777,-19.70417 81.3267,23.26375 153.6387,76.73811 199.6877,147.69392 33.0842,50.97865 52.616,110.06001 61.1802,170.22678 8.5642,60.16677 6.4215,121.495839 -1.5424,181.745006 -18.8755,142.798274 -73.7384,285.553274 -178.9141,383.969224 -98.8084,92.4579 -234.42204,138.4053 -369.30705,149.24982 C 621.31943,518.57602 485.9494,496.9076 353.56996,468.84951 300.8888,457.68363 247.74083,445.4251 193.91446,447.06901 c -26.91319,0.82196 -53.85937,5.18439 -79.06937,14.64227 -25.209995,9.45787 -48.664781,24.13007 -66.907301,43.93426 -27.188576,29.51608 -41.7539262,69.93804 -41.2221892,110.06452 0.5317371,40.12649 15.8256452,79.6403 41.2221892,110.71172 28.78042,35.21143 69.810271,59.35047 113.575651,71.70962 43.76538,12.35915 90.19274,13.41089 135.28737,7.52605 90.18926,-11.76969 174.29516,-50.30086 260.52395,-79.23567 282.0661,-94.64971 597.85264,-84.96759 873.59044,26.78456"
       id="path2985"
       inkscape:path-effect="#path-effect2987"
       inkscape:original-d="M 320.39804,358.48167 C 230.94096,230.49192 52.026864,38.507316 81.845871,-89.482423 111.6649,-217.47217 22.207842,-249.4696 141.48392,-345.46191 260.76,-441.4542 230.94096,-473.45165 350.21705,-505.44909 c 119.27608,-31.99742 178.91412,-31.99742 268.37118,0 89.45705,31.99744 119.27607,0 208.73315,159.98718 89.45707,159.98717 104.28079,184.17055 119.27606,287.976921 13.78727,95.443218 29.81898,223.982039 -29.81899,287.976909 -59.63811,63.99488 0,191.98461 -178.91415,127.98975 -178.91412,-63.99487 -178.91412,0 -208.73313,-159.98718 -29.81902,-159.987174 -31.43201,-218.789574 0,-319.97435 47.14801,-151.77717 0,-319.97434 268.37116,-383.96923 268.37127,-63.99486 387.64747,31.99744 447.28547,127.98975 59.6378,95.9923 59.6378,159.98717 59.6378,351.971786 0,191.984604 -85.8324,282.062924 -178.9141,383.969224 C 906.72891,598.006 640.72919,472.19134 353.56996,468.84951 c -101.87738,0 -237.71391,-110.38811 -305.632171,36.79603 -67.918263,147.18416 -271.673059,183.98019 0,220.77624 271.673041,36.79603 339.591311,73.59206 509.386971,0 169.79566,-73.59208 873.59044,26.78456 873.59044,26.78456"
       inkscape:connector-curvature="0"
       sodipodi:nodetypes="csssssasssasssscsssc" />
  </g>
</svg>
