<?xml version="1.0" encoding="UTF-8" standalone="no"?>
<!-- Created with Inkscape (http://www.inkscape.org/) -->

<svg
   xmlns:dc="http://purl.org/dc/elements/1.1/"
   xmlns:cc="http://creativecommons.org/ns#"
   xmlns:rdf="http://www.w3.org/1999/02/22-rdf-syntax-ns#"
   xmlns:svg="http://www.w3.org/2000/svg"
   xmlns="http://www.w3.org/2000/svg"
   xmlns:sodipodi="http://sodipodi.sourceforge.net/DTD/sodipodi-0.dtd"
   xmlns:inkscape="http://www.inkscape.org/namespaces/inkscape"
   width="2000"
   height="2048"
   id="svg2992"
   version="1.1"
   inkscape:version="0.91pre2 r13516"
   sodipodi:docname="ത്തു.svg">
  <defs
     id="defs5498">
    <inkscape:path-effect
       effect="spiro"
       id="path-effect3891"
       is_visible="true" />
  </defs>
  <sodipodi:namedview
     inkscape:window-height="851"
     inkscape:window-width="1600"
     inkscape:pageshadow="2"
     inkscape:pageopacity="0.0"
     borderopacity="1.0"
     bordercolor="#666666"
     pagecolor="#ffffff"
     id="base"
     showgrid="true"
     showguides="true"
     inkscape:guide-bbox="true"
     inkscape:zoom="0.16051324"
     inkscape:cx="1687.21"
     inkscape:cy="804.54048"
     inkscape:window-x="1599"
     inkscape:window-y="-1"
     inkscape:current-layer="layer1"
     inkscape:window-maximized="1">
    <inkscape:grid
       type="xygrid"
       id="grid3769"
       empspacing="3"
       visible="true"
       enabled="true"
       snapvisiblegridlinesonly="true"
       spacingx="4px"
       units="px"
       dotted="true"
       spacingy="4px" />
    <sodipodi:guide
       orientation="0,1"
       position="-1040,1600"
       id="guide2985" />
    <sodipodi:guide
       orientation="0,1"
       position="-480,576"
       id="guide3939" />
  </sodipodi:namedview>
  <metadata
     id="metadata5594">
    <rdf:RDF>
      <cc:Work
         rdf:about="">
        <dc:format>image/svg+xml</dc:format>
        <dc:type
           rdf:resource="http://purl.org/dc/dcmitype/StillImage" />
        <dc:title />
      </cc:Work>
    </rdf:RDF>
  </metadata>
  <g
     inkscape:label="Layer 1"
     inkscape:groupmode="layer"
     id="layer1"
     transform="translate(0,1048)">
    <path
       style="fill:none;stroke:#000000;stroke-width:130;stroke-linecap:round;stroke-linejoin:round;stroke-miterlimit:4;stroke-dasharray:none;stroke-opacity:1"
       d="M 352.56451,360.08209 C -271.09542,-641.34502 785.44479,-868.05997 1008.9472,3.079421 1106.8544,384.68964 561.37038,583.80482 618.61859,-27.663336 699.12031,-887.50233 1382,-632 1283.848,366.31211 1190.954,-621.85127 1884.6326,-943.43271 1980.7238,-1.9358353 2044.05,618.53142 1440,424 1578.0926,-27.982783 2044.0821,-1553.1858 2934.2178,517.10666 1868.6509,641.00979 868.23549,757.33716 1056,1000 1920.3311,944.58483 2257.7518,922.95165 2784,904 2824.2063,879.07994"
       id="path3937"
       inkscape:connector-curvature="0"
       sodipodi:nodetypes="csscssssc" />
    <path
       style="fill:none;stroke:#000000;stroke-width:130;stroke-linecap:round;stroke-linejoin:round;stroke-miterlimit:4;stroke-dasharray:none;stroke-opacity:1"
       d="m -2212.3618,355.54785 c -623.6599,-1001.42714 432.8803,-1228.14204 656.3827,-357.0026771 97.9072,381.6102471 -447.5768,580.7254371 -390.3286,-30.7427499 80.5017,-859.839013 763.3814,-604.336713 665.2294,393.975447 -92.894,-988.16336 600.78457,-1309.74486 696.87577,-368.2479471 63.3262,620.4672871 -538.69587,346.1469771 -402.6312,-26.0469499 428.475,-1172.058473 1131.3445,-134.255733 676.4883,502.393237 -371.6888,443.7332 -1225.22727,106.2705 -1757.73097,111.7143 -721.5605,7.3767 -400.8499,365.8752 -13.7349,316.0351 142.8212,-18.3879 1964.88497,49.8401 1979.75037,32.9902"
       id="path3937-9"
       inkscape:connector-curvature="0"
       sodipodi:nodetypes="csscsscssc" />
  </g>
</svg>
