<?xml version="1.0" encoding="UTF-8" standalone="no"?>
<!-- Created with Inkscape (http://www.inkscape.org/) -->

<svg
   xmlns:dc="http://purl.org/dc/elements/1.1/"
   xmlns:cc="http://creativecommons.org/ns#"
   xmlns:rdf="http://www.w3.org/1999/02/22-rdf-syntax-ns#"
   xmlns:svg="http://www.w3.org/2000/svg"
   xmlns="http://www.w3.org/2000/svg"
   xmlns:sodipodi="http://sodipodi.sourceforge.net/DTD/sodipodi-0.dtd"
   xmlns:inkscape="http://www.inkscape.org/namespaces/inkscape"
   width="2000"
   height="2048"
   id="svg2992"
   version="1.1"
   inkscape:version="0.48.5 r10040"
   sodipodi:docname="ന്‍.svg">
  <defs
     id="defs5498">
    <inkscape:path-effect
       effect="spiro"
       id="path-effect3846"
       is_visible="true" />
    <inkscape:path-effect
       effect="spiro"
       id="path-effect3801"
       is_visible="true" />
  </defs>
  <sodipodi:namedview
     inkscape:window-height="857"
     inkscape:window-width="1600"
     inkscape:pageshadow="2"
     inkscape:pageopacity="0.0"
     borderopacity="1.0"
     bordercolor="#666666"
     pagecolor="#ffffff"
     id="base"
     showgrid="true"
     showguides="true"
     inkscape:guide-bbox="true"
     inkscape:zoom="0.32102648"
     inkscape:cx="595.52067"
     inkscape:cy="1449.0082"
     inkscape:window-x="1593"
     inkscape:window-y="-12"
     inkscape:current-layer="layer1"
     inkscape:window-maximized="1">
    <sodipodi:guide
       orientation="horizontal"
       position="0,600"
       id="guide5596" />
    <inkscape:grid
       type="xygrid"
       id="grid3769"
       empspacing="3"
       visible="true"
       enabled="true"
       snapvisiblegridlinesonly="true"
       spacingx="4px"
       units="px"
       dotted="true"
       spacingy="4px" />
    <sodipodi:guide
       orientation="0,1"
       position="-1040,1600"
       id="guide2985" />
  </sodipodi:namedview>
  <metadata
     id="metadata5594">
    <rdf:RDF>
      <cc:Work
         rdf:about="">
        <dc:format>image/svg+xml</dc:format>
        <dc:type
           rdf:resource="http://purl.org/dc/dcmitype/StillImage" />
        <dc:title />
      </cc:Work>
    </rdf:RDF>
  </metadata>
  <g
     inkscape:label="Layer 1"
     inkscape:groupmode="layer"
     id="layer1"
     transform="translate(0,1048)">
    <path
       style="fill:none;stroke:#000000;stroke-width:10;stroke-linecap:round;stroke-linejoin:round;stroke-miterlimit:4;stroke-opacity:1;stroke-dasharray:none"
       d="M 432,400 C 279.25759,344.63532 200.09294,176.00219 202.82379,21.05494 c -3.61767,-194.77273 62.51636,-394.62097 194.49804,-539.53791 58.31613,-62.56436 147.28152,-99.10341 232.26981,-76.31722 124.60602,28.12913 195.39119,151.81887 225.53493,266.90772 59.83458,209.22922 55.56957,431.21071 30.21906,645.47543 -3.94671,29.84042 -19.10676,77.58236 -21.21577,21.3311 -39.002,-199.61211 -75.88806,-407.154378 -29.4994,-608.97149 21.91489,-90.18568 57.03152,-179.9052 113.40168,-254.07878 97.07776,-79.09704 234.20116,-108.87487 355.84286,-78.80129 115.5425,43.15108 186.5514,165.92281 184.2473,286.72371 16.0579,209.94595 -38.3761,430.53477 -179.657,590.89395 -42.2204,41.88416 -82.243,98.27606 -141.9357,113.34851 -70.4811,-7.76511 -99.3485,-87.36431 -116.1704,-146.73668 -31.9853,-141.25269 -16.905,-292.147622 30.9613,-428.11365 73.3132,-193.09648 197.7734,-364.13787 255.896,-563.26395 24.2065,-65.53756 6.5161,-161.78754 -77.1367,-168.31432 C 1158.5392,-932.48172 1056.5056,-900.03545 960,-872"
       id="path3879"
       inkscape:connector-curvature="0" />
  </g>
</svg>
