<?xml version="1.0" encoding="UTF-8" standalone="no"?>
<!-- Created with Inkscape (http://www.inkscape.org/) -->

<svg
   xmlns:dc="http://purl.org/dc/elements/1.1/"
   xmlns:cc="http://creativecommons.org/ns#"
   xmlns:rdf="http://www.w3.org/1999/02/22-rdf-syntax-ns#"
   xmlns:svg="http://www.w3.org/2000/svg"
   xmlns="http://www.w3.org/2000/svg"
   xmlns:sodipodi="http://sodipodi.sourceforge.net/DTD/sodipodi-0.dtd"
   xmlns:inkscape="http://www.inkscape.org/namespaces/inkscape"
   width="2000"
   height="2048"
   id="svg2992"
   version="1.1"
   inkscape:version="0.48.5 r10040"
   sodipodi:docname="പ്പൂ.svg">
  <defs
     id="defs5498">
    <inkscape:path-effect
       effect="spiro"
       id="path-effect4296"
       is_visible="true" />
    <inkscape:path-effect
       effect="spiro"
       id="path-effect4222"
       is_visible="true" />
    <inkscape:path-effect
       effect="spiro"
       id="path-effect4199"
       is_visible="true" />
    <inkscape:path-effect
       effect="spiro"
       id="path-effect4195"
       is_visible="true" />
    <inkscape:path-effect
       effect="spiro"
       id="path-effect4191"
       is_visible="true" />
    <inkscape:path-effect
       effect="spiro"
       id="path-effect3782"
       is_visible="true" />
    <inkscape:path-effect
       effect="spiro"
       id="path-effect3846"
       is_visible="true" />
    <inkscape:path-effect
       effect="spiro"
       id="path-effect3801"
       is_visible="true" />
    <inkscape:path-effect
       effect="spiro"
       id="path-effect4296-1"
       is_visible="true" />
  </defs>
  <sodipodi:namedview
     inkscape:window-height="857"
     inkscape:window-width="1600"
     inkscape:pageshadow="2"
     inkscape:pageopacity="0.0"
     borderopacity="1.0"
     bordercolor="#666666"
     pagecolor="#ffffff"
     id="base"
     showgrid="true"
     showguides="true"
     inkscape:guide-bbox="true"
     inkscape:zoom="0.35355339"
     inkscape:cx="1060.8773"
     inkscape:cy="892.10951"
     inkscape:window-x="1593"
     inkscape:window-y="-12"
     inkscape:current-layer="layer1"
     inkscape:window-maximized="1">
    <sodipodi:guide
       orientation="horizontal"
       position="0,600"
       id="guide5596" />
    <inkscape:grid
       type="xygrid"
       id="grid3769"
       empspacing="3"
       visible="true"
       enabled="true"
       snapvisiblegridlinesonly="true"
       spacingx="4px"
       units="px"
       dotted="true"
       spacingy="4px" />
    <sodipodi:guide
       orientation="0,1"
       position="-1040,1600"
       id="guide2985" />
  </sodipodi:namedview>
  <metadata
     id="metadata5594">
    <rdf:RDF>
      <cc:Work
         rdf:about="">
        <dc:format>image/svg+xml</dc:format>
        <dc:type
           rdf:resource="http://purl.org/dc/dcmitype/StillImage" />
        <dc:title></dc:title>
      </cc:Work>
    </rdf:RDF>
  </metadata>
  <g
     inkscape:label="Layer 1"
     inkscape:groupmode="layer"
     id="layer1"
     transform="translate(0,1048)">
    <path
       style="fill:none;stroke:#000000;stroke-width:130;stroke-linecap:round;stroke-linejoin:round;stroke-miterlimit:4;stroke-opacity:1;stroke-dasharray:none"
       d="M 240,376 C 166.99003,336.0908 84.367208,262.5517 108.48228,169.9939 141.69261,69.4851 231.40595,-19.3382 338.49609,-35.3047 418.11952,-47.4464 469.87723,21.9881 510.96167,78.6386 553.71224,139.8977 614.79704,212.2835 592.06055,292.2351 579.51835,341.488 487.15465,368.3162 488.04552,400 c 397.31816,0 794.63628,0 1191.95448,0 -40.8926,-290.4901 -75.7973,-584.96913 -54.6223,-878.64766 1.7453,-19.16688 3.9022,-38.29825 6.6223,-57.35234"
       id="path4245"
       inkscape:connector-curvature="0"
       sodipodi:nodetypes="ccccccccc" />
    <path
       style="fill:none;stroke:#000000;stroke-width:130;stroke-linecap:round;stroke-linejoin:round;stroke-miterlimit:4;stroke-opacity:1;stroke-dasharray:none"
       d="m 624,-128 c -43.18802,-33.92574 -58.52169,-108.76338 -5.70813,-141.95287 78.03252,-51.14795 179.64587,-18.57721 256.12944,19.97611 C 963.69616,-205.6928 1118.2017,-108.47782 1224,-104 c 157.1821,20.521738 242.1269,-90.99841 384,-144"
       id="path4266"
       inkscape:connector-curvature="0"
       sodipodi:nodetypes="ccccc" />
    <path
       style="fill:none;stroke:#000000;stroke-width:125.90940094;stroke-linecap:butt;stroke-linejoin:miter;stroke-miterlimit:4;stroke-opacity:1;stroke-dasharray:none"
       d="m 1398.6182,492.09157 c -30.6145,11.05173 -58.0067,30.87464 -78.0746,56.50015 -20.0678,25.62551 -32.7465,56.97088 -36.1374,89.34198 -4.4765,42.73523 7.1991,86.2656 28.4963,123.5854 21.2972,37.31981 51.8225,68.76585 85.7157,95.1778 63.1493,49.21042 141.417,82.3482 221.4345,79.75891 40.0088,-1.29465 79.9053,-11.59711 114.6936,-31.39994 34.7882,-19.80283 64.3012,-49.24276 82.6498,-84.81949 20.8698,-40.46504 26.7761,-87.97807 19.1425,-132.86341 -7.6336,-44.88535 -28.4139,-87.09612 -57.2132,-122.36034 -44.3683,-54.32813 -108.2211,-92.39626 -177.1121,-105.59172 -68.8911,-13.19546 -142.2915,-1.41697 -203.5951,32.67066"
       id="path4294"
       inkscape:path-effect="#path-effect4296"
       inkscape:original-d="m 1398.6182,492.09157 c -114.212,36.46053 -114.212,0 -114.212,145.84213 0,145.84214 -76.1415,182.30268 114.212,218.7632 190.3535,36.46054 418.7779,72.92107 418.7779,-36.46052 0,-109.38161 0,-218.7632 -38.0707,-255.22375 -38.0708,-36.46053 -380.7072,-72.92106 -380.7072,-72.92106 z"
       inkscape:connector-curvature="0" />
    <path
       style="fill:none;stroke:#000000;stroke-width:159.00228882;stroke-linecap:butt;stroke-linejoin:miter;stroke-miterlimit:4;stroke-opacity:1;stroke-dasharray:none"
       d="m 1576,564.28874 c -17.1066,7.98727 -32.1246,20.39881 -43.1909,35.69483 -11.0663,15.29601 -18.1567,33.44303 -20.3915,52.18968 -3.0165,25.30389 2.8368,51.27094 14.5571,73.89879 11.7204,22.62786 29.109,42.03053 49.0253,57.92796 34.7602,27.74603 78.7901,45.32062 123.2098,43.08385 22.2099,-1.11839 44.246,-7.18515 63.5163,-18.28409 19.2702,-11.09894 35.6994,-27.28177 46.4093,-46.77089 13.2377,-24.08896 17.4047,-52.75359 13.1253,-79.90503 -4.2795,-27.15143 -16.7642,-52.74277 -34.3195,-73.89285 -24.8795,-29.97405 -60.1349,-51.16578 -98.278,-59.07407 -38.143,-7.90828 -78.9176,-2.48002 -113.6632,15.13182"
       id="path4294-4"
       inkscape:path-effect="#path-effect4296-1"
       inkscape:original-d="m 1576,564.28874 c -63.5824,21.97112 -63.5824,0 -63.5824,87.88451 0,87.8845 -42.3883,109.85562 63.5824,131.82675 105.9707,21.97113 233.1354,43.94226 233.1354,-21.97113 0,-65.91337 0,-131.82675 -21.1942,-153.79788 C 1766.7471,586.25986 1576,564.28874 1576,564.28874 z"
       inkscape:connector-curvature="0" />
  </g>
</svg>
