<?xml version="1.0" encoding="UTF-8" standalone="no"?>
<!-- Created with Inkscape (http://www.inkscape.org/) -->

<svg
   xmlns:dc="http://purl.org/dc/elements/1.1/"
   xmlns:cc="http://creativecommons.org/ns#"
   xmlns:rdf="http://www.w3.org/1999/02/22-rdf-syntax-ns#"
   xmlns:svg="http://www.w3.org/2000/svg"
   xmlns="http://www.w3.org/2000/svg"
   xmlns:sodipodi="http://sodipodi.sourceforge.net/DTD/sodipodi-0.dtd"
   xmlns:inkscape="http://www.inkscape.org/namespaces/inkscape"
   width="2000"
   height="2048"
   id="svg2992"
   version="1.1"
   inkscape:version="0.91pre2 r13516"
   sodipodi:docname="മ.svg">
  <defs
     id="defs5498">
    <inkscape:path-effect
       effect="spiro"
       id="path-effect3006"
       is_visible="true" />
  </defs>
  <sodipodi:namedview
     inkscape:window-height="853"
     inkscape:window-width="1600"
     inkscape:pageshadow="2"
     inkscape:pageopacity="0.0"
     borderopacity="1.0"
     bordercolor="#666666"
     pagecolor="#ffffff"
     id="base"
     showgrid="true"
     showguides="true"
     inkscape:guide-bbox="true"
     inkscape:zoom="0.227"
     inkscape:cx="131.10915"
     inkscape:cy="1530.7127"
     inkscape:window-x="1598"
     inkscape:window-y="-3"
     inkscape:current-layer="layer1"
     inkscape:window-maximized="1">
    <sodipodi:guide
       orientation="horizontal"
       position="0,600"
       id="guide5596" />
    <inkscape:grid
       type="xygrid"
       id="grid3769"
       empspacing="3"
       visible="true"
       enabled="true"
       snapvisiblegridlinesonly="true"
       spacingx="4px"
       units="px"
       dotted="true"
       spacingy="4px" />
    <sodipodi:guide
       orientation="0,1"
       position="-1040,1600"
       id="guide2985" />
  </sodipodi:namedview>
  <metadata
     id="metadata5594">
    <rdf:RDF>
      <cc:Work
         rdf:about="">
        <dc:format>image/svg+xml</dc:format>
        <dc:type
           rdf:resource="http://purl.org/dc/dcmitype/StillImage" />
        <dc:title />
      </cc:Work>
    </rdf:RDF>
  </metadata>
  <g
     inkscape:label="Layer 1"
     inkscape:groupmode="layer"
     id="layer1"
     transform="translate(0,1048)">
    <path
       style="fill:none;stroke:#000000;stroke-width:130;stroke-linecap:round;stroke-linejoin:round;stroke-miterlimit:4;stroke-dasharray:none;stroke-opacity:1"
       d="m 339.17701,-1122.1211 c -732.90388,-301.7115 -204.90597,-680.214 246.57784,-682.7912 988.51825,-2.9203 465.91815,709.1658 -248.46131,869.89212 -306.938172,67.80711 -513.23395,41.56587 99.92986,47.05253 450.12171,15.24464 718.2656,-12.27024 717.0465,-0.90011"
       id="path3880"
       inkscape:connector-curvature="0"
       sodipodi:nodetypes="ccccc" />
    <path
       style="fill:none;stroke:#000000;stroke-width:130;stroke-linecap:round;stroke-linejoin:round;stroke-miterlimit:4;stroke-dasharray:none;stroke-opacity:1"
       d="m -1416.77,-1210.685 c -732.9039,-301.7115 -204.906,-680.214 246.5778,-682.7912 978.1922,-16.5238 427.33005,737.494 -307.2554,882.0369 -271.6454,52.36207 -414.293,29.78036 158.724,34.90778 1185.04965,40.13505 485.73995,10.2608 665.46995,-548.43938"
       id="path3880-1"
       inkscape:connector-curvature="0"
       sodipodi:nodetypes="ccccc" />
    <path
       style="fill:none;stroke:#000000;stroke-width:130;stroke-linecap:round;stroke-linejoin:round;stroke-miterlimit:4;stroke-dasharray:none;stroke-opacity:1"
       d="m 1293.3532,-945.47791 c -391.08007,-478.35469 -41.9104,-852.02019 409.5734,-854.59739 927.3465,-23.7573 415.94,745.751 -325.867,885.54689 -259.2424,47.82356 -382.44447,26.38879 177.3356,31.39777 1185.0497,40.13505 485.74,10.2608 665.47,-548.43936"
       id="path3880-0"
       inkscape:connector-curvature="0"
       sodipodi:nodetypes="ccccc" />
    <path
       style="fill:none;stroke:#000000;stroke-width:130;stroke-linecap:round;stroke-linejoin:round;stroke-miterlimit:4;stroke-dasharray:none;stroke-opacity:1"
       d="M 480.47559,137.17483 C -384,-630 1632,-950 1107.5379,-69.326769 912,154 684.76722,185.56423 543.09572,239.11507 75.079803,341.64227 312.614,340.10337 454.53422,343.19587 1659.0798,341.64227 1395.8947,312.59319 1267.9485,-23.265629 1009.7273,-701.09609 2524.9541,-856.59752 2046.4454,-53.088885 1850.9075,170.23789 1623.6747,201.80212 1482.0032,255.35296 c -468.0159,102.52723 -230.4817,100.98833 -88.5615,104.08083 1204.5456,-1.5536 631.6606,109.3118 760.4404,-475.63444"
       id="path3880-2-4"
       inkscape:connector-curvature="0"
       sodipodi:nodetypes="ccccscccc" />
    <path
       style="fill:none;stroke:#000000;stroke-width:130;stroke-linecap:round;stroke-linejoin:round;stroke-miterlimit:4;stroke-dasharray:none;stroke-opacity:1"
       d="m -1502.4671,127.63295 c -864.4756,-767.1748 1151.5244,-1087.1748 627.06227,-206.50157 -195.53787,223.32677 -422.77067,254.89097 -564.44217,308.44187 -468.0159,102.5272 -230.4817,100.9883 -88.5615,104.0808 1204.5456,-1.5536 631.66057,109.3118 760.4404,-475.63443"
       id="path3880-2-4-50"
       inkscape:connector-curvature="0"
       sodipodi:nodetypes="ccccc" />
  </g>
</svg>
