<?xml version="1.0" encoding="UTF-8" standalone="no"?>
<!-- Created with Inkscape (http://www.inkscape.org/) -->

<svg
   xmlns:dc="http://purl.org/dc/elements/1.1/"
   xmlns:cc="http://creativecommons.org/ns#"
   xmlns:rdf="http://www.w3.org/1999/02/22-rdf-syntax-ns#"
   xmlns:svg="http://www.w3.org/2000/svg"
   xmlns="http://www.w3.org/2000/svg"
   xmlns:sodipodi="http://sodipodi.sourceforge.net/DTD/sodipodi-0.dtd"
   xmlns:inkscape="http://www.inkscape.org/namespaces/inkscape"
   width="2000"
   height="2048"
   id="svg2992"
   version="1.1"
   inkscape:version="0.91pre2 r13516"
   sodipodi:docname="യ.svg">
  <defs
     id="defs5498">
    <inkscape:path-effect
       effect="spiro"
       id="path-effect6255"
       is_visible="true" />
  </defs>
  <sodipodi:namedview
     inkscape:window-height="853"
     inkscape:window-width="1600"
     inkscape:pageshadow="2"
     inkscape:pageopacity="0.0"
     borderopacity="1.0"
     bordercolor="#666666"
     pagecolor="#ffffff"
     id="base"
     showgrid="true"
     showguides="true"
     inkscape:guide-bbox="true"
     inkscape:zoom="0.227"
     inkscape:cx="336.71573"
     inkscape:cy="1167.8463"
     inkscape:window-x="1598"
     inkscape:window-y="-3"
     inkscape:current-layer="layer1"
     inkscape:window-maximized="1">
    <sodipodi:guide
       orientation="horizontal"
       position="0,600"
       id="guide5596" />
    <inkscape:grid
       type="xygrid"
       id="grid3769"
       empspacing="3"
       visible="true"
       enabled="true"
       snapvisiblegridlinesonly="true"
       spacingx="4px"
       units="px"
       dotted="true"
       spacingy="4px" />
    <sodipodi:guide
       orientation="0,1"
       position="-1040,1600"
       id="guide2985" />
  </sodipodi:namedview>
  <metadata
     id="metadata5594">
    <rdf:RDF>
      <cc:Work
         rdf:about="">
        <dc:format>image/svg+xml</dc:format>
        <dc:type
           rdf:resource="http://purl.org/dc/dcmitype/StillImage" />
        <dc:title />
      </cc:Work>
    </rdf:RDF>
  </metadata>
  <g
     inkscape:label="Layer 1"
     inkscape:groupmode="layer"
     id="layer1"
     transform="translate(0,1048)">
    <path
       style="fill:none;fill-rule:evenodd;stroke:#000000;stroke-width:130;stroke-linecap:round;stroke-linejoin:round;stroke-miterlimit:4;stroke-dasharray:none;stroke-opacity:1"
       d="m -910.82569,-369.87956 c -13.18501,-25.30062 -17.1336,-55.2896 -10.947,-83.14084 6.18659,-27.85125 22.46029,-53.34825 45.11686,-70.68738 17.87634,-13.68081 39.46687,-22.26143 61.73911,-25.52877 22.27224,-3.26734 45.19479,-1.30091 66.86571,4.79002 43.34184,12.18186 80.85719,40.4327 110.58419,74.24421 64.1522,72.96676 94.28965,172.36711 92.02571,269.49861 -2.26393,97.1315 -35.18422,191.9419859 -84.40979,275.706516 -58.81247,100.078054 -143.81773,187.868524 -250.78453,232.953204 -95.2639,40.1521 -205.28667,44.08361 -303.17347,10.83346 -97.8868,-33.25014 -182.7521,-103.38112 -233.8507,-193.24955 -51.0986,-89.868437 -67.9682,-198.661287 -46.4851,-299.78437 21.4831,-101.12308 81.1246,-193.66152 164.3452,-254.99449 26.7659,-34.3505 65.0864,-59.53174 107.2381,-70.46848 42.1516,-10.93674 87.881,-7.56325 127.9714,9.44057 35.6731,15.13027 66.47514,40.60711 90.50576,71.0049 24.03062,30.39779 41.49644,65.61979 54.14343,102.24697 25.29398,73.25434 31.53157,151.43728 43.28498,228.039117 14.21122,92.6204153 37.36706,185.509852 85.42026,265.954803 24.0266,40.22247 54.2042,76.99411 90.51683,106.60015 36.31263,29.60604 78.86095,51.93065 124.4557,62.71228 45.81632,10.83402 94.20397,9.85283 139.91253,-1.42721 45.70856,-11.28005 88.72377,-32.73713 126.13449,-61.31946 74.82144,-57.16467 125.94415,-141.80101 152.73575,-232.068705 32.38307,-109.106807 30.57873,-228.095935 -5.09768,-336.170685 -35.67641,-108.07476 -105.06586,-204.75346 -196.04062,-273.13878"
       id="path6253"
       inkscape:path-effect="#path-effect6255"
       inkscape:original-d="m -910.82569,-369.87956 c 0,-120.38729 -136.67941,-153.82822 34.16986,-153.82822 170.84929,0 222.1041,-247.46277 239.18901,53.50546 17.08491,300.96826 93.04057,324.49508 7.61592,545.205126 C -715.27555,295.71286 -766.51011,256.0262 -880.63543,307.95601 -1362.6063,531.54767 -1770.6063,3.5476666 -1299.7995,-429.23894 c 136.6795,-33.44093 56.3108,-122.18642 235.2095,-61.02791 279.76912,95.64222 68.33966,140.45184 187.93417,401.290987 119.5945,260.839163 95.37363,455.331793 300.39279,435.267233 205.01907,-20.06455 430.92807,120.88647 418.78277,-294.815375 -14.1453,-484.158485 -64.4589,-609.309465 -201.1383,-609.309465"
       inkscape:connector-curvature="0"
       sodipodi:nodetypes="csssccssssc" />
    <path
       style="fill:none;fill-rule:evenodd;stroke:#000000;stroke-width:130;stroke-linecap:round;stroke-linejoin:round;stroke-miterlimit:4;stroke-dasharray:none;stroke-opacity:1"
       d="M 991.11997,-359.41457 C 1104,-728 1488,-488 1399.3605,-62.939653 1286.3795,478.8472 585.09679,494.2575 406.11157,136.28706 151.18767,-373.56075 558.50987,-664.02397 858.33522,-353.34502 960,-248 1077.5064,246.07418 1307.3701,325.90916 1728,472 2112,40 1649.9804,-553.27488"
       id="path4141"
       inkscape:connector-curvature="0"
       sodipodi:nodetypes="cssssc" />
  </g>
</svg>
