<?xml version="1.0" encoding="UTF-8" standalone="no"?>
<!-- Created with Inkscape (http://www.inkscape.org/) -->

<svg
   xmlns:dc="http://purl.org/dc/elements/1.1/"
   xmlns:cc="http://creativecommons.org/ns#"
   xmlns:rdf="http://www.w3.org/1999/02/22-rdf-syntax-ns#"
   xmlns:svg="http://www.w3.org/2000/svg"
   xmlns="http://www.w3.org/2000/svg"
   xmlns:sodipodi="http://sodipodi.sourceforge.net/DTD/sodipodi-0.dtd"
   xmlns:inkscape="http://www.inkscape.org/namespaces/inkscape"
   sodipodi:docname="യൂ.svg"
   inkscape:version="0.91pre2 r13516"
   version="1.1"
   id="svg2992"
   height="2048"
   width="2000">
  <defs
     id="defs5498">
    <inkscape:path-effect
       effect="spiro"
       id="path-effect6255"
       is_visible="true" />
  </defs>
  <sodipodi:namedview
     inkscape:window-height="857"
     inkscape:window-width="1600"
     inkscape:pageshadow="2"
     inkscape:pageopacity="0.0"
     borderopacity="1.0"
     bordercolor="#666666"
     pagecolor="#ffffff"
     id="base"
     showgrid="true"
     showguides="true"
     inkscape:guide-bbox="true"
     inkscape:zoom="0.25"
     inkscape:cx="114.4613"
     inkscape:cy="619.38446"
     inkscape:window-x="1593"
     inkscape:window-y="-12"
     inkscape:current-layer="layer1"
     inkscape:window-maximized="1">
    <sodipodi:guide
       orientation="horizontal"
       position="0,600"
       id="guide5596" />
    <inkscape:grid
       type="xygrid"
       id="grid3769"
       empspacing="3"
       visible="true"
       enabled="true"
       snapvisiblegridlinesonly="true"
       spacingx="4px"
       units="px"
       dotted="true"
       spacingy="4px" />
    <sodipodi:guide
       orientation="0,1"
       position="-1040,1600"
       id="guide2985" />
  </sodipodi:namedview>
  <metadata
     id="metadata5594">
    <rdf:RDF>
      <cc:Work
         rdf:about="">
        <dc:format>image/svg+xml</dc:format>
        <dc:type
           rdf:resource="http://purl.org/dc/dcmitype/StillImage" />
        <dc:title />
      </cc:Work>
    </rdf:RDF>
  </metadata>
  <g
     inkscape:label="Layer 1"
     inkscape:groupmode="layer"
     id="layer1"
     transform="translate(0,1048)">
    <path
       style="fill:none;fill-rule:evenodd;stroke:#000000;stroke-width:130;stroke-linecap:round;stroke-linejoin:round;stroke-miterlimit:4;stroke-dasharray:none;stroke-opacity:1"
       d="m 1252.3418,305.94878 c -444.4903,611.50972 822.5832,498.0859 380.8774,112.3364 -339.7846,-296.73988 -393.3677,259.1733 -130.58,142.5187"
       id="path4798"
       inkscape:connector-curvature="0"
       sodipodi:nodetypes="csc" />
    <path
       style="fill:none;fill-rule:evenodd;stroke:#000000;stroke-width:130;stroke-linecap:round;stroke-linejoin:round;stroke-miterlimit:4;stroke-dasharray:none;stroke-opacity:1"
       d="m 696.87318,-359.22455 c -13.185,-25.30062 -17.13359,-55.2896 -10.947,-83.14084 6.1866,-27.85125 22.46029,-53.34825 45.11686,-70.68738 17.87635,-13.68081 39.46688,-22.26144 61.73912,-25.52878 22.27225,-3.26734 45.1948,-1.30091 66.86572,4.79002 43.34186,12.18185 80.85722,40.4327 110.58422,74.24422 64.1522,72.96676 94.2896,172.36711 92.0257,269.49861 C 1059.9939,-92.917206 1027.0736,1.8932823 977.848,85.65781 919.03552,185.73587 834.03025,273.52635 727.06344,318.61102 631.79955,358.76311 521.77677,362.69461 423.88996,329.44446 326.00315,296.19432 241.13789,226.06334 190.03931,136.19491 138.94072,46.326473 122.07112,-62.466372 143.55423,-163.58945 c 21.48311,-101.12307 81.12458,-193.66151 164.34517,-254.99448 26.94038,-34.13725 65.24967,-59.14203 107.34306,-70.06366 42.09339,-10.92164 87.72717,-7.6969 127.86635,9.03575 35.83542,14.93856 66.89347,40.21591 91.19149,70.49699 24.29802,30.28109 42.03419,65.46624 54.82988,102.1215 25.59138,73.31053 31.61991,151.70883 41.91286,228.6725 12.56453,93.94899 32.47274,188.91353 79.99872,270.92305 23.76299,41.00476 54.37298,78.33849 91.78116,107.43657 37.40818,29.09808 81.75974,49.77645 128.61288,56.90761 42.3228,6.44163 86.1011,1.73829 126.6411,-12.01743 40.5399,-13.75572 77.8544,-36.43401 109.8485,-64.87856 63.9881,-56.8891 105.7285,-135.6449 129.4298,-217.91939 30.2737,-105.089044 32.6341,-218.08318 6.7754,-324.3448 -25.8587,-106.26162 -79.8746,-205.53663 -155.0503,-284.96466"
       id="path6253"
       inkscape:path-effect="#path-effect6255"
       inkscape:original-d="m 696.87318,-359.22455 c 0,-120.38729 -136.67944,-153.82822 34.16986,-153.82822 170.84926,0 222.10406,-247.46273 239.18906,53.50546 17.0849,300.96826 93.0405,324.49508 7.6159,545.20512 C 892.4233,306.36787 841.1888,266.68121 727.06344,318.61102 245.09251,542.2027 -162.90749,14.20268 307.8994,-418.58393 444.57883,-452.02486 364.21014,-540.77035 543.10881,-479.61184 822.878,-383.96962 611.44853,-339.16 731.04304,-78.32085 850.6375,182.51831 826.4167,377.01094 1031.4358,356.94638 1236.4549,336.88183 1409.5005,477.8329 1397.3552,62.131 c -14.1453,-484.15848 -11.5955,-609.30946 -148.2749,-609.30946"
       inkscape:connector-curvature="0"
       sodipodi:nodetypes="csssccssssc" />
  </g>
</svg>
