<?xml version="1.0" encoding="UTF-8" standalone="no"?>
<!-- Created with Inkscape (http://www.inkscape.org/) -->

<svg
   xmlns:dc="http://purl.org/dc/elements/1.1/"
   xmlns:cc="http://creativecommons.org/ns#"
   xmlns:rdf="http://www.w3.org/1999/02/22-rdf-syntax-ns#"
   xmlns:svg="http://www.w3.org/2000/svg"
   xmlns="http://www.w3.org/2000/svg"
   xmlns:sodipodi="http://sodipodi.sourceforge.net/DTD/sodipodi-0.dtd"
   xmlns:inkscape="http://www.inkscape.org/namespaces/inkscape"
   width="2048"
   height="2000"
   id="svg2992"
   version="1.1"
   inkscape:version="0.91pre2 r13516"
   sodipodi:docname="രൂ.svg">
  <defs
     id="defs5498">
    <inkscape:path-effect
       effect="spiro"
       id="path-effect4574"
       is_visible="true" />
  </defs>
  <sodipodi:namedview
     inkscape:window-height="857"
     inkscape:window-width="1600"
     inkscape:pageshadow="2"
     inkscape:pageopacity="0.0"
     borderopacity="1.0"
     bordercolor="#666666"
     pagecolor="#ffffff"
     id="base"
     showgrid="true"
     showguides="true"
     inkscape:guide-bbox="true"
     inkscape:zoom="0.32102648"
     inkscape:cx="-16.763673"
     inkscape:cy="1158.3157"
     inkscape:window-x="1593"
     inkscape:window-y="-12"
     inkscape:current-layer="layer1"
     inkscape:window-maximized="1">
    <sodipodi:guide
       orientation="horizontal"
       position="0,600"
       id="guide5596" />
    <inkscape:grid
       type="xygrid"
       id="grid3769"
       empspacing="5"
       visible="true"
       enabled="true"
       snapvisiblegridlinesonly="true" />
    <sodipodi:guide
       orientation="0,1"
       position="-1400,1600"
       id="guide4157" />
  </sodipodi:namedview>
  <metadata
     id="metadata5594">
    <rdf:RDF>
      <cc:Work
         rdf:about="">
        <dc:format>image/svg+xml</dc:format>
        <dc:type
           rdf:resource="http://purl.org/dc/dcmitype/StillImage" />
        <dc:title />
      </cc:Work>
    </rdf:RDF>
  </metadata>
  <g
     inkscape:label="Layer 1"
     inkscape:groupmode="layer"
     id="layer1"
     transform="translate(0,1000)">
    <path
       style="fill:none;stroke:#000000;stroke-width:114.21286774;stroke-linecap:round;stroke-linejoin:round;stroke-miterlimit:4;stroke-dasharray:none;stroke-opacity:1"
       d="M 306.95534,359.48259 C 228.97184,286.17325 171.49091,191.27789 142.63705,88.209269 c -28.85386,-103.068622 -28.998,-214.015299 -0.41206,-317.158549 22.72273,-81.98771 64.18921,-159.95517 126.23215,-218.17013 62.04294,-58.21496 145.6283,-95.32863 230.6836,-93.35264 54.56189,1.26757 108.30277,18.37555 155.10353,46.45216 46.80075,28.07662 86.76818,66.89295 118.61989,111.21084 63.70341,88.63579 94.28444,197.11702 109.32638,305.228845 12.49083,89.776087 14.56758,183.923885 -18.78597,268.205005 -16.67677,42.14056 -42.25085,81.12851 -76.46356,110.85109 -34.21272,29.72258 -77.2777,49.84084 -122.41807,53.87679 C 605.34693,360.64355 545.57178,337.87873 499.93733,299.83547 454.30287,261.79221 422.01708,209.49718 401.17516,153.86079 360.9647,46.521101 362.44632,-75.837447 405.24413,-182.172 c 42.79782,-106.33455 126.49267,-195.6037 229.85084,-245.15951 117.81805,-76.91077 274.61966,-90.21059 403.70843,-34.24231 30.6611,13.29355 60.0012,30.38249 84.2919,53.33428 17.3034,16.3497 31.9404,35.71227 41.6285,57.45765 9.6882,21.74539 14.2449,45.81386 12.6769,69.56809 -1.568,23.75423 -9.2721,46.9115 -21.0412,67.60475 -11.7691,20.69324 -27.4841,38.82164 -43.3126,56.60312 l -100.9042,113.354219 c 32.2696,-13.141686 70.4404,-10.848187 100.9042,6.062845 23.0008,12.768189 41.3129,33.290064 52.9849,56.866145 11.6719,23.576081 16.8749,50.08954 16.7679,76.396463 -0.2141,52.613848 -21.0624,103.048868 -46.7438,148.969748 C 1039.6298,417.06289 867.23436,545.1479 674.3205,587.70012 481.40664,630.25235 271.12494,586.57684 111.11227,470.72177 -48.900389,354.8667 -156.03073,168.72419 -175.82038,-27.833232 -195.61004,-224.39065 -127.73582,-428.15285 5.9706179,-573.57994"
       id="path4572"
       inkscape:path-effect="#path-effect4574"
       inkscape:original-d="M 306.95534,359.48259 C 279.50027,290.25531 59.859807,-159.72199 142.22499,-228.94928 c 82.36517,-69.22728 268.87396,-306.44971 356.91575,-311.52277 298.84773,-17.21991 354.9107,306.59397 383.0498,462.891845 C 937.1006,199.32889 774.34307,320.73905 664.52294,355.35268 554.70274,389.96633 373.7201,361.54263 401.17516,153.86079 c 27.45507,-207.681836 206.46476,-546.57866 233.91981,-581.1923 0,0 310.63204,-113.85367 403.70843,-34.24231 93.0765,79.61138 53.2666,-26.2771 84.2919,53.33428 31.0255,79.61137 43.2533,191.3553 -10.0484,251.23361 l -100.9042,113.354219 c 0,0 7.8278,-192.965589 100.9042,6.062845 93.0763,199.028426 183.4868,-21.560249 23.009,282.232356 C 891.91639,706.81235 5.9706179,-573.57994 5.9706179,-573.57994"
       inkscape:connector-curvature="0"
       sodipodi:nodetypes="csscsscssscssc" />
  </g>
</svg>
