<?xml version="1.0" encoding="UTF-8" standalone="no"?>
<!-- Created with Inkscape (http://www.inkscape.org/) -->

<svg
   xmlns:dc="http://purl.org/dc/elements/1.1/"
   xmlns:cc="http://creativecommons.org/ns#"
   xmlns:rdf="http://www.w3.org/1999/02/22-rdf-syntax-ns#"
   xmlns:svg="http://www.w3.org/2000/svg"
   xmlns="http://www.w3.org/2000/svg"
   xmlns:sodipodi="http://sodipodi.sourceforge.net/DTD/sodipodi-0.dtd"
   xmlns:inkscape="http://www.inkscape.org/namespaces/inkscape"
   width="2048"
   height="2000"
   id="svg2992"
   version="1.1"
   inkscape:version="0.91pre2 r13516"
   sodipodi:docname="രൂ.svg">
  <defs
     id="defs5498">
    <inkscape:path-effect
       effect="spiro"
       id="path-effect4574"
       is_visible="true" />
  </defs>
  <sodipodi:namedview
     inkscape:window-height="857"
     inkscape:window-width="1600"
     inkscape:pageshadow="2"
     inkscape:pageopacity="0.0"
     borderopacity="1.0"
     bordercolor="#666666"
     pagecolor="#ffffff"
     id="base"
     showgrid="true"
     showguides="true"
     inkscape:guide-bbox="true"
     inkscape:zoom="0.32102648"
     inkscape:cx="409.9924"
     inkscape:cy="909.11509"
     inkscape:window-x="1593"
     inkscape:window-y="-12"
     inkscape:current-layer="layer1"
     inkscape:window-maximized="1">
    <sodipodi:guide
       orientation="horizontal"
       position="0,600"
       id="guide5596" />
    <inkscape:grid
       type="xygrid"
       id="grid3769"
       empspacing="5"
       visible="true"
       enabled="true"
       snapvisiblegridlinesonly="true" />
    <sodipodi:guide
       orientation="0,1"
       position="-1400,1600"
       id="guide4157" />
  </sodipodi:namedview>
  <metadata
     id="metadata5594">
    <rdf:RDF>
      <cc:Work
         rdf:about="">
        <dc:format>image/svg+xml</dc:format>
        <dc:type
           rdf:resource="http://purl.org/dc/dcmitype/StillImage" />
        <dc:title></dc:title>
      </cc:Work>
    </rdf:RDF>
  </metadata>
  <g
     inkscape:label="Layer 1"
     inkscape:groupmode="layer"
     id="layer1"
     transform="translate(0,1000)">
    <path
       style="fill:none;stroke:#000000;stroke-width:130;stroke-linecap:round;stroke-linejoin:round;stroke-miterlimit:4;stroke-dasharray:none;stroke-opacity:1"
       d="M 425.16048,362.6199 C 326.2734,306.00397 248.56079,213.33135 210.04306,106.09142 c -38.51774,-107.239923 -37.52913,-228.17994 2.73658,-334.77586 34.91879,-92.44095 98.90674,-173.65828 180.60931,-229.24012 81.70257,-55.58184 180.74386,-85.27248 279.54919,-83.80337 122.36384,7.82652 241.46238,59.54471 330.71826,143.61342 89.2559,84.0687 148.0038,199.86126 163.1339,321.53806 11.8158,95.022918 -3.2815,194.88331 -52.2129,277.19178 -24.4657,41.15424 -57.1599,77.55897 -96.2805,105.16009 -39.12057,27.60111 -84.6922,46.27682 -132.1375,52.69442 -69.84798,9.44786 -142.37627,-8.21969 -202.22286,-45.45392 -59.84658,-37.23423 -107.10215,-93.33501 -137.30185,-157.02158 -54.26753,-114.441944 -51.90086,-254.135713 6.21213,-366.67372 58.11299,-112.53801 170.6426,-195.34525 295.37216,-217.3557 162.05342,-72.63908 350.28092,-85.08284 520.48662,-34.40947 39.0121,11.61463 77.9314,26.91679 108.6745,53.59463 18.1463,15.74676 33.0766,35.33441 42.5895,57.3969 9.5129,22.06249 13.4534,46.50907 11.2555,70.43433 -2.1979,23.92526 -10.5084,47.08211 -22.6782,67.79791 -12.1698,20.7158 -28.0981,38.92872 -44.1219,56.83089 L 1323.115,1.4853058 c 15.0134,-21.8905618 38.0195,-38.1679268 63.6588,-45.0399988 25.6393,-6.872072 53.7023,-4.282727 77.6512,7.164803 24.044,11.492953 43.5597,31.546433 56.1301,55.045037 12.5705,23.498605 18.3968,50.295346 18.6972,76.943239 0.6009,53.295784 -20.2042,104.527384 -45.1625,151.621834 C 1389.7801,444.04508 1203.6461,595.84818 989.86535,658.44456 776.08456,721.04095 537.46889,693.60729 343.47159,584.12862 149.47429,474.64995 2.6470415,284.56627 -54.273515,69.204749 -111.19407,-146.15677 -77.459252,-383.96343 37.111837,-574.99745"
       id="path4572"
       inkscape:path-effect="#path-effect4574"
       inkscape:original-d="m 425.16048,362.6199 c -35.39681,-69.56522 -318.57127,-521.73912 -212.38084,-591.30434 106.19041,-69.56522 353.96807,-278.26088 460.1585,-313.04349 385.53696,12.69858 457.57346,308.09064 493.85216,465.15148 70.7936,278.26086 -139.0438,400.26368 -280.6309,435.04629 -141.5872,34.78261 -374.92153,6.22016 -339.52471,-202.4755 35.3968,-208.695649 266.18749,-549.24681 301.58429,-584.02942 0,0 400.48662,-114.40947 520.48662,-34.40947 120,80 68.6745,-26.40537 108.6745,53.59463 40,80 46.6973,185.81478 -12.9551,252.46003 L 1323.115,1.4853058 c 0,0 21.31,-237.8751958 141.31,-37.8751958 120,200 236.5628,-21.665497 29.6648,283.61011 C 1179.3295,711.64518 37.111837,-574.99745 37.111837,-574.99745"
       inkscape:connector-curvature="0"
       sodipodi:nodetypes="csccsscssscssc" />
  </g>
</svg>
