<?xml version="1.0" encoding="UTF-8" standalone="no"?>
<!-- Created with Inkscape (http://www.inkscape.org/) -->

<svg
   xmlns:dc="http://purl.org/dc/elements/1.1/"
   xmlns:cc="http://creativecommons.org/ns#"
   xmlns:rdf="http://www.w3.org/1999/02/22-rdf-syntax-ns#"
   xmlns:svg="http://www.w3.org/2000/svg"
   xmlns="http://www.w3.org/2000/svg"
   xmlns:sodipodi="http://sodipodi.sourceforge.net/DTD/sodipodi-0.dtd"
   xmlns:inkscape="http://www.inkscape.org/namespaces/inkscape"
   width="2048"
   height="2000"
   id="svg2992"
   version="1.1"
   inkscape:version="0.91pre2 r13516"
   sodipodi:docname="രു.svg">
  <defs
     id="defs5498">
    <inkscape:path-effect
       effect="spiro"
       id="path-effect4574"
       is_visible="true" />
  </defs>
  <sodipodi:namedview
     inkscape:window-height="884"
     inkscape:window-width="1600"
     inkscape:pageshadow="2"
     inkscape:pageopacity="0.0"
     borderopacity="1.0"
     bordercolor="#666666"
     pagecolor="#ffffff"
     id="base"
     showgrid="true"
     showguides="true"
     inkscape:guide-bbox="true"
     inkscape:zoom="0.32102648"
     inkscape:cx="-16.763673"
     inkscape:cy="1033.7154"
     inkscape:window-x="-7"
     inkscape:window-y="-12"
     inkscape:current-layer="layer1"
     inkscape:window-maximized="1">
    <sodipodi:guide
       orientation="horizontal"
       position="0,600"
       id="guide5596" />
    <inkscape:grid
       type="xygrid"
       id="grid3769"
       empspacing="5"
       visible="true"
       enabled="true"
       snapvisiblegridlinesonly="true" />
    <sodipodi:guide
       orientation="0,1"
       position="-1400,1600"
       id="guide4157" />
  </sodipodi:namedview>
  <metadata
     id="metadata5594">
    <rdf:RDF>
      <cc:Work
         rdf:about="">
        <dc:format>image/svg+xml</dc:format>
        <dc:type
           rdf:resource="http://purl.org/dc/dcmitype/StillImage" />
        <dc:title />
      </cc:Work>
    </rdf:RDF>
  </metadata>
  <g
     inkscape:label="Layer 1"
     inkscape:groupmode="layer"
     id="layer1"
     transform="translate(0,1000)">
    <path
       style="fill:none;stroke:#000000;stroke-width:120.73309326;stroke-linecap:round;stroke-linejoin:round;stroke-miterlimit:4;stroke-dasharray:none;stroke-opacity:1"
       d="M 384.93721,367.26179 C 299.01877,297.80833 234.57741,202.15039 202.48955,96.433171 170.4017,-9.2840526 170.8003,-124.62256 203.61808,-230.11547 c 26.80063,-86.15076 75.60602,-166.30886 144.45226,-224.622 68.84625,-58.31313 158.20584,-93.68103 248.40588,-91.63657 57.32674,1.29936 114.00268,17.46196 164.46538,44.69353 50.46271,27.23157 94.75967,65.36911 130.92616,109.86662 72.33298,88.99501 111.16674,201.67957 126.23244,315.368616 12.2422,92.382222 8.9782,189.481854 -29.58945,274.316274 -19.28384,42.41721 -47.33992,81.1456 -83.40234,110.65133 -36.06243,29.50572 -80.27172,49.52788 -126.59555,54.54678 -63.11714,6.83835 -127.63538,-14.68366 -178.19661,-53.07765 -50.56123,-38.39398 -87.74199,-92.67311 -111.671,-151.47735 -45.07349,-110.765646 -43.46152,-239.682646 4.36746,-349.28665 47.82897,-109.604 141.24799,-198.45825 253.1087,-240.74098 130.04543,-84.03704 302.83109,-97.5542 444.36299,-34.76287 32.7957,14.54999 63.8913,32.86854 92.7803,54.14507 21.7091,15.9886 42.3819,33.97125 57.6001,56.22719 15.2183,22.25593 24.5117,48.9398 23.8874,75.89404 -0.6243,26.95424 -11.3786,53.29883 -28.7197,73.94363 -17.341,20.64479 -40.624,35.25887 -63.8281,48.98803 l -136.5993,80.821632 c 48.0694,0.743727 95.8621,14.88248 136.5993,40.410816 39.9477,25.033606 73.2211,61.281348 92.3699,104.36064 19.1488,43.079292 23.6678,92.961592 10.0795,138.104252 -16.6671,55.37069 -61.0297,101.63885 -115.6509,120.61855 -54.6212,18.97969 -118.1154,10.18945 -165.5259,-22.91566"
       id="path4572"
       inkscape:path-effect="#path-effect4574"
       inkscape:original-d="M 384.93721,367.26179 C 354.71736,296.98211 112.9585,-159.83579 203.61808,-230.11547 c 90.65956,-70.27968 295.76364,-311.09847 392.85814,-316.25857 328.93607,-17.48134 390.65118,311.25485 421.62398,469.928766 60.4397,281.118704 -118.70802,404.374544 -239.58734,439.514384 -120.8794,35.13984 -320.08748,6.28405 -289.86761,-204.555 30.21985,-210.839036 227.25631,-554.88779 257.47616,-590.02763 0,0 341.91359,-115.5845 444.36299,-34.76287 102.4494,80.82163 58.6305,-26.67656 92.7803,54.14507 34.1498,80.82163 57.2393,214.64207 -11.0603,255.05289 l -136.5993,80.821632 c 0,0 34.1498,-161.643262 136.5993,40.410816 102.4494,202.054082 170.749,-121.232448 102.4494,242.464892 -68.2996,363.69734 -281.1768,97.70289 -281.1768,97.70289"
       inkscape:connector-curvature="0"
       sodipodi:nodetypes="csscsscssscssc" />
  </g>
</svg>
