<?xml version="1.0" encoding="UTF-8" standalone="no"?>
<!-- Created with Inkscape (http://www.inkscape.org/) -->

<svg
   xmlns:dc="http://purl.org/dc/elements/1.1/"
   xmlns:cc="http://creativecommons.org/ns#"
   xmlns:rdf="http://www.w3.org/1999/02/22-rdf-syntax-ns#"
   xmlns:svg="http://www.w3.org/2000/svg"
   xmlns="http://www.w3.org/2000/svg"
   xmlns:sodipodi="http://sodipodi.sourceforge.net/DTD/sodipodi-0.dtd"
   xmlns:inkscape="http://www.inkscape.org/namespaces/inkscape"
   width="2000"
   height="2048"
   id="svg2992"
   version="1.1"
   inkscape:version="0.91pre2 r13516"
   sodipodi:docname="ള.svg">
  <defs
     id="defs5498" />
  <sodipodi:namedview
     inkscape:window-height="853"
     inkscape:window-width="1600"
     inkscape:pageshadow="2"
     inkscape:pageopacity="0.0"
     borderopacity="1.0"
     bordercolor="#666666"
     pagecolor="#ffffff"
     id="base"
     showgrid="true"
     showguides="true"
     inkscape:guide-bbox="true"
     inkscape:zoom="0.227"
     inkscape:cx="226.83992"
     inkscape:cy="174.28808"
     inkscape:window-x="1598"
     inkscape:window-y="-3"
     inkscape:current-layer="layer1"
     inkscape:window-maximized="1">
    <sodipodi:guide
       orientation="horizontal"
       position="0,600"
       id="guide5596" />
    <inkscape:grid
       type="xygrid"
       id="grid3769"
       empspacing="3"
       visible="true"
       enabled="true"
       snapvisiblegridlinesonly="true"
       spacingx="4px"
       units="px"
       dotted="true"
       spacingy="4px" />
    <sodipodi:guide
       orientation="0,1"
       position="-1040,1600"
       id="guide2985" />
  </sodipodi:namedview>
  <metadata
     id="metadata5594">
    <rdf:RDF>
      <cc:Work
         rdf:about="">
        <dc:format>image/svg+xml</dc:format>
        <dc:type
           rdf:resource="http://purl.org/dc/dcmitype/StillImage" />
        <dc:title />
      </cc:Work>
    </rdf:RDF>
  </metadata>
  <g
     inkscape:label="Layer 1"
     inkscape:groupmode="layer"
     id="layer1"
     transform="translate(0,1048)">
    <path
       style="fill:none;stroke:#000000;stroke-width:129.82040405;stroke-linecap:round;stroke-linejoin:round;stroke-miterlimit:4;stroke-dasharray:none;stroke-opacity:1"
       d="m -1851.0597,1462.9781 c 103.8174,-134.8019 365.8439,-81.9384 388.7986,174.828 30.0404,336.0253 -436.0815,294.4326 -421.6105,-219.9447 14.471,-514.37735 742.321,-531.18354 906.38935,-314.022 164.0683,217.1614 -323.45715,404.1446 -234.50285,406.5463 542.76925,14.654 398.76925,336.881 15.575,442.5383 l -394.9517,108.8993 c -288.8147,79.6342 -411.3367,314.558 129.4976,287.2301 l 673.79685,-16.8726"
       id="path3895"
       inkscape:connector-curvature="0"
       sodipodi:nodetypes="cszzssscc" />
    <path
       style="fill:none;stroke:#000000;stroke-width:129.82040405;stroke-linecap:round;stroke-linejoin:round;stroke-miterlimit:4;stroke-dasharray:none;stroke-opacity:1"
       d="m -1826.4099,-99.868694 c 165.5523,-10.766736 284.0551,129.298815 298.2419,196.724799 69.4628,330.136865 -482.6217,316.908265 -468.3355,-195.024649 -1.6976,-504.924286 676.0358,-595.971786 909.5043,-245.491876 152.37165,299.715021 -339.0613,337.2405413 -250.0779,338.0161313 631.34845,94.6206537 440.53935,469.7339587 65.4152,483.0334587 -98.1946,3.4814 -214.8325,8.0541 -321.838,19.5705 -589.4081,64.6633 -524.1031,403.74859 65.7289,311.14369 292.812,-45.9721 793.34355,-5.0091 1106.78295,-32.4476"
       id="path3895-9"
       inkscape:connector-curvature="0"
       sodipodi:nodetypes="cscccscsc" />
    <path
       style="color:#000000;font-style:normal;font-variant:normal;font-weight:normal;font-stretch:normal;font-size:medium;line-height:normal;font-family:sans-serif;text-indent:0;text-align:start;text-decoration:none;text-decoration-line:none;text-decoration-style:solid;text-decoration-color:#000000;letter-spacing:normal;word-spacing:normal;text-transform:none;direction:ltr;block-progression:tb;writing-mode:lr-tb;baseline-shift:baseline;text-anchor:start;clip-rule:nonzero;display:inline;overflow:visible;visibility:visible;opacity:1;isolation:auto;mix-blend-mode:normal;color-interpolation:sRGB;color-interpolation-filters:linearRGB;solid-color:#000000;solid-opacity:1;fill:#000000;fill-opacity:1;fill-rule:nonzero;stroke:none;stroke-width:129.82040405;stroke-linecap:round;stroke-linejoin:round;stroke-miterlimit:4;stroke-dasharray:none;stroke-dashoffset:0;stroke-opacity:1;color-rendering:auto;image-rendering:auto;shape-rendering:auto;text-rendering:auto;enable-background:accumulate"
       d="m 727.70703,-610.92773 c -55.3448,-0.62457 -111.98447,4.46992 -167.80273,15.76953 -111.63652,22.59921 -220.67812,70.35807 -304.71094,151.71679 -84.03282,81.35873 -140.34301,197.54166 -144.39063,341.41602 -7.78782,276.82148 115.82811,449.54948 263.18555,492.96289 73.67872,21.7067 154.46201,8.10315 211.49024,-43.21289 57.02822,-51.31604 85.29785,-135.04302 76.47265,-233.75977 -13.39268,-149.80758 -102.46292,-253.06732 -207.29297,-289.74218 -67.96248,-23.77673 -143.16517,-20.9516 -206.92382,8.80273 14.43081,-77.74539 49.42401,-136.40161 97.75976,-183.19922 61.63615,-59.67476 147.52457,-98.98981 240.16797,-117.74414 92.6434,-18.75432 191.34886,-16.60944 273.14453,2.08985 81.79567,18.69928 144.62106,55.18318 171.48046,90.73437 28.9959,38.37905 26.5959,57.48057 12.4785,89.44922 -14.1174,31.96865 -49.68318,71.13224 -90.99021,105.08789 C 910.46836,-146.60099 865.39166,-117.65483 832.75,-95 c -16.32083,11.327416 -27.41335,15.481568 -45.0957,38.15625 -4.42059,5.66867 -10.39909,13.090379 -14.11328,28.964844 -3.7142,15.874465 0.97238,44.332599 14.89062,60.291015 27.83649,31.916833 45.75235,24.484617 57.39063,24.798829 129.19935,3.488223 212.60513,26.744755 253.78903,51.322262 41.1839,24.57751 42.8494,37.09811 38.9727,60.1836 -3.8767,23.08549 -28.6747,63.98612 -79.4492,103.02929 -50.7746,39.04318 -124.58574,76.09701 -213.23832,100.54102 L 450.94336,481.18555 c -78.95377,21.76976 -147.22595,53.80004 -199.40039,93 -52.17445,39.19995 -95.51507,87.10675 -94.61914,154.16992 0.44796,33.53158 16.45991,67.58667 40.60547,91.18359 24.14556,23.59692 54.70408,39.26354 91.17578,51.06055 72.64573,23.49775 171.74571,32.1867 310.61523,25.28125 l 673.79689,-16.87109 a 64.916693,64.916693 0 1 0 -3.25,-129.78125 l -673.79689,16.87304 a 64.916693,64.916693 0 0 0 -1.65039,0.0625 c -130.65068,6.60167 -218.59378,-3.8272 -265.76172,-19.08398 -23.58397,-7.62839 -36.23397,-16.3226 -40.39258,-20.38672 -0.96375,-0.94186 -0.72706,-0.58945 -1.08007,-0.87891 1.01741,-1.34472 9.47372,-23.14818 42.33789,-47.83984 35.12649,-26.39141 90.47413,-53.59128 155.92773,-71.63867 L 880.40234,497.4375 c 102.94452,-28.38469 190.82986,-71.23084 257.86716,-122.7793 67.0373,-51.54845 116.1654,-111.93123 128.3418,-184.4414 12.1765,-72.51018 -27.9775,-149.898819 -100.4726,-193.1621125 -42.495,-25.3599305 -95.2708,-43.5374275 -160.2305,-55.0566405 9.3752,-7.126539 18.8383,-14.487897 28.3047,-22.269531 48.9465,-40.235536 98.939,-88.687276 127.3086,-152.929686 28.3696,-64.24241 25.384,-149.94872 -27.6543,-220.15039 -55.1748,-73.02953 -144.85627,-115.87934 -246.12892,-139.03125 -50.63632,-11.57596 -104.68644,-17.92035 -160.03125,-18.54492 z m 126.91211,536.992183 c 2.16358,-0.05859 5.05542,0.434933 8.62891,2 -4.71684,-0.172605 -9.11384,-0.497142 -13.92188,-0.626953 0.19462,0.0053 1.9057,-1.281317 5.29297,-1.373047 z m -496.99219,11.773438 c 17.71369,-0.312456 36.07384,2.596318 54.16016,8.923828 57.87621,20.248031 111.29734,71.802902 120.85937,178.761721 6.195,69.2959 -12.53537,106.38106 -34.0039,125.69922 -21.46854,19.31815 -50.67899,26.17101 -87.9668,15.18554 C 347.22805,247.71568 263.82335,168.67473 244.44727,-0.77148438 A 64.916693,64.916693 0 0 0 259.92578,-15.478516 c 22.89239,-29.724621 58.73107,-45.996192 97.70117,-46.683593 z"
       id="path3895-6"
       inkscape:connector-curvature="0" />
  </g>
</svg>
