<?xml version="1.0" encoding="UTF-8" standalone="no"?>
<!-- Created with Inkscape (http://www.inkscape.org/) -->

<svg
   xmlns:dc="http://purl.org/dc/elements/1.1/"
   xmlns:cc="http://creativecommons.org/ns#"
   xmlns:rdf="http://www.w3.org/1999/02/22-rdf-syntax-ns#"
   xmlns:svg="http://www.w3.org/2000/svg"
   xmlns="http://www.w3.org/2000/svg"
   xmlns:sodipodi="http://sodipodi.sourceforge.net/DTD/sodipodi-0.dtd"
   xmlns:inkscape="http://www.inkscape.org/namespaces/inkscape"
   width="2000"
   height="2048"
   id="svg2992"
   version="1.1"
   inkscape:version="0.48.5 r10040"
   sodipodi:docname="ശ.svg">
  <defs
     id="defs5498" />
  <sodipodi:namedview
     inkscape:window-height="857"
     inkscape:window-width="1600"
     inkscape:pageshadow="2"
     inkscape:pageopacity="0.0"
     borderopacity="1.0"
     bordercolor="#666666"
     pagecolor="#ffffff"
     id="base"
     showgrid="true"
     showguides="true"
     inkscape:guide-bbox="true"
     inkscape:zoom="0.32102648"
     inkscape:cx="384.60381"
     inkscape:cy="784.51476"
     inkscape:window-x="1593"
     inkscape:window-y="-12"
     inkscape:current-layer="layer1"
     inkscape:window-maximized="1">
    <sodipodi:guide
       orientation="horizontal"
       position="0,600"
       id="guide5596" />
    <inkscape:grid
       type="xygrid"
       id="grid3769"
       empspacing="3"
       visible="true"
       enabled="true"
       snapvisiblegridlinesonly="true"
       spacingx="4px"
       units="px"
       dotted="true"
       spacingy="4px" />
    <sodipodi:guide
       orientation="0,1"
       position="-1040,1600"
       id="guide2985" />
  </sodipodi:namedview>
  <metadata
     id="metadata5594">
    <rdf:RDF>
      <cc:Work
         rdf:about="">
        <dc:format>image/svg+xml</dc:format>
        <dc:type
           rdf:resource="http://purl.org/dc/dcmitype/StillImage" />
        <dc:title></dc:title>
      </cc:Work>
    </rdf:RDF>
  </metadata>
  <g
     inkscape:label="Layer 1"
     inkscape:groupmode="layer"
     id="layer1"
     transform="translate(0,1048)">
    <path
       style="fill:none;stroke:#000000;stroke-width:130;stroke-linecap:round;stroke-linejoin:round;stroke-miterlimit:4;stroke-opacity:1;stroke-dasharray:none"
       d="M 288,-536 C 141.01776,-374.21182 64.648558,-130.16312 149.35489,79.1924 c 54.31749,142.9307 197.6419,243.4011 350.19901,247.9683 65.83976,1.4876 128.10341,-33.3475 182.51314,-67.9045 113.07033,-76.2441 141.24047,-218.918 161.02162,-344.7251 19.59062,-129.39407 63.02448,-266.07488 172.78794,-347.26765 107.7934,-84.51339 253.1019,-114.73149 387.4744,-97.22132 173.8708,25.61121 324.347,161.91836 372.649,329.95787 23.1349,153.5435 20.9334,333.3243 -90.0349,454.6776 -118.8542,131.4843 -345.4738,108.3912 -453.7485,-24.6837 -53.2906,-58.6978 -53.4908,-143.7904 -62.4022,-218.4181 -12.3513,-167.25309 49.1561,-354.58119 202.2415,-440.70814 l 9.846,-5.54903 L 1392,-440"
       id="path3916"
       inkscape:connector-curvature="0" />
  </g>
</svg>
