<?xml version="1.0" encoding="UTF-8" standalone="no"?>
<!-- Created with Inkscape (http://www.inkscape.org/) -->

<svg
   xmlns:dc="http://purl.org/dc/elements/1.1/"
   xmlns:cc="http://creativecommons.org/ns#"
   xmlns:rdf="http://www.w3.org/1999/02/22-rdf-syntax-ns#"
   xmlns:svg="http://www.w3.org/2000/svg"
   xmlns="http://www.w3.org/2000/svg"
   xmlns:sodipodi="http://sodipodi.sourceforge.net/DTD/sodipodi-0.dtd"
   xmlns:inkscape="http://www.inkscape.org/namespaces/inkscape"
   width="2000"
   height="2048"
   id="svg2992"
   version="1.1"
   inkscape:version="0.91pre2 r13516"
   sodipodi:docname="ശു.svg">
  <defs
     id="defs5498" />
  <sodipodi:namedview
     inkscape:window-height="851"
     inkscape:window-width="1600"
     inkscape:pageshadow="2"
     inkscape:pageopacity="0.0"
     borderopacity="1.0"
     bordercolor="#666666"
     pagecolor="#ffffff"
     id="base"
     showgrid="true"
     showguides="true"
     inkscape:guide-bbox="true"
     inkscape:zoom="0.227"
     inkscape:cx="1641.6294"
     inkscape:cy="512.66876"
     inkscape:window-x="1599"
     inkscape:window-y="-1"
     inkscape:current-layer="layer1"
     inkscape:window-maximized="1">
    <sodipodi:guide
       orientation="horizontal"
       position="0,600"
       id="guide5596" />
    <inkscape:grid
       type="xygrid"
       id="grid3769"
       empspacing="3"
       visible="true"
       enabled="true"
       snapvisiblegridlinesonly="true"
       spacingx="4px"
       units="px"
       dotted="true"
       spacingy="4px" />
    <sodipodi:guide
       orientation="0,1"
       position="-1040,1600"
       id="guide2985" />
  </sodipodi:namedview>
  <metadata
     id="metadata5594">
    <rdf:RDF>
      <cc:Work
         rdf:about="">
        <dc:format>image/svg+xml</dc:format>
        <dc:type
           rdf:resource="http://purl.org/dc/dcmitype/StillImage" />
        <dc:title />
      </cc:Work>
    </rdf:RDF>
  </metadata>
  <g
     inkscape:label="Layer 1"
     inkscape:groupmode="layer"
     id="layer1"
     transform="translate(0,1048)">
    <path
       style="fill:none;stroke:#000000;stroke-width:130;stroke-linecap:round;stroke-linejoin:round;stroke-miterlimit:4;stroke-dasharray:none;stroke-opacity:1"
       d="M 243.26056,-543.1005 C 79.305712,-285.61964 29.329202,307.57734 408.94408,333.9999 609.20758,312.65841 659.43452,65.312894 677.99159,-85.293504 802.04678,-878.75475 1745.4212,-571.1303 1477.4097,42.723755 1296,520 768,376 1055.36,-48.981728 1776,-872 2400,520 1197.7899,554.34328 816,616 864,856 1299.6669,849.41553 c 250.5804,-3.78716 595.8973,-29.9014 722.1227,-29.73493"
       id="path3916"
       inkscape:connector-curvature="0"
       sodipodi:nodetypes="ccccccsc" />
    <path
       style="fill:none;stroke:#000000;stroke-width:130;stroke-linecap:round;stroke-linejoin:round;stroke-miterlimit:4;stroke-dasharray:none;stroke-opacity:1"
       d="m -3178.9773,-499.61152 c -163.9549,257.4808 -213.9314,850.6778 165.6835,877.10036 200.2635,-21.34149 250.4904,-268.68701 269.0475,-419.293408 124.0552,-793.461252 1067.4296,-485.836752 799.4181,128.01726 -181.4097,429.276288 -691.4638,347.070488 -503.0399,-97.9355 81.6302,-192.788212 640.4946,-706.789312 857.0266,-65.58483 232.6036,688.796618 -618.6794,741.840618 -1227.4799,683.158718 -814.6066,-85.9723 -686.0922,305.3249 -19.7157,321.0027 216.2242,5.0871 1414.2396,-5.4344 1542.2468,-53.1786"
       id="path3916-6"
       inkscape:connector-curvature="0"
       sodipodi:nodetypes="ccccsscsc" />
  </g>
</svg>
