<?xml version="1.0" encoding="UTF-8" standalone="no"?>
<!-- Created with Inkscape (http://www.inkscape.org/) -->

<svg
   xmlns:dc="http://purl.org/dc/elements/1.1/"
   xmlns:cc="http://creativecommons.org/ns#"
   xmlns:rdf="http://www.w3.org/1999/02/22-rdf-syntax-ns#"
   xmlns:svg="http://www.w3.org/2000/svg"
   xmlns="http://www.w3.org/2000/svg"
   xmlns:sodipodi="http://sodipodi.sourceforge.net/DTD/sodipodi-0.dtd"
   xmlns:inkscape="http://www.inkscape.org/namespaces/inkscape"
   width="2000"
   height="2048"
   id="svg2992"
   version="1.1"
   inkscape:version="0.91pre2 r13516"
   sodipodi:docname="്ല.svg">
  <defs
     id="defs5498">
    <inkscape:path-effect
       effect="spiro"
       id="path-effect3340"
       is_visible="true" />
  </defs>
  <sodipodi:namedview
     inkscape:window-height="851"
     inkscape:window-width="1600"
     inkscape:pageshadow="2"
     inkscape:pageopacity="0.0"
     borderopacity="1.0"
     bordercolor="#666666"
     pagecolor="#ffffff"
     id="base"
     showgrid="true"
     showguides="true"
     inkscape:guide-bbox="true"
     inkscape:zoom="0.32102648"
     inkscape:cx="347.2804"
     inkscape:cy="406.85523"
     inkscape:window-x="1599"
     inkscape:window-y="-1"
     inkscape:current-layer="layer1"
     inkscape:window-maximized="1">
    <sodipodi:guide
       orientation="horizontal"
       position="0,600"
       id="guide5596" />
    <inkscape:grid
       type="xygrid"
       id="grid3769"
       empspacing="3"
       visible="true"
       enabled="true"
       snapvisiblegridlinesonly="true"
       spacingx="4px"
       units="px"
       dotted="true"
       spacingy="4px" />
    <sodipodi:guide
       orientation="0,1"
       position="-1040,1600"
       id="guide2985" />
  </sodipodi:namedview>
  <metadata
     id="metadata5594">
    <rdf:RDF>
      <cc:Work
         rdf:about="">
        <dc:format>image/svg+xml</dc:format>
        <dc:type
           rdf:resource="http://purl.org/dc/dcmitype/StillImage" />
        <dc:title />
      </cc:Work>
    </rdf:RDF>
  </metadata>
  <g
     inkscape:label="Layer 1"
     inkscape:groupmode="layer"
     id="layer1"
     transform="translate(0,1048)">
    <path
       style="fill:none;fill-rule:evenodd;stroke:#000000;stroke-width:130;stroke-linecap:round;stroke-linejoin:round;stroke-miterlimit:4;stroke-dasharray:none;stroke-opacity:1"
       d="m 350.30016,621.66477 c 23.29263,-5.09171 47.93683,-3.85484 70.6026,3.54348 C 443.56853,632.60656 464.19673,646.14702 480,664 c 15.80411,17.85392 26.7114,39.88062 32.06932,63.11476 5.35793,23.23413 5.22463,47.63347 0.35564,70.97497 -7.73831,37.09676 -27.55331,71.49076 -55.39332,97.20038 -27.84001,25.70963 -63.53026,42.68435 -100.96018,48.60484 -37.42992,5.9205 -76.45797,0.83898 -111.34509,-13.95766 -34.88711,-14.79663 -65.56237,-39.20633 -88.26634,-69.5474 -41.09109,-54.9132 -54.65996,-128.63612 -39.10796,-195.43486 15.552,-66.79875 59.10421,-125.97444 116.41791,-163.64508 40.87751,-26.86761 88.35006,-43.16298 136.88618,-49.25273 48.53611,-6.08975 98.10839,-2.12218 145.63377,9.46134 95.05075,23.16705 180.55639,76.03145 256.09996,138.19676 95.19855,78.33953 177.12099,172.29342 275.97011,245.97319 49.4245,36.83988 103.1967,68.53977 161.4934,88.5759 C 1268.1502,954.30053 1331.232,962.35427 1392,952 c 52.8302,-9.00174 103.2195,-31.95276 144.687,-65.90121 41.4676,-33.94845 73.9157,-78.81434 93.1711,-128.8272 19.2554,-50.01287 25.2727,-105.05488 17.2779,-158.04677 -7.9948,-52.99188 -29.9828,-103.80879 -63.136,-145.91487"
       id="path3338"
       inkscape:path-effect="#path-effect3340"
       inkscape:original-d="M 350.30016,621.66477 C 398.30016,621.66477 384,520 480,664 c 96,144 176.42496,86.08973 32.42496,134.08973 -144,48 -355.96493,206.30017 -355.96493,62.30016 0,-192 -66.690046,-311.07994 77.30995,-359.07994 144,-48 106.61991,-381.59463 538.61991,98.40537 C 1204.3899,1079.7153 1248,1048 1392,952 1536,856 1584,453.30995 1584,453.30995"
       inkscape:connector-curvature="0"
       sodipodi:nodetypes="cssssssc" />
  </g>
</svg>
